<?xml version="1.0" encoding="utf-8" standalone="no"?>
<!DOCTYPE svg PUBLIC "-//W3C//DTD SVG 1.1//EN"
  "http://www.w3.org/Graphics/SVG/1.1/DTD/svg11.dtd">
<!-- Created with matplotlib (http://matplotlib.org/) -->
<svg height="345pt" version="1.1" viewBox="0 0 460 345" width="460pt" xmlns="http://www.w3.org/2000/svg" xmlns:xlink="http://www.w3.org/1999/xlink">
 <defs>
  <style type="text/css">
*{stroke-linecap:butt;stroke-linejoin:round;}
  </style>
 </defs>
 <g id="figure_1">
  <g id="patch_1">
   <path d="M 0 345.6 
L 460.8 345.6 
L 460.8 0 
L 0 0 
z
" style="fill:#ffffff;"/>
  </g>
  <g id="axes_1">
   <g id="patch_2">
    <path d="M 57.6 307.584 
L 414.72 307.584 
L 414.72 41.472 
L 57.6 41.472 
z
" style="fill:#ffffff;"/>
   </g>
   <g id="matplotlib.axis_1">
    <g id="xtick_1">
     <g id="line2d_1">
      <defs>
       <path d="M 0 0 
L 0 3.5 
" id="m8d430e03a6" style="stroke:#000000;stroke-width:0.8;"/>
      </defs>
      <g>
       <use style="stroke:#000000;stroke-width:0.8;" x="73.832727" xlink:href="#m8d430e03a6" y="307.584"/>
      </g>
     </g>
     <g id="text_1">
      <!-- 0 -->
      <defs>
       <path d="M 31.78125 66.40625 
Q 24.171875 66.40625 20.328125 58.90625 
Q 16.5 51.421875 16.5 36.375 
Q 16.5 21.390625 20.328125 13.890625 
Q 24.171875 6.390625 31.78125 6.390625 
Q 39.453125 6.390625 43.28125 13.890625 
Q 47.125 21.390625 47.125 36.375 
Q 47.125 51.421875 43.28125 58.90625 
Q 39.453125 66.40625 31.78125 66.40625 
z
M 31.78125 74.21875 
Q 44.046875 74.21875 50.515625 64.515625 
Q 56.984375 54.828125 56.984375 36.375 
Q 56.984375 17.96875 50.515625 8.265625 
Q 44.046875 -1.421875 31.78125 -1.421875 
Q 19.53125 -1.421875 13.0625 8.265625 
Q 6.59375 17.96875 6.59375 36.375 
Q 6.59375 54.828125 13.0625 64.515625 
Q 19.53125 74.21875 31.78125 74.21875 
z
" id="DejaVuSans-30"/>
      </defs>
      <g transform="translate(70.651477 322.182437)scale(0.1 -0.1)">
       <use xlink:href="#DejaVuSans-30"/>
      </g>
     </g>
    </g>
    <g id="xtick_2">
     <g id="line2d_2">
      <g>
       <use style="stroke:#000000;stroke-width:0.8;" x="127.941818" xlink:href="#m8d430e03a6" y="307.584"/>
      </g>
     </g>
     <g id="text_2">
      <!-- 1 -->
      <defs>
       <path d="M 12.40625 8.296875 
L 28.515625 8.296875 
L 28.515625 63.921875 
L 10.984375 60.40625 
L 10.984375 69.390625 
L 28.421875 72.90625 
L 38.28125 72.90625 
L 38.28125 8.296875 
L 54.390625 8.296875 
L 54.390625 0 
L 12.40625 0 
z
" id="DejaVuSans-31"/>
      </defs>
      <g transform="translate(124.760568 322.182437)scale(0.1 -0.1)">
       <use xlink:href="#DejaVuSans-31"/>
      </g>
     </g>
    </g>
    <g id="xtick_3">
     <g id="line2d_3">
      <g>
       <use style="stroke:#000000;stroke-width:0.8;" x="182.050909" xlink:href="#m8d430e03a6" y="307.584"/>
      </g>
     </g>
     <g id="text_3">
      <!-- 2 -->
      <defs>
       <path d="M 19.1875 8.296875 
L 53.609375 8.296875 
L 53.609375 0 
L 7.328125 0 
L 7.328125 8.296875 
Q 12.9375 14.109375 22.625 23.890625 
Q 32.328125 33.6875 34.8125 36.53125 
Q 39.546875 41.84375 41.421875 45.53125 
Q 43.3125 49.21875 43.3125 52.78125 
Q 43.3125 58.59375 39.234375 62.25 
Q 35.15625 65.921875 28.609375 65.921875 
Q 23.96875 65.921875 18.8125 64.3125 
Q 13.671875 62.703125 7.8125 59.421875 
L 7.8125 69.390625 
Q 13.765625 71.78125 18.9375 73 
Q 24.125 74.21875 28.421875 74.21875 
Q 39.75 74.21875 46.484375 68.546875 
Q 53.21875 62.890625 53.21875 53.421875 
Q 53.21875 48.921875 51.53125 44.890625 
Q 49.859375 40.875 45.40625 35.40625 
Q 44.1875 33.984375 37.640625 27.21875 
Q 31.109375 20.453125 19.1875 8.296875 
z
" id="DejaVuSans-32"/>
      </defs>
      <g transform="translate(178.869659 322.182437)scale(0.1 -0.1)">
       <use xlink:href="#DejaVuSans-32"/>
      </g>
     </g>
    </g>
    <g id="xtick_4">
     <g id="line2d_4">
      <g>
       <use style="stroke:#000000;stroke-width:0.8;" x="236.16" xlink:href="#m8d430e03a6" y="307.584"/>
      </g>
     </g>
     <g id="text_4">
      <!-- 3 -->
      <defs>
       <path d="M 40.578125 39.3125 
Q 47.65625 37.796875 51.625 33 
Q 55.609375 28.21875 55.609375 21.1875 
Q 55.609375 10.40625 48.1875 4.484375 
Q 40.765625 -1.421875 27.09375 -1.421875 
Q 22.515625 -1.421875 17.65625 -0.515625 
Q 12.796875 0.390625 7.625 2.203125 
L 7.625 11.71875 
Q 11.71875 9.328125 16.59375 8.109375 
Q 21.484375 6.890625 26.8125 6.890625 
Q 36.078125 6.890625 40.9375 10.546875 
Q 45.796875 14.203125 45.796875 21.1875 
Q 45.796875 27.640625 41.28125 31.265625 
Q 36.765625 34.90625 28.71875 34.90625 
L 20.21875 34.90625 
L 20.21875 43.015625 
L 29.109375 43.015625 
Q 36.375 43.015625 40.234375 45.921875 
Q 44.09375 48.828125 44.09375 54.296875 
Q 44.09375 59.90625 40.109375 62.90625 
Q 36.140625 65.921875 28.71875 65.921875 
Q 24.65625 65.921875 20.015625 65.03125 
Q 15.375 64.15625 9.8125 62.3125 
L 9.8125 71.09375 
Q 15.4375 72.65625 20.34375 73.4375 
Q 25.25 74.21875 29.59375 74.21875 
Q 40.828125 74.21875 47.359375 69.109375 
Q 53.90625 64.015625 53.90625 55.328125 
Q 53.90625 49.265625 50.4375 45.09375 
Q 46.96875 40.921875 40.578125 39.3125 
z
" id="DejaVuSans-33"/>
      </defs>
      <g transform="translate(232.97875 322.182437)scale(0.1 -0.1)">
       <use xlink:href="#DejaVuSans-33"/>
      </g>
     </g>
    </g>
    <g id="xtick_5">
     <g id="line2d_5">
      <g>
       <use style="stroke:#000000;stroke-width:0.8;" x="290.269091" xlink:href="#m8d430e03a6" y="307.584"/>
      </g>
     </g>
     <g id="text_5">
      <!-- 4 -->
      <defs>
       <path d="M 37.796875 64.3125 
L 12.890625 25.390625 
L 37.796875 25.390625 
z
M 35.203125 72.90625 
L 47.609375 72.90625 
L 47.609375 25.390625 
L 58.015625 25.390625 
L 58.015625 17.1875 
L 47.609375 17.1875 
L 47.609375 0 
L 37.796875 0 
L 37.796875 17.1875 
L 4.890625 17.1875 
L 4.890625 26.703125 
z
" id="DejaVuSans-34"/>
      </defs>
      <g transform="translate(287.087841 322.182437)scale(0.1 -0.1)">
       <use xlink:href="#DejaVuSans-34"/>
      </g>
     </g>
    </g>
    <g id="xtick_6">
     <g id="line2d_6">
      <g>
       <use style="stroke:#000000;stroke-width:0.8;" x="344.378182" xlink:href="#m8d430e03a6" y="307.584"/>
      </g>
     </g>
     <g id="text_6">
      <!-- 5 -->
      <defs>
       <path d="M 10.796875 72.90625 
L 49.515625 72.90625 
L 49.515625 64.59375 
L 19.828125 64.59375 
L 19.828125 46.734375 
Q 21.96875 47.46875 24.109375 47.828125 
Q 26.265625 48.1875 28.421875 48.1875 
Q 40.625 48.1875 47.75 41.5 
Q 54.890625 34.8125 54.890625 23.390625 
Q 54.890625 11.625 47.5625 5.09375 
Q 40.234375 -1.421875 26.90625 -1.421875 
Q 22.3125 -1.421875 17.546875 -0.640625 
Q 12.796875 0.140625 7.71875 1.703125 
L 7.71875 11.625 
Q 12.109375 9.234375 16.796875 8.0625 
Q 21.484375 6.890625 26.703125 6.890625 
Q 35.15625 6.890625 40.078125 11.328125 
Q 45.015625 15.765625 45.015625 23.390625 
Q 45.015625 31 40.078125 35.4375 
Q 35.15625 39.890625 26.703125 39.890625 
Q 22.75 39.890625 18.8125 39.015625 
Q 14.890625 38.140625 10.796875 36.28125 
z
" id="DejaVuSans-35"/>
      </defs>
      <g transform="translate(341.196932 322.182437)scale(0.1 -0.1)">
       <use xlink:href="#DejaVuSans-35"/>
      </g>
     </g>
    </g>
    <g id="xtick_7">
     <g id="line2d_7">
      <g>
       <use style="stroke:#000000;stroke-width:0.8;" x="398.487273" xlink:href="#m8d430e03a6" y="307.584"/>
      </g>
     </g>
     <g id="text_7">
      <!-- 6 -->
      <defs>
       <path d="M 33.015625 40.375 
Q 26.375 40.375 22.484375 35.828125 
Q 18.609375 31.296875 18.609375 23.390625 
Q 18.609375 15.53125 22.484375 10.953125 
Q 26.375 6.390625 33.015625 6.390625 
Q 39.65625 6.390625 43.53125 10.953125 
Q 47.40625 15.53125 47.40625 23.390625 
Q 47.40625 31.296875 43.53125 35.828125 
Q 39.65625 40.375 33.015625 40.375 
z
M 52.59375 71.296875 
L 52.59375 62.3125 
Q 48.875 64.0625 45.09375 64.984375 
Q 41.3125 65.921875 37.59375 65.921875 
Q 27.828125 65.921875 22.671875 59.328125 
Q 17.53125 52.734375 16.796875 39.40625 
Q 19.671875 43.65625 24.015625 45.921875 
Q 28.375 48.1875 33.59375 48.1875 
Q 44.578125 48.1875 50.953125 41.515625 
Q 57.328125 34.859375 57.328125 23.390625 
Q 57.328125 12.15625 50.6875 5.359375 
Q 44.046875 -1.421875 33.015625 -1.421875 
Q 20.359375 -1.421875 13.671875 8.265625 
Q 6.984375 17.96875 6.984375 36.375 
Q 6.984375 53.65625 15.1875 63.9375 
Q 23.390625 74.21875 37.203125 74.21875 
Q 40.921875 74.21875 44.703125 73.484375 
Q 48.484375 72.75 52.59375 71.296875 
z
" id="DejaVuSans-36"/>
      </defs>
      <g transform="translate(395.306023 322.182437)scale(0.1 -0.1)">
       <use xlink:href="#DejaVuSans-36"/>
      </g>
     </g>
    </g>
   </g>
   <g id="matplotlib.axis_2">
    <g id="ytick_1">
     <g id="line2d_8">
      <defs>
       <path d="M 0 0 
L -3.5 0 
" id="mf67ba40eab" style="stroke:#000000;stroke-width:0.8;"/>
      </defs>
      <g>
       <use style="stroke:#000000;stroke-width:0.8;" x="57.6" xlink:href="#mf67ba40eab" y="307.584"/>
      </g>
     </g>
     <g id="text_8">
      <!-- 0 -->
      <g transform="translate(44.2375 311.383219)scale(0.1 -0.1)">
       <use xlink:href="#DejaVuSans-30"/>
      </g>
     </g>
    </g>
    <g id="ytick_2">
     <g id="line2d_9">
      <g>
       <use style="stroke:#000000;stroke-width:0.8;" x="57.6" xlink:href="#mf67ba40eab" y="274.32"/>
      </g>
     </g>
     <g id="text_9">
      <!-- 25 -->
      <g transform="translate(37.875 278.119219)scale(0.1 -0.1)">
       <use xlink:href="#DejaVuSans-32"/>
       <use x="63.623047" xlink:href="#DejaVuSans-35"/>
      </g>
     </g>
    </g>
    <g id="ytick_3">
     <g id="line2d_10">
      <g>
       <use style="stroke:#000000;stroke-width:0.8;" x="57.6" xlink:href="#mf67ba40eab" y="241.056"/>
      </g>
     </g>
     <g id="text_10">
      <!-- 50 -->
      <g transform="translate(37.875 244.855219)scale(0.1 -0.1)">
       <use xlink:href="#DejaVuSans-35"/>
       <use x="63.623047" xlink:href="#DejaVuSans-30"/>
      </g>
     </g>
    </g>
    <g id="ytick_4">
     <g id="line2d_11">
      <g>
       <use style="stroke:#000000;stroke-width:0.8;" x="57.6" xlink:href="#mf67ba40eab" y="207.792"/>
      </g>
     </g>
     <g id="text_11">
      <!-- 75 -->
      <defs>
       <path d="M 8.203125 72.90625 
L 55.078125 72.90625 
L 55.078125 68.703125 
L 28.609375 0 
L 18.3125 0 
L 43.21875 64.59375 
L 8.203125 64.59375 
z
" id="DejaVuSans-37"/>
      </defs>
      <g transform="translate(37.875 211.591219)scale(0.1 -0.1)">
       <use xlink:href="#DejaVuSans-37"/>
       <use x="63.623047" xlink:href="#DejaVuSans-35"/>
      </g>
     </g>
    </g>
    <g id="ytick_5">
     <g id="line2d_12">
      <g>
       <use style="stroke:#000000;stroke-width:0.8;" x="57.6" xlink:href="#mf67ba40eab" y="174.528"/>
      </g>
     </g>
     <g id="text_12">
      <!-- 100 -->
      <g transform="translate(31.5125 178.327219)scale(0.1 -0.1)">
       <use xlink:href="#DejaVuSans-31"/>
       <use x="63.623047" xlink:href="#DejaVuSans-30"/>
       <use x="127.246094" xlink:href="#DejaVuSans-30"/>
      </g>
     </g>
    </g>
    <g id="ytick_6">
     <g id="line2d_13">
      <g>
       <use style="stroke:#000000;stroke-width:0.8;" x="57.6" xlink:href="#mf67ba40eab" y="141.264"/>
      </g>
     </g>
     <g id="text_13">
      <!-- 125 -->
      <g transform="translate(31.5125 145.063219)scale(0.1 -0.1)">
       <use xlink:href="#DejaVuSans-31"/>
       <use x="63.623047" xlink:href="#DejaVuSans-32"/>
       <use x="127.246094" xlink:href="#DejaVuSans-35"/>
      </g>
     </g>
    </g>
    <g id="ytick_7">
     <g id="line2d_14">
      <g>
       <use style="stroke:#000000;stroke-width:0.8;" x="57.6" xlink:href="#mf67ba40eab" y="108"/>
      </g>
     </g>
     <g id="text_14">
      <!-- 150 -->
      <g transform="translate(31.5125 111.799219)scale(0.1 -0.1)">
       <use xlink:href="#DejaVuSans-31"/>
       <use x="63.623047" xlink:href="#DejaVuSans-35"/>
       <use x="127.246094" xlink:href="#DejaVuSans-30"/>
      </g>
     </g>
    </g>
    <g id="ytick_8">
     <g id="line2d_15">
      <g>
       <use style="stroke:#000000;stroke-width:0.8;" x="57.6" xlink:href="#mf67ba40eab" y="74.736"/>
      </g>
     </g>
     <g id="text_15">
      <!-- 175 -->
      <g transform="translate(31.5125 78.535219)scale(0.1 -0.1)">
       <use xlink:href="#DejaVuSans-31"/>
       <use x="63.623047" xlink:href="#DejaVuSans-37"/>
       <use x="127.246094" xlink:href="#DejaVuSans-35"/>
      </g>
     </g>
    </g>
    <g id="ytick_9">
     <g id="line2d_16">
      <g>
       <use style="stroke:#000000;stroke-width:0.8;" x="57.6" xlink:href="#mf67ba40eab" y="41.472"/>
      </g>
     </g>
     <g id="text_16">
      <!-- 200 -->
      <g transform="translate(31.5125 45.271219)scale(0.1 -0.1)">
       <use xlink:href="#DejaVuSans-32"/>
       <use x="63.623047" xlink:href="#DejaVuSans-30"/>
       <use x="127.246094" xlink:href="#DejaVuSans-30"/>
      </g>
     </g>
    </g>
   </g>
   <g id="line2d_17">
    <path clip-path="url(#pb178862788)" d="M 73.832727 307.584 
L 73.995217 307.584 
L 73.995217 302.26176 
L 74.320197 302.26176 
L 74.320197 303.59232 
L 74.970156 303.59232 
L 74.970156 298.27008 
L 75.295135 298.27008 
L 75.295135 295.60896 
L 75.620115 295.60896 
L 75.620115 288.95616 
L 75.945094 288.95616 
L 75.945094 296.93952 
L 76.270074 296.93952 
L 76.270074 290.28672 
L 76.595053 290.28672 
L 76.595053 288.95616 
L 76.920033 288.95616 
L 76.920033 286.29504 
L 77.245012 286.29504 
L 77.245012 288.95616 
L 77.569992 288.95616 
L 77.569992 291.61728 
L 77.894971 291.61728 
L 77.894971 279.64224 
L 78.219951 279.64224 
L 78.219951 286.29504 
L 78.86991 286.29504 
L 78.86991 287.6256 
L 79.194889 287.6256 
L 79.194889 291.61728 
L 79.519869 291.61728 
L 79.519869 287.6256 
L 79.844848 287.6256 
L 79.844848 274.32 
L 80.169827 274.32 
L 80.169827 286.29504 
L 80.494806 286.29504 
L 80.494806 283.63392 
L 80.819785 283.63392 
L 80.819785 280.9728 
L 81.144765 280.9728 
L 81.144765 278.31168 
L 81.469744 278.31168 
L 81.469744 276.98112 
L 81.794726 276.98112 
L 81.794726 268.99776 
L 82.119708 268.99776 
L 82.119708 288.95616 
L 82.444687 288.95616 
L 82.444687 257.02272 
L 82.769666 257.02272 
L 82.769666 271.65888 
L 83.094645 271.65888 
L 83.094645 290.28672 
L 83.419624 290.28672 
L 83.419624 275.65056 
L 83.744604 275.65056 
L 83.744604 286.29504 
L 84.069583 286.29504 
L 84.069583 274.32 
L 84.394562 274.32 
L 84.394562 290.28672 
L 84.719541 290.28672 
L 84.719541 271.65888 
L 85.04452 271.65888 
L 85.04452 274.32 
L 85.3695 274.32 
L 85.3695 290.28672 
L 85.694479 290.28672 
L 85.694479 275.65056 
L 86.019458 275.65056 
L 86.019458 279.64224 
L 86.344437 279.64224 
L 86.344437 278.31168 
L 86.669416 278.31168 
L 86.669416 282.30336 
L 86.994396 282.30336 
L 86.994396 276.98112 
L 87.319378 276.98112 
L 87.319378 268.99776 
L 87.64436 268.99776 
L 87.64436 280.9728 
L 87.969339 280.9728 
L 87.969339 283.63392 
L 88.294318 283.63392 
L 88.294318 287.6256 
L 88.619297 287.6256 
L 88.619297 282.30336 
L 88.944276 282.30336 
L 88.944276 280.9728 
L 89.269256 280.9728 
L 89.269256 274.32 
L 89.594235 274.32 
L 89.594235 294.2784 
L 89.919214 294.2784 
L 89.919214 298.27008 
L 90.244193 298.27008 
L 90.244193 267.6672 
L 90.569172 267.6672 
L 90.569172 286.29504 
L 90.894152 286.29504 
L 90.894152 290.28672 
L 91.219131 290.28672 
L 91.219131 274.32 
L 91.54411 274.32 
L 91.54411 292.94784 
L 91.869089 292.94784 
L 91.869089 294.2784 
L 92.194068 294.2784 
L 92.194068 266.33664 
L 92.519048 266.33664 
L 92.519048 276.98112 
L 92.844029 276.98112 
L 92.844029 280.9728 
L 93.169011 280.9728 
L 93.169011 279.64224 
L 93.493991 279.64224 
L 93.493991 292.94784 
L 93.81897 292.94784 
L 93.81897 279.64224 
L 94.143949 279.64224 
L 94.143949 288.95616 
L 94.468928 288.95616 
L 94.468928 275.65056 
L 94.793907 275.65056 
L 94.793907 280.9728 
L 95.118887 280.9728 
L 95.118887 278.31168 
L 95.443866 278.31168 
L 95.443866 276.98112 
L 96.093824 276.98112 
L 96.093824 278.31168 
L 96.418803 278.31168 
L 96.418803 275.65056 
L 96.743783 275.65056 
L 96.743783 272.98944 
L 97.068762 272.98944 
L 97.068762 284.96448 
L 97.393741 284.96448 
L 97.393741 261.0144 
L 97.71872 261.0144 
L 97.71872 282.30336 
L 98.043702 282.30336 
L 98.043702 274.32 
L 98.368684 274.32 
L 98.368684 271.65888 
L 98.693663 271.65888 
L 98.693663 274.32 
L 99.018642 274.32 
L 99.018642 276.98112 
L 99.343622 276.98112 
L 99.343622 275.65056 
L 99.668601 275.65056 
L 99.668601 292.94784 
L 99.99358 292.94784 
L 99.99358 267.6672 
L 100.318559 267.6672 
L 100.318559 283.63392 
L 100.643538 283.63392 
L 100.643538 275.65056 
L 100.968518 275.65056 
L 100.968518 268.99776 
L 101.293497 268.99776 
L 101.293497 272.98944 
L 101.618476 272.98944 
L 101.618476 283.63392 
L 101.943455 283.63392 
L 101.943455 278.31168 
L 102.268434 278.31168 
L 102.268434 286.29504 
L 102.593414 286.29504 
L 102.593414 280.9728 
L 102.918393 280.9728 
L 102.918393 276.98112 
L 103.243372 276.98112 
L 103.243372 279.64224 
L 103.568354 279.64224 
L 103.568354 276.98112 
L 103.893336 276.98112 
L 103.893336 278.31168 
L 104.868273 278.31168 
L 104.868273 283.63392 
L 105.193253 283.63392 
L 105.193253 292.94784 
L 105.518232 292.94784 
L 105.518232 275.65056 
L 105.843211 275.65056 
L 105.843211 279.64224 
L 106.16819 279.64224 
L 106.16819 282.30336 
L 106.818149 282.30336 
L 106.818149 280.9728 
L 107.468107 280.9728 
L 107.468107 276.98112 
L 107.793086 276.98112 
L 107.793086 282.30336 
L 108.118065 282.30336 
L 108.118065 272.98944 
L 108.443045 272.98944 
L 108.443045 279.64224 
L 108.768024 279.64224 
L 108.768024 275.65056 
L 109.417988 275.65056 
L 109.417988 279.64224 
L 109.742967 279.64224 
L 109.742967 284.96448 
L 110.067946 284.96448 
L 110.067946 282.30336 
L 110.392925 282.30336 
L 110.392925 288.95616 
L 110.717904 288.95616 
L 110.717904 284.96448 
L 111.042884 284.96448 
L 111.042884 278.31168 
L 111.367863 278.31168 
L 111.367863 287.6256 
L 111.692842 287.6256 
L 111.692842 271.65888 
L 112.017821 271.65888 
L 112.017821 279.64224 
L 112.66778 279.64224 
L 112.66778 272.98944 
L 112.992759 272.98944 
L 112.992759 276.98112 
L 113.317738 276.98112 
L 113.317738 280.9728 
L 113.642717 280.9728 
L 113.642717 276.98112 
L 113.967696 276.98112 
L 113.967696 283.63392 
L 114.61766 283.63392 
L 114.61766 288.95616 
L 114.942639 288.95616 
L 114.942639 265.00608 
L 115.267619 265.00608 
L 115.267619 278.31168 
L 115.592598 278.31168 
L 115.592598 280.9728 
L 115.917577 280.9728 
L 115.917577 287.6256 
L 116.242556 287.6256 
L 116.242556 288.95616 
L 116.567535 288.95616 
L 116.567535 278.31168 
L 116.892515 278.31168 
L 116.892515 284.96448 
L 117.217494 284.96448 
L 117.217494 279.64224 
L 117.867452 279.64224 
L 117.867452 275.65056 
L 118.192431 275.65056 
L 118.192431 272.98944 
L 118.517411 272.98944 
L 118.517411 280.9728 
L 118.84239 280.9728 
L 118.84239 274.32 
L 119.167369 274.32 
L 119.167369 288.95616 
L 119.492348 288.95616 
L 119.492348 284.96448 
L 119.81733 284.96448 
L 119.81733 279.64224 
L 120.142312 279.64224 
L 120.142312 268.99776 
L 120.467291 268.99776 
L 120.467291 276.98112 
L 120.79227 276.98112 
L 120.79227 279.64224 
L 121.11725 279.64224 
L 121.11725 280.9728 
L 121.442229 280.9728 
L 121.442229 290.28672 
L 121.767208 290.28672 
L 121.767208 287.6256 
L 122.092187 287.6256 
L 122.092187 271.65888 
L 122.417166 271.65888 
L 122.417166 280.9728 
L 122.742146 280.9728 
L 122.742146 276.98112 
L 123.067125 276.98112 
L 123.067125 283.63392 
L 123.392104 283.63392 
L 123.392104 286.29504 
L 123.717083 286.29504 
L 123.717083 284.96448 
L 124.042062 284.96448 
L 124.042062 267.6672 
L 124.367042 267.6672 
L 124.367042 272.98944 
L 124.692021 272.98944 
L 124.692021 270.32832 
L 125.017 270.32832 
L 125.017 276.98112 
L 125.341982 276.98112 
L 125.341982 283.63392 
L 125.666964 283.63392 
L 125.666964 280.9728 
L 126.316922 280.9728 
L 126.316922 278.31168 
L 127.29186 278.31168 
L 127.29186 272.98944 
L 127.616839 272.98944 
L 127.616839 275.65056 
L 128.266797 275.65056 
L 128.266797 280.9728 
L 128.591777 280.9728 
L 128.591777 286.29504 
L 128.916756 286.29504 
L 128.916756 275.65056 
L 129.241735 275.65056 
L 129.241735 271.65888 
L 129.566714 271.65888 
L 129.566714 282.30336 
L 129.891693 282.30336 
L 129.891693 275.65056 
L 130.216673 275.65056 
L 130.216673 271.65888 
L 130.541652 271.65888 
L 130.541652 268.99776 
L 130.866631 268.99776 
L 130.866631 274.32 
L 131.19161 274.32 
L 131.19161 271.65888 
L 131.516589 271.65888 
L 131.516589 280.9728 
L 131.841569 280.9728 
L 131.841569 278.31168 
L 132.491527 278.31168 
L 132.491527 275.65056 
L 132.816506 275.65056 
L 132.816506 284.96448 
L 133.141485 284.96448 
L 133.141485 268.99776 
L 133.466465 268.99776 
L 133.466465 276.98112 
L 133.791444 276.98112 
L 133.791444 278.31168 
L 134.116423 278.31168 
L 134.116423 279.64224 
L 134.441402 279.64224 
L 134.441402 276.98112 
L 134.766381 276.98112 
L 134.766381 279.64224 
L 135.091361 279.64224 
L 135.091361 276.98112 
L 135.41634 276.98112 
L 135.41634 278.31168 
L 135.741319 278.31168 
L 135.741319 286.29504 
L 136.066298 286.29504 
L 136.066298 279.64224 
L 136.391277 279.64224 
L 136.391277 271.65888 
L 136.716257 271.65888 
L 136.716257 279.64224 
L 137.041236 279.64224 
L 137.041236 272.98944 
L 137.366215 272.98944 
L 137.366215 284.96448 
L 137.691194 284.96448 
L 137.691194 290.28672 
L 138.016173 290.28672 
L 138.016173 276.98112 
L 138.341153 276.98112 
L 138.341153 284.96448 
L 138.666132 284.96448 
L 138.666132 296.93952 
L 138.991111 296.93952 
L 138.991111 280.9728 
L 139.31609 280.9728 
L 139.31609 283.63392 
L 139.641069 283.63392 
L 139.641069 279.64224 
L 140.291028 279.64224 
L 140.291028 284.96448 
L 140.616007 284.96448 
L 140.616007 290.28672 
L 140.940986 290.28672 
L 140.940986 292.94784 
L 141.265965 292.94784 
L 141.265965 284.96448 
L 141.590945 284.96448 
L 141.590945 282.30336 
L 141.915924 282.30336 
L 141.915924 280.9728 
L 142.240903 280.9728 
L 142.240903 278.31168 
L 142.565882 278.31168 
L 142.565882 271.65888 
L 142.890861 271.65888 
L 142.890861 288.95616 
L 143.215841 288.95616 
L 143.215841 284.96448 
L 143.54082 284.96448 
L 143.54082 279.64224 
L 143.865799 279.64224 
L 143.865799 286.29504 
L 144.190778 286.29504 
L 144.190778 275.65056 
L 144.840737 275.65056 
L 144.840737 286.29504 
L 145.165716 286.29504 
L 145.165716 282.30336 
L 145.490695 282.30336 
L 145.490695 280.9728 
L 145.815674 280.9728 
L 145.815674 272.98944 
L 146.140653 272.98944 
L 146.140653 278.31168 
L 146.465633 278.31168 
L 146.465633 280.9728 
L 146.790612 280.9728 
L 146.790612 279.64224 
L 147.115591 279.64224 
L 147.115591 288.95616 
L 147.44057 288.95616 
L 147.44057 272.98944 
L 147.765549 272.98944 
L 147.765549 268.99776 
L 148.090529 268.99776 
L 148.090529 275.65056 
L 148.415508 275.65056 
L 148.415508 278.31168 
L 149.065466 278.31168 
L 149.065466 279.64224 
L 149.390445 279.64224 
L 149.390445 280.9728 
L 149.715425 280.9728 
L 149.715425 282.30336 
L 150.040404 282.30336 
L 150.040404 286.29504 
L 150.365383 286.29504 
L 150.365383 279.64224 
L 150.690362 279.64224 
L 150.690362 270.32832 
L 151.015341 270.32832 
L 151.015341 286.29504 
L 151.340321 286.29504 
L 151.340321 284.96448 
L 151.6653 284.96448 
L 151.6653 286.29504 
L 151.990279 286.29504 
L 151.990279 284.96448 
L 152.315258 284.96448 
L 152.315258 276.98112 
L 152.640237 276.98112 
L 152.640237 274.32 
L 152.965217 274.32 
L 152.965217 283.63392 
L 153.290196 283.63392 
L 153.290196 286.29504 
L 153.615175 286.29504 
L 153.615175 270.32832 
L 153.940154 270.32832 
L 153.940154 284.96448 
L 154.265133 284.96448 
L 154.265133 276.98112 
L 154.590113 276.98112 
L 154.590113 283.63392 
L 154.915119 283.63392 
L 154.915119 279.64224 
L 155.240125 279.64224 
L 155.240125 262.34496 
L 155.565104 262.34496 
L 155.565104 275.65056 
L 155.890083 275.65056 
L 155.890083 278.31168 
L 156.215063 278.31168 
L 156.215063 272.98944 
L 156.540042 272.98944 
L 156.540042 279.64224 
L 156.865021 279.64224 
L 156.865021 280.9728 
L 157.514979 280.9728 
L 157.514979 278.31168 
L 157.839959 278.31168 
L 157.839959 270.32832 
L 158.164938 270.32832 
L 158.164938 268.99776 
L 158.489917 268.99776 
L 158.489917 275.65056 
L 158.814896 275.65056 
L 158.814896 270.32832 
L 159.139875 270.32832 
L 159.139875 272.98944 
L 159.464855 272.98944 
L 159.464855 292.94784 
L 159.789834 292.94784 
L 159.789834 272.98944 
L 160.114813 272.98944 
L 160.114813 278.31168 
L 160.439792 278.31168 
L 160.439792 282.30336 
L 160.764771 282.30336 
L 160.764771 279.64224 
L 161.089751 279.64224 
L 161.089751 283.63392 
L 161.41473 283.63392 
L 161.41473 268.99776 
L 161.739709 268.99776 
L 161.739709 287.6256 
L 162.064688 287.6256 
L 162.064688 271.65888 
L 162.389667 271.65888 
L 162.389667 280.9728 
L 162.714647 280.9728 
L 162.714647 282.30336 
L 163.039626 282.30336 
L 163.039626 287.6256 
L 163.364605 287.6256 
L 163.364605 286.29504 
L 163.689584 286.29504 
L 163.689584 278.31168 
L 164.014563 278.31168 
L 164.014563 280.9728 
L 164.664522 280.9728 
L 164.664522 286.29504 
L 164.989501 286.29504 
L 164.989501 284.96448 
L 165.31448 284.96448 
L 165.31448 276.98112 
L 165.964439 276.98112 
L 165.964439 278.31168 
L 166.289418 278.31168 
L 166.289418 280.9728 
L 166.939376 280.9728 
L 166.939376 278.31168 
L 167.264355 278.31168 
L 167.264355 272.98944 
L 167.589335 272.98944 
L 167.589335 279.64224 
L 167.914314 279.64224 
L 167.914314 283.63392 
L 168.239293 283.63392 
L 168.239293 284.96448 
L 168.889251 284.96448 
L 168.889251 276.98112 
L 169.214231 276.98112 
L 169.214231 280.9728 
L 169.53921 280.9728 
L 169.53921 279.64224 
L 169.864189 279.64224 
L 169.864189 287.6256 
L 170.189168 287.6256 
L 170.189168 278.31168 
L 170.514147 278.31168 
L 170.514147 290.28672 
L 170.839127 290.28672 
L 170.839127 291.61728 
L 171.164106 291.61728 
L 171.164106 283.63392 
L 171.489085 283.63392 
L 171.489085 290.28672 
L 171.814064 290.28672 
L 171.814064 287.6256 
L 172.139043 287.6256 
L 172.139043 283.63392 
L 172.464023 283.63392 
L 172.464023 291.61728 
L 172.789002 291.61728 
L 172.789002 288.95616 
L 173.113981 288.95616 
L 173.113981 274.32 
L 173.43896 274.32 
L 173.43896 287.6256 
L 173.763939 287.6256 
L 173.763939 282.30336 
L 174.088919 282.30336 
L 174.088919 276.98112 
L 174.413898 276.98112 
L 174.413898 283.63392 
L 174.738877 283.63392 
L 174.738877 292.94784 
L 175.063856 292.94784 
L 175.063856 288.95616 
L 175.388835 288.95616 
L 175.388835 275.65056 
L 175.713815 275.65056 
L 175.713815 286.29504 
L 176.038794 286.29504 
L 176.038794 276.98112 
L 176.363773 276.98112 
L 176.363773 286.29504 
L 176.688752 286.29504 
L 176.688752 284.96448 
L 177.013731 284.96448 
L 177.013731 274.32 
L 177.338711 274.32 
L 177.338711 284.96448 
L 177.988669 284.96448 
L 177.988669 272.98944 
L 178.313648 272.98944 
L 178.313648 276.98112 
L 178.638627 276.98112 
L 178.638627 284.96448 
L 178.963607 284.96448 
L 178.963607 279.64224 
L 179.288586 279.64224 
L 179.288586 284.96448 
L 179.613565 284.96448 
L 179.613565 291.61728 
L 179.938544 291.61728 
L 179.938544 275.65056 
L 180.263523 275.65056 
L 180.263523 280.9728 
L 180.588503 280.9728 
L 180.588503 272.98944 
L 180.913482 272.98944 
L 180.913482 282.30336 
L 181.238461 282.30336 
L 181.238461 271.65888 
L 181.56344 271.65888 
L 181.56344 282.30336 
L 181.888419 282.30336 
L 181.888419 288.95616 
L 182.213399 288.95616 
L 182.213399 262.34496 
L 182.538378 262.34496 
L 182.538378 286.29504 
L 183.513315 286.29504 
L 183.513315 279.64224 
L 183.838295 279.64224 
L 183.838295 276.98112 
L 184.163274 276.98112 
L 184.163274 280.9728 
L 184.488253 280.9728 
L 184.488253 279.64224 
L 184.813232 279.64224 
L 184.813232 274.32 
L 185.138211 274.32 
L 185.138211 279.64224 
L 185.463191 279.64224 
L 185.463191 287.6256 
L 185.78817 287.6256 
L 185.78817 271.65888 
L 186.438128 271.65888 
L 186.438128 287.6256 
L 186.763107 287.6256 
L 186.763107 282.30336 
L 187.088087 282.30336 
L 187.088087 275.65056 
L 187.413066 275.65056 
L 187.413066 283.63392 
L 187.738045 283.63392 
L 187.738045 279.64224 
L 188.063024 279.64224 
L 188.063024 282.30336 
L 188.388003 282.30336 
L 188.388003 280.9728 
L 188.712983 280.9728 
L 188.712983 287.6256 
L 189.037962 287.6256 
L 189.037962 275.65056 
L 189.362941 275.65056 
L 189.362941 292.94784 
L 189.68792 292.94784 
L 189.68792 286.29504 
L 190.012899 286.29504 
L 190.012899 283.63392 
L 190.337879 283.63392 
L 190.337879 284.96448 
L 190.662858 284.96448 
L 190.662858 279.64224 
L 190.987837 279.64224 
L 190.987837 274.32 
L 191.312816 274.32 
L 191.312816 278.31168 
L 191.637795 278.31168 
L 191.637795 284.96448 
L 191.962775 284.96448 
L 191.962775 272.98944 
L 192.287754 272.98944 
L 192.287754 284.96448 
L 192.612733 284.96448 
L 192.612733 279.64224 
L 192.937712 279.64224 
L 192.937712 276.98112 
L 193.262691 276.98112 
L 193.262691 271.65888 
L 193.587671 271.65888 
L 193.587671 284.96448 
L 193.91265 284.96448 
L 193.91265 267.6672 
L 194.237629 267.6672 
L 194.237629 275.65056 
L 194.562608 275.65056 
L 194.562608 267.6672 
L 194.887587 267.6672 
L 194.887587 276.98112 
L 195.212567 276.98112 
L 195.212567 267.6672 
L 195.537546 267.6672 
L 195.537546 275.65056 
L 195.862525 275.65056 
L 195.862525 268.99776 
L 196.187504 268.99776 
L 196.187504 258.35328 
L 196.512483 258.35328 
L 196.512483 268.99776 
L 196.837463 268.99776 
L 196.837463 279.64224 
L 197.162442 279.64224 
L 197.162442 275.65056 
L 197.487421 275.65056 
L 197.487421 274.32 
L 197.8124 274.32 
L 197.8124 275.65056 
L 198.137379 275.65056 
L 198.137379 280.9728 
L 198.462359 280.9728 
L 198.462359 272.98944 
L 199.112317 272.98944 
L 199.112317 265.00608 
L 199.437296 265.00608 
L 199.437296 267.6672 
L 199.762275 267.6672 
L 199.762275 262.34496 
L 200.087255 262.34496 
L 200.087255 276.98112 
L 200.412234 276.98112 
L 200.412234 268.99776 
L 201.062192 268.99776 
L 201.062192 265.00608 
L 201.387171 265.00608 
L 201.387171 267.6672 
L 201.712151 267.6672 
L 201.712151 266.33664 
L 202.03713 266.33664 
L 202.03713 258.35328 
L 202.362109 258.35328 
L 202.362109 257.02272 
L 202.687088 257.02272 
L 202.687088 258.35328 
L 203.012067 258.35328 
L 203.012067 259.68384 
L 203.337047 259.68384 
L 203.337047 274.32 
L 203.662026 274.32 
L 203.662026 250.36992 
L 203.987005 250.36992 
L 203.987005 241.056 
L 204.311984 241.056 
L 204.311984 254.3616 
L 204.636963 254.3616 
L 204.636963 267.6672 
L 204.961943 267.6672 
L 204.961943 255.69216 
L 205.286922 255.69216 
L 205.286922 253.03104 
L 205.611901 253.03104 
L 205.611901 237.06432 
L 205.93688 237.06432 
L 205.93688 243.71712 
L 206.261859 243.71712 
L 206.261859 231.74208 
L 206.586839 231.74208 
L 206.586839 254.3616 
L 206.911818 254.3616 
L 206.911818 246.37824 
L 207.236797 246.37824 
L 207.236797 245.04768 
L 207.561776 245.04768 
L 207.561776 243.71712 
L 207.886755 243.71712 
L 207.886755 246.37824 
L 208.211735 246.37824 
L 208.211735 230.41152 
L 208.536714 230.41152 
L 208.536714 234.4032 
L 208.861693 234.4032 
L 208.861693 250.36992 
L 209.186699 250.36992 
L 209.186699 215.77536 
L 209.511706 215.77536 
L 209.511706 237.06432 
L 209.836685 237.06432 
L 209.836685 226.41984 
L 210.161664 226.41984 
L 210.161664 239.72544 
L 210.486643 239.72544 
L 210.486643 230.41152 
L 210.811622 230.41152 
L 210.811622 234.4032 
L 211.461581 234.4032 
L 211.461581 215.77536 
L 211.78656 215.77536 
L 211.78656 233.07264 
L 212.111539 233.07264 
L 212.111539 225.08928 
L 212.436518 225.08928 
L 212.436518 219.76704 
L 212.761498 219.76704 
L 212.761498 230.41152 
L 213.086477 230.41152 
L 213.086477 225.08928 
L 213.411456 225.08928 
L 213.411456 213.11424 
L 213.736435 213.11424 
L 213.736435 215.77536 
L 214.061414 215.77536 
L 214.061414 205.13088 
L 214.386394 205.13088 
L 214.386394 194.4864 
L 214.711373 194.4864 
L 214.711373 197.14752 
L 215.036352 197.14752 
L 215.036352 198.47808 
L 215.361331 198.47808 
L 215.361331 186.50304 
L 215.68631 186.50304 
L 215.68631 203.80032 
L 216.01129 203.80032 
L 216.01129 187.8336 
L 216.336269 187.8336 
L 216.336269 207.792 
L 216.986227 207.792 
L 216.986227 205.13088 
L 217.311206 205.13088 
L 217.311206 186.50304 
L 217.636186 186.50304 
L 217.636186 199.80864 
L 217.961165 199.80864 
L 217.961165 182.51136 
L 218.286144 182.51136 
L 218.286144 178.51968 
L 218.611123 178.51968 
L 218.611123 177.18912 
L 219.261082 177.18912 
L 219.261082 173.19744 
L 219.586061 173.19744 
L 219.586061 169.20576 
L 219.91104 169.20576 
L 219.91104 143.92512 
L 220.236019 143.92512 
L 220.236019 182.51136 
L 220.560998 182.51136 
L 220.560998 162.55296 
L 220.885978 162.55296 
L 220.885978 158.56128 
L 221.210957 158.56128 
L 221.210957 169.20576 
L 221.535936 169.20576 
L 221.535936 161.2224 
L 221.860915 161.2224 
L 221.860915 143.92512 
L 222.185894 143.92512 
L 222.185894 154.5696 
L 222.510874 154.5696 
L 222.510874 198.47808 
L 222.835853 198.47808 
L 222.835853 151.90848 
L 223.160832 151.90848 
L 223.160832 138.60288 
L 223.485811 138.60288 
L 223.485811 121.3056 
L 223.81079 121.3056 
L 223.81079 157.23072 
L 224.13577 157.23072 
L 224.13577 131.95008 
L 224.460749 131.95008 
L 224.460749 150.57792 
L 224.785728 150.57792 
L 224.785728 133.28064 
L 225.110707 133.28064 
L 225.110707 165.21408 
L 225.435686 165.21408 
L 225.435686 154.5696 
L 225.760666 154.5696 
L 225.760666 135.94176 
L 226.085645 135.94176 
L 226.085645 134.6112 
L 226.410624 134.6112 
L 226.410624 157.23072 
L 226.735603 157.23072 
L 226.735603 98.68608 
L 227.060582 98.68608 
L 227.060582 114.6528 
L 227.385562 114.6528 
L 227.385562 131.95008 
L 227.710541 131.95008 
L 227.710541 111.99168 
L 228.360499 111.99168 
L 228.360499 155.90016 
L 228.685478 155.90016 
L 228.685478 130.61952 
L 229.010458 130.61952 
L 229.010458 146.58624 
L 229.335437 146.58624 
L 229.335437 141.264 
L 229.660416 141.264 
L 229.660416 126.62784 
L 229.985395 126.62784 
L 229.985395 134.6112 
L 230.310374 134.6112 
L 230.310374 108 
L 230.635354 108 
L 230.635354 135.94176 
L 230.960333 135.94176 
L 230.960333 122.63616 
L 231.285312 122.63616 
L 231.285312 150.57792 
L 231.610291 150.57792 
L 231.610291 131.95008 
L 231.93527 131.95008 
L 231.93527 110.66112 
L 232.26025 110.66112 
L 232.26025 118.64448 
L 232.585229 118.64448 
L 232.585229 129.28896 
L 232.910208 129.28896 
L 232.910208 117.31392 
L 233.235187 117.31392 
L 233.235187 104.00832 
L 233.560166 104.00832 
L 233.560166 110.66112 
L 233.885146 110.66112 
L 233.885146 119.97504 
L 234.210125 119.97504 
L 234.210125 106.66944 
L 234.535104 106.66944 
L 234.535104 115.98336 
L 234.860083 115.98336 
L 234.860083 106.66944 
L 235.185062 106.66944 
L 235.185062 93.36384 
L 235.510042 93.36384 
L 235.510042 102.67776 
L 235.835021 102.67776 
L 235.835021 135.94176 
L 236.16 135.94176 
L 236.16 129.28896 
L 236.484979 129.28896 
L 236.484979 127.9584 
L 236.809958 127.9584 
L 236.809958 105.33888 
L 237.134938 105.33888 
L 237.134938 90.70272 
L 237.784896 90.70272 
L 237.784896 98.68608 
L 238.109875 98.68608 
L 238.109875 121.3056 
L 238.434854 121.3056 
L 238.434854 96.02496 
L 238.759834 96.02496 
L 238.759834 101.3472 
L 239.084813 101.3472 
L 239.084813 113.32224 
L 239.409792 113.32224 
L 239.409792 106.66944 
L 239.734771 106.66944 
L 239.734771 80.05824 
L 240.05975 80.05824 
L 240.05975 125.29728 
L 240.38473 125.29728 
L 240.38473 85.38048 
L 240.709709 85.38048 
L 240.709709 109.33056 
L 241.034688 109.33056 
L 241.034688 122.63616 
L 241.359667 122.63616 
L 241.359667 134.6112 
L 241.684646 134.6112 
L 241.684646 111.99168 
L 242.009626 111.99168 
L 242.009626 114.6528 
L 242.334605 114.6528 
L 242.334605 134.6112 
L 242.659584 134.6112 
L 242.659584 102.67776 
L 242.984563 102.67776 
L 242.984563 109.33056 
L 243.309542 109.33056 
L 243.309542 117.31392 
L 243.634522 117.31392 
L 243.634522 149.24736 
L 243.959501 149.24736 
L 243.959501 135.94176 
L 244.28448 135.94176 
L 244.28448 129.28896 
L 244.609459 129.28896 
L 244.609459 121.3056 
L 244.934438 121.3056 
L 244.934438 117.31392 
L 245.259418 117.31392 
L 245.259418 165.21408 
L 245.584397 165.21408 
L 245.584397 146.58624 
L 245.909376 146.58624 
L 245.909376 114.6528 
L 246.234355 114.6528 
L 246.234355 118.64448 
L 246.559334 118.64448 
L 246.559334 149.24736 
L 246.884314 149.24736 
L 246.884314 163.88352 
L 247.209293 163.88352 
L 247.209293 155.90016 
L 247.534272 155.90016 
L 247.534272 151.90848 
L 247.859251 151.90848 
L 247.859251 153.23904 
L 248.18423 153.23904 
L 248.18423 142.59456 
L 248.50921 142.59456 
L 248.50921 165.21408 
L 248.834189 165.21408 
L 248.834189 139.93344 
L 249.159168 139.93344 
L 249.159168 159.89184 
L 249.809126 159.89184 
L 249.809126 150.57792 
L 250.134106 150.57792 
L 250.134106 153.23904 
L 250.459085 153.23904 
L 250.459085 198.47808 
L 250.784064 198.47808 
L 250.784064 154.5696 
L 251.109043 154.5696 
L 251.109043 174.528 
L 251.434022 174.528 
L 251.434022 169.20576 
L 251.759002 169.20576 
L 251.759002 173.19744 
L 252.083981 173.19744 
L 252.083981 174.528 
L 252.40896 174.528 
L 252.40896 183.84192 
L 252.733939 183.84192 
L 252.733939 166.54464 
L 253.058918 166.54464 
L 253.058918 185.17248 
L 253.383898 185.17248 
L 253.383898 186.50304 
L 253.708877 186.50304 
L 253.708877 187.8336 
L 254.033856 187.8336 
L 254.033856 185.17248 
L 254.358835 185.17248 
L 254.358835 177.18912 
L 254.683814 177.18912 
L 254.683814 213.11424 
L 255.008794 213.11424 
L 255.008794 214.4448 
L 255.333773 214.4448 
L 255.333773 182.51136 
L 255.658752 182.51136 
L 255.658752 205.13088 
L 255.983731 205.13088 
L 255.983731 207.792 
L 256.63369 207.792 
L 256.63369 217.10592 
L 256.958669 217.10592 
L 256.958669 201.1392 
L 257.283648 201.1392 
L 257.283648 198.47808 
L 257.608627 198.47808 
L 257.608627 223.75872 
L 257.933606 223.75872 
L 257.933606 203.80032 
L 258.258586 203.80032 
L 258.258586 197.14752 
L 258.583565 197.14752 
L 258.583565 211.78368 
L 258.908544 211.78368 
L 258.908544 239.72544 
L 259.233523 239.72544 
L 259.233523 217.10592 
L 259.558502 217.10592 
L 259.558502 231.74208 
L 259.883482 231.74208 
L 259.883482 222.42816 
L 260.208461 222.42816 
L 260.208461 219.76704 
L 260.53344 219.76704 
L 260.53344 206.46144 
L 260.858419 206.46144 
L 260.858419 230.41152 
L 261.183398 230.41152 
L 261.183398 238.39488 
L 261.508378 238.39488 
L 261.508378 222.42816 
L 261.833357 222.42816 
L 261.833357 229.08096 
L 262.158336 229.08096 
L 262.158336 251.70048 
L 262.483315 251.70048 
L 262.483315 229.08096 
L 262.808294 229.08096 
L 262.808294 245.04768 
L 263.133301 245.04768 
L 263.133301 230.41152 
L 263.458307 230.41152 
L 263.458307 222.42816 
L 263.783286 222.42816 
L 263.783286 237.06432 
L 264.108265 237.06432 
L 264.108265 239.72544 
L 264.433245 239.72544 
L 264.433245 229.08096 
L 264.758224 229.08096 
L 264.758224 241.056 
L 265.083203 241.056 
L 265.083203 215.77536 
L 265.408182 215.77536 
L 265.408182 231.74208 
L 265.733161 231.74208 
L 265.733161 243.71712 
L 266.058141 243.71712 
L 266.058141 239.72544 
L 266.38312 239.72544 
L 266.38312 230.41152 
L 266.708099 230.41152 
L 266.708099 233.07264 
L 267.033078 233.07264 
L 267.033078 243.71712 
L 267.358057 243.71712 
L 267.358057 267.6672 
L 267.683037 267.6672 
L 267.683037 246.37824 
L 268.008016 246.37824 
L 268.008016 245.04768 
L 268.332995 245.04768 
L 268.332995 249.03936 
L 268.657974 249.03936 
L 268.657974 243.71712 
L 268.982953 243.71712 
L 268.982953 245.04768 
L 269.307933 245.04768 
L 269.307933 259.68384 
L 269.632912 259.68384 
L 269.632912 266.33664 
L 269.957891 266.33664 
L 269.957891 268.99776 
L 270.28287 268.99776 
L 270.28287 279.64224 
L 270.607849 279.64224 
L 270.607849 274.32 
L 270.932829 274.32 
L 270.932829 267.6672 
L 271.257808 267.6672 
L 271.257808 279.64224 
L 271.582787 279.64224 
L 271.582787 282.30336 
L 271.907766 282.30336 
L 271.907766 267.6672 
L 272.232745 267.6672 
L 272.232745 265.00608 
L 272.557725 265.00608 
L 272.557725 268.99776 
L 272.882704 268.99776 
L 272.882704 259.68384 
L 273.207683 259.68384 
L 273.207683 262.34496 
L 273.532662 262.34496 
L 273.532662 288.95616 
L 273.857641 288.95616 
L 273.857641 266.33664 
L 274.182621 266.33664 
L 274.182621 272.98944 
L 274.5076 272.98944 
L 274.5076 271.65888 
L 274.832579 271.65888 
L 274.832579 278.31168 
L 275.157558 278.31168 
L 275.157558 271.65888 
L 275.482537 271.65888 
L 275.482537 275.65056 
L 275.807517 275.65056 
L 275.807517 274.32 
L 276.132496 274.32 
L 276.132496 288.95616 
L 276.457475 288.95616 
L 276.457475 275.65056 
L 276.782454 275.65056 
L 276.782454 278.31168 
L 277.107433 278.31168 
L 277.107433 268.99776 
L 277.432413 268.99776 
L 277.432413 287.6256 
L 277.757392 287.6256 
L 277.757392 275.65056 
L 278.082371 275.65056 
L 278.082371 276.98112 
L 278.40735 276.98112 
L 278.40735 268.99776 
L 278.732329 268.99776 
L 278.732329 283.63392 
L 279.057309 283.63392 
L 279.057309 262.34496 
L 279.382288 262.34496 
L 279.382288 290.28672 
L 279.707267 290.28672 
L 279.707267 280.9728 
L 280.032246 280.9728 
L 280.032246 276.98112 
L 280.357225 276.98112 
L 280.357225 272.98944 
L 280.682205 272.98944 
L 280.682205 271.65888 
L 281.007184 271.65888 
L 281.007184 284.96448 
L 281.332163 284.96448 
L 281.332163 275.65056 
L 281.657142 275.65056 
L 281.657142 265.00608 
L 281.982121 265.00608 
L 281.982121 271.65888 
L 282.307101 271.65888 
L 282.307101 270.32832 
L 282.63208 270.32832 
L 282.63208 279.64224 
L 282.957059 279.64224 
L 282.957059 282.30336 
L 283.282038 282.30336 
L 283.282038 272.98944 
L 283.607017 272.98944 
L 283.607017 267.6672 
L 283.931997 267.6672 
L 283.931997 279.64224 
L 284.256976 279.64224 
L 284.256976 272.98944 
L 284.581955 272.98944 
L 284.581955 290.28672 
L 284.906934 290.28672 
L 284.906934 276.98112 
L 285.231913 276.98112 
L 285.231913 274.32 
L 285.556893 274.32 
L 285.556893 280.9728 
L 285.881872 280.9728 
L 285.881872 282.30336 
L 286.206851 282.30336 
L 286.206851 284.96448 
L 286.53183 284.96448 
L 286.53183 268.99776 
L 286.856809 268.99776 
L 286.856809 272.98944 
L 287.181789 272.98944 
L 287.181789 284.96448 
L 287.506768 284.96448 
L 287.506768 280.9728 
L 287.831747 280.9728 
L 287.831747 275.65056 
L 288.156726 275.65056 
L 288.156726 282.30336 
L 288.481705 282.30336 
L 288.481705 286.29504 
L 288.806685 286.29504 
L 288.806685 282.30336 
L 289.131664 282.30336 
L 289.131664 279.64224 
L 289.456643 279.64224 
L 289.456643 275.65056 
L 289.781622 275.65056 
L 289.781622 284.96448 
L 290.106601 284.96448 
L 290.106601 279.64224 
L 290.431581 279.64224 
L 290.431581 295.60896 
L 290.75656 295.60896 
L 290.75656 279.64224 
L 291.081539 279.64224 
L 291.081539 280.9728 
L 291.406518 280.9728 
L 291.406518 279.64224 
L 291.731497 279.64224 
L 291.731497 268.99776 
L 292.056477 268.99776 
L 292.056477 286.29504 
L 292.381456 286.29504 
L 292.381456 279.64224 
L 292.706435 279.64224 
L 292.706435 294.2784 
L 293.031414 294.2784 
L 293.031414 279.64224 
L 293.356393 279.64224 
L 293.356393 286.29504 
L 293.681373 286.29504 
L 293.681373 288.95616 
L 294.331331 288.95616 
L 294.331331 278.31168 
L 294.65631 278.31168 
L 294.65631 282.30336 
L 294.981289 282.30336 
L 294.981289 287.6256 
L 295.306269 287.6256 
L 295.306269 286.29504 
L 295.631248 286.29504 
L 295.631248 290.28672 
L 295.956227 290.28672 
L 295.956227 287.6256 
L 296.281206 287.6256 
L 296.281206 280.9728 
L 296.606185 280.9728 
L 296.606185 282.30336 
L 296.931165 282.30336 
L 296.931165 274.32 
L 297.256144 274.32 
L 297.256144 278.31168 
L 297.581123 278.31168 
L 297.581123 274.32 
L 297.906102 274.32 
L 297.906102 284.96448 
L 298.231081 284.96448 
L 298.231081 287.6256 
L 298.556061 287.6256 
L 298.556061 292.94784 
L 298.88104 292.94784 
L 298.88104 282.30336 
L 299.206019 282.30336 
L 299.206019 283.63392 
L 299.530998 283.63392 
L 299.530998 291.61728 
L 299.855977 291.61728 
L 299.855977 288.95616 
L 300.180957 288.95616 
L 300.180957 278.31168 
L 300.505936 278.31168 
L 300.505936 282.30336 
L 300.830915 282.30336 
L 300.830915 274.32 
L 301.155894 274.32 
L 301.155894 267.6672 
L 301.480873 267.6672 
L 301.480873 280.9728 
L 302.455811 280.9728 
L 302.455811 274.32 
L 302.78079 274.32 
L 302.78079 276.98112 
L 303.105769 276.98112 
L 303.105769 287.6256 
L 303.430749 287.6256 
L 303.430749 276.98112 
L 303.755728 276.98112 
L 303.755728 270.32832 
L 304.080707 270.32832 
L 304.080707 282.30336 
L 304.730665 282.30336 
L 304.730665 275.65056 
L 305.055645 275.65056 
L 305.055645 283.63392 
L 305.380624 283.63392 
L 305.380624 287.6256 
L 305.705603 287.6256 
L 305.705603 288.95616 
L 306.030582 288.95616 
L 306.030582 276.98112 
L 306.355561 276.98112 
L 306.355561 280.9728 
L 306.680541 280.9728 
L 306.680541 284.96448 
L 307.00552 284.96448 
L 307.00552 276.98112 
L 307.330499 276.98112 
L 307.330499 286.29504 
L 307.655478 286.29504 
L 307.655478 280.9728 
L 307.980457 280.9728 
L 307.980457 284.96448 
L 308.305437 284.96448 
L 308.305437 280.9728 
L 308.630416 280.9728 
L 308.630416 287.6256 
L 308.955395 287.6256 
L 308.955395 280.9728 
L 309.280374 280.9728 
L 309.280374 290.28672 
L 309.605353 290.28672 
L 309.605353 286.29504 
L 309.930333 286.29504 
L 309.930333 283.63392 
L 310.255312 283.63392 
L 310.255312 280.9728 
L 310.580291 280.9728 
L 310.580291 286.29504 
L 310.90527 286.29504 
L 310.90527 287.6256 
L 311.230249 287.6256 
L 311.230249 288.95616 
L 311.555229 288.95616 
L 311.555229 283.63392 
L 311.880208 283.63392 
L 311.880208 280.9728 
L 312.205187 280.9728 
L 312.205187 286.29504 
L 312.530166 286.29504 
L 312.530166 283.63392 
L 312.855145 283.63392 
L 312.855145 287.6256 
L 313.505104 287.6256 
L 313.505104 280.9728 
L 313.830083 280.9728 
L 313.830083 286.29504 
L 314.155062 286.29504 
L 314.155062 292.94784 
L 314.480041 292.94784 
L 314.480041 290.28672 
L 314.805021 290.28672 
L 314.805021 272.98944 
L 315.13 272.98944 
L 315.13 284.96448 
L 315.454979 284.96448 
L 315.454979 288.95616 
L 315.779958 288.95616 
L 315.779958 276.98112 
L 316.104937 276.98112 
L 316.104937 275.65056 
L 316.429917 275.65056 
L 316.429917 287.6256 
L 316.754896 287.6256 
L 316.754896 271.65888 
L 317.079875 271.65888 
L 317.079875 279.64224 
L 317.404881 279.64224 
L 317.404881 287.6256 
L 317.729887 287.6256 
L 317.729887 286.29504 
L 318.054867 286.29504 
L 318.054867 284.96448 
L 318.379846 284.96448 
L 318.379846 287.6256 
L 318.704825 287.6256 
L 318.704825 279.64224 
L 319.029804 279.64224 
L 319.029804 276.98112 
L 319.354783 276.98112 
L 319.354783 272.98944 
L 319.679763 272.98944 
L 319.679763 287.6256 
L 320.004742 287.6256 
L 320.004742 278.31168 
L 320.329721 278.31168 
L 320.329721 270.32832 
L 320.6547 270.32832 
L 320.6547 280.9728 
L 321.629638 280.9728 
L 321.629638 268.99776 
L 321.954617 268.99776 
L 321.954617 272.98944 
L 322.279596 272.98944 
L 322.279596 276.98112 
L 322.604575 276.98112 
L 322.604575 271.65888 
L 322.929555 271.65888 
L 322.929555 261.0144 
L 323.254534 261.0144 
L 323.254534 267.6672 
L 323.579513 267.6672 
L 323.579513 268.99776 
L 323.904492 268.99776 
L 323.904492 267.6672 
L 324.229471 267.6672 
L 324.229471 274.32 
L 324.554451 274.32 
L 324.554451 272.98944 
L 324.87943 272.98944 
L 324.87943 278.31168 
L 325.204409 278.31168 
L 325.204409 279.64224 
L 325.529388 279.64224 
L 325.529388 266.33664 
L 325.854367 266.33664 
L 325.854367 278.31168 
L 326.179347 278.31168 
L 326.179347 270.32832 
L 326.504326 270.32832 
L 326.504326 284.96448 
L 326.829305 284.96448 
L 326.829305 278.31168 
L 327.154284 278.31168 
L 327.154284 282.30336 
L 327.479263 282.30336 
L 327.479263 270.32832 
L 327.804243 270.32832 
L 327.804243 278.31168 
L 328.129222 278.31168 
L 328.129222 276.98112 
L 328.454201 276.98112 
L 328.454201 283.63392 
L 328.77918 283.63392 
L 328.77918 280.9728 
L 329.104159 280.9728 
L 329.104159 278.31168 
L 329.429139 278.31168 
L 329.429139 279.64224 
L 329.754118 279.64224 
L 329.754118 265.00608 
L 330.079097 265.00608 
L 330.079097 275.65056 
L 330.404076 275.65056 
L 330.404076 291.61728 
L 330.729055 291.61728 
L 330.729055 282.30336 
L 331.054035 282.30336 
L 331.054035 272.98944 
L 331.379014 272.98944 
L 331.379014 287.6256 
L 331.703993 287.6256 
L 331.703993 278.31168 
L 332.028972 278.31168 
L 332.028972 280.9728 
L 332.353951 280.9728 
L 332.353951 282.30336 
L 333.00391 282.30336 
L 333.00391 270.32832 
L 333.328889 270.32832 
L 333.328889 278.31168 
L 333.653868 278.31168 
L 333.653868 284.96448 
L 333.978847 284.96448 
L 333.978847 291.61728 
L 334.303827 291.61728 
L 334.303827 275.65056 
L 334.628806 275.65056 
L 334.628806 283.63392 
L 334.953785 283.63392 
L 334.953785 286.29504 
L 335.278764 286.29504 
L 335.278764 275.65056 
L 335.603743 275.65056 
L 335.603743 288.95616 
L 335.928723 288.95616 
L 335.928723 287.6256 
L 336.253702 287.6256 
L 336.253702 278.31168 
L 336.578681 278.31168 
L 336.578681 274.32 
L 336.90366 274.32 
L 336.90366 283.63392 
L 337.228639 283.63392 
L 337.228639 284.96448 
L 337.553619 284.96448 
L 337.553619 268.99776 
L 337.878598 268.99776 
L 337.878598 280.9728 
L 338.203577 280.9728 
L 338.203577 284.96448 
L 338.528556 284.96448 
L 338.528556 267.6672 
L 338.853535 267.6672 
L 338.853535 287.6256 
L 339.178515 287.6256 
L 339.178515 286.29504 
L 339.503494 286.29504 
L 339.503494 278.31168 
L 339.828473 278.31168 
L 339.828473 286.29504 
L 340.153452 286.29504 
L 340.153452 291.61728 
L 340.478431 291.61728 
L 340.478431 282.30336 
L 340.803411 282.30336 
L 340.803411 274.32 
L 341.12839 274.32 
L 341.12839 280.9728 
L 341.453369 280.9728 
L 341.453369 275.65056 
L 341.778348 275.65056 
L 341.778348 294.2784 
L 342.103327 294.2784 
L 342.103327 286.29504 
L 342.428307 286.29504 
L 342.428307 282.30336 
L 342.753286 282.30336 
L 342.753286 279.64224 
L 343.403244 279.64224 
L 343.403244 282.30336 
L 343.728223 282.30336 
L 343.728223 288.95616 
L 344.053203 288.95616 
L 344.053203 287.6256 
L 344.378182 287.6256 
L 344.378182 291.61728 
L 344.703161 291.61728 
L 344.703161 287.6256 
L 345.02814 287.6256 
L 345.02814 288.95616 
L 345.353119 288.95616 
L 345.353119 278.31168 
L 345.678099 278.31168 
L 345.678099 283.63392 
L 346.003078 283.63392 
L 346.003078 275.65056 
L 346.328057 275.65056 
L 346.328057 279.64224 
L 346.653036 279.64224 
L 346.653036 283.63392 
L 346.978015 283.63392 
L 346.978015 292.94784 
L 347.302995 292.94784 
L 347.302995 278.31168 
L 347.952953 278.31168 
L 347.952953 284.96448 
L 348.277932 284.96448 
L 348.277932 278.31168 
L 348.602911 278.31168 
L 348.602911 282.30336 
L 348.927891 282.30336 
L 348.927891 279.64224 
L 349.25287 279.64224 
L 349.25287 280.9728 
L 349.577849 280.9728 
L 349.577849 282.30336 
L 349.902828 282.30336 
L 349.902828 280.9728 
L 350.227807 280.9728 
L 350.227807 279.64224 
L 350.552787 279.64224 
L 350.552787 284.96448 
L 350.877766 284.96448 
L 350.877766 276.98112 
L 351.202745 276.98112 
L 351.202745 274.32 
L 351.527724 274.32 
L 351.527724 294.2784 
L 351.852703 294.2784 
L 351.852703 282.30336 
L 352.177683 282.30336 
L 352.177683 280.9728 
L 352.502662 280.9728 
L 352.502662 282.30336 
L 352.827641 282.30336 
L 352.827641 294.2784 
L 353.15262 294.2784 
L 353.15262 278.31168 
L 353.477599 278.31168 
L 353.477599 290.28672 
L 353.802579 290.28672 
L 353.802579 292.94784 
L 354.127558 292.94784 
L 354.127558 278.31168 
L 354.452537 278.31168 
L 354.452537 284.96448 
L 354.777516 284.96448 
L 354.777516 274.32 
L 355.102495 274.32 
L 355.102495 286.29504 
L 355.427475 286.29504 
L 355.427475 279.64224 
L 355.752454 279.64224 
L 355.752454 291.61728 
L 356.077433 291.61728 
L 356.077433 279.64224 
L 356.402412 279.64224 
L 356.402412 282.30336 
L 356.727391 282.30336 
L 356.727391 287.6256 
L 357.052371 287.6256 
L 357.052371 279.64224 
L 357.37735 279.64224 
L 357.37735 284.96448 
L 357.702329 284.96448 
L 357.702329 287.6256 
L 358.352287 287.6256 
L 358.352287 279.64224 
L 358.677267 279.64224 
L 358.677267 270.32832 
L 359.002246 270.32832 
L 359.002246 287.6256 
L 359.327225 287.6256 
L 359.327225 279.64224 
L 359.652204 279.64224 
L 359.652204 288.95616 
L 359.977183 288.95616 
L 359.977183 295.60896 
L 360.302163 295.60896 
L 360.302163 276.98112 
L 360.627142 276.98112 
L 360.627142 278.31168 
L 360.952121 278.31168 
L 360.952121 283.63392 
L 361.2771 283.63392 
L 361.2771 287.6256 
L 361.602079 287.6256 
L 361.602079 276.98112 
L 361.927059 276.98112 
L 361.927059 287.6256 
L 362.252038 287.6256 
L 362.252038 283.63392 
L 362.577017 283.63392 
L 362.577017 280.9728 
L 362.901996 280.9728 
L 362.901996 288.95616 
L 363.226975 288.95616 
L 363.226975 284.96448 
L 363.551955 284.96448 
L 363.551955 266.33664 
L 363.876934 266.33664 
L 363.876934 286.29504 
L 364.526892 286.29504 
L 364.526892 283.63392 
L 364.851871 283.63392 
L 364.851871 282.30336 
L 365.176851 282.30336 
L 365.176851 274.32 
L 365.50183 274.32 
L 365.50183 288.95616 
L 365.826809 288.95616 
L 365.826809 278.31168 
L 366.151788 278.31168 
L 366.151788 283.63392 
L 366.476767 283.63392 
L 366.476767 279.64224 
L 366.801747 279.64224 
L 366.801747 283.63392 
L 367.126726 283.63392 
L 367.126726 278.31168 
L 367.451705 278.31168 
L 367.451705 288.95616 
L 367.776684 288.95616 
L 367.776684 287.6256 
L 368.101663 287.6256 
L 368.101663 284.96448 
L 368.426643 284.96448 
L 368.426643 283.63392 
L 368.751622 283.63392 
L 368.751622 282.30336 
L 369.076601 282.30336 
L 369.076601 267.6672 
L 369.40158 267.6672 
L 369.40158 288.95616 
L 369.726559 288.95616 
L 369.726559 283.63392 
L 370.051539 283.63392 
L 370.051539 276.98112 
L 370.376518 276.98112 
L 370.376518 279.64224 
L 370.701497 279.64224 
L 370.701497 278.31168 
L 371.676489 278.31168 
L 371.676489 288.95616 
L 372.001468 288.95616 
L 372.001468 279.64224 
L 372.326447 279.64224 
L 372.326447 291.61728 
L 372.651426 291.61728 
L 372.651426 284.96448 
L 372.976406 284.96448 
L 372.976406 290.28672 
L 373.301385 290.28672 
L 373.301385 283.63392 
L 373.626364 283.63392 
L 373.626364 279.64224 
L 373.951343 279.64224 
L 373.951343 286.29504 
L 374.276322 286.29504 
L 374.276322 282.30336 
L 374.601302 282.30336 
L 374.601302 272.98944 
L 374.926281 272.98944 
L 374.926281 270.32832 
L 375.25126 270.32832 
L 375.25126 280.9728 
L 375.576239 280.9728 
L 375.576239 283.63392 
L 375.901218 283.63392 
L 375.901218 272.98944 
L 376.226198 272.98944 
L 376.226198 283.63392 
L 376.551177 283.63392 
L 376.551177 286.29504 
L 376.876156 286.29504 
L 376.876156 278.31168 
L 377.201135 278.31168 
L 377.201135 282.30336 
L 377.526114 282.30336 
L 377.526114 280.9728 
L 377.851094 280.9728 
L 377.851094 282.30336 
L 378.176073 282.30336 
L 378.176073 283.63392 
L 378.501052 283.63392 
L 378.501052 286.29504 
L 378.826031 286.29504 
L 378.826031 283.63392 
L 379.15101 283.63392 
L 379.15101 278.31168 
L 379.47599 278.31168 
L 379.47599 287.6256 
L 379.800969 287.6256 
L 379.800969 276.98112 
L 380.125948 276.98112 
L 380.125948 286.29504 
L 380.450927 286.29504 
L 380.450927 276.98112 
L 381.100886 276.98112 
L 381.100886 268.99776 
L 381.425865 268.99776 
L 381.425865 271.65888 
L 382.075823 271.65888 
L 382.075823 272.98944 
L 382.400802 272.98944 
L 382.400802 287.6256 
L 382.725782 287.6256 
L 382.725782 279.64224 
L 383.050761 279.64224 
L 383.050761 283.63392 
L 383.37574 283.63392 
L 383.37574 286.29504 
L 383.700719 286.29504 
L 383.700719 282.30336 
L 384.025698 282.30336 
L 384.025698 275.65056 
L 384.350678 275.65056 
L 384.350678 282.30336 
L 384.675657 282.30336 
L 384.675657 278.31168 
L 385.000636 278.31168 
L 385.000636 274.32 
L 385.325615 274.32 
L 385.325615 282.30336 
L 385.975574 282.30336 
L 385.975574 278.31168 
L 386.300553 278.31168 
L 386.300553 286.29504 
L 386.625532 286.29504 
L 386.625532 283.63392 
L 386.950511 283.63392 
L 386.950511 284.96448 
L 387.27549 284.96448 
L 387.27549 267.6672 
L 387.60047 267.6672 
L 387.60047 274.32 
L 387.925449 274.32 
L 387.925449 282.30336 
L 388.250428 282.30336 
L 388.250428 283.63392 
L 388.575407 283.63392 
L 388.575407 291.61728 
L 388.900386 291.61728 
L 388.900386 274.32 
L 389.225366 274.32 
L 389.225366 280.9728 
L 389.550345 280.9728 
L 389.550345 276.98112 
L 389.875324 276.98112 
L 389.875324 279.64224 
L 390.200303 279.64224 
L 390.200303 287.6256 
L 390.850262 287.6256 
L 390.850262 284.96448 
L 391.175241 284.96448 
L 391.175241 283.63392 
L 391.50022 283.63392 
L 391.50022 290.28672 
L 391.825199 290.28672 
L 391.825199 287.6256 
L 392.150178 287.6256 
L 392.150178 290.28672 
L 392.475158 290.28672 
L 392.475158 286.29504 
L 392.800137 286.29504 
L 392.800137 290.28672 
L 393.125116 290.28672 
L 393.125116 280.9728 
L 393.450095 280.9728 
L 393.450095 288.95616 
L 393.775074 288.95616 
L 393.775074 286.29504 
L 394.100054 286.29504 
L 394.100054 290.28672 
L 394.425033 290.28672 
L 394.425033 284.96448 
L 394.750012 284.96448 
L 394.750012 290.28672 
L 395.074991 290.28672 
L 395.074991 300.9312 
L 395.39997 300.9312 
L 395.39997 287.6256 
L 395.72495 287.6256 
L 395.72495 292.94784 
L 396.374908 292.94784 
L 396.374908 298.27008 
L 396.699887 298.27008 
L 396.699887 291.61728 
L 397.024866 291.61728 
L 397.024866 296.93952 
L 397.349846 296.93952 
L 397.349846 300.9312 
L 397.674825 300.9312 
L 397.674825 302.26176 
L 397.999804 302.26176 
L 397.999804 304.92288 
L 398.324783 304.92288 
L 398.324783 307.584 
L 398.487273 307.584 
L 398.487273 307.584 
" style="fill:none;stroke:#000000;stroke-linecap:square;stroke-width:1.5;"/>
   </g>
   <g id="line2d_18">
    <path clip-path="url(#pb178862788)" d="M 73.832727 281.66635 
L 172.626512 281.559132 
L 177.826179 281.324604 
L 181.400951 280.950399 
L 184.000784 280.47591 
L 186.275639 279.84617 
L 188.225514 279.086295 
L 190.175389 278.059739 
L 191.800285 276.9489 
L 193.425181 275.555273 
L 195.050077 273.826087 
L 196.674973 271.704361 
L 198.299869 269.130207 
L 199.924765 266.042636 
L 201.549661 262.381907 
L 203.174557 258.092398 
L 204.799453 253.125943 
L 206.424349 247.445531 
L 208.049245 241.029212 
L 209.999174 232.355342 
L 211.94905 222.657413 
L 214.223904 210.17593 
L 217.148717 192.685281 
L 225.273197 143.001371 
L 227.223072 132.869893 
L 228.847968 125.532594 
L 230.147885 120.528353 
L 231.447802 116.389245 
L 232.422739 113.897708 
L 233.397677 111.960127 
L 234.372614 110.596435 
L 235.022573 110.013357 
L 235.672531 109.694439 
L 236.32249 109.641158 
L 236.972448 109.853762 
L 237.622406 110.331266 
L 238.272365 111.071459 
L 239.247302 112.666491 
L 240.22224 114.828128 
L 241.197178 117.534202 
L 242.497094 121.941003 
L 243.797011 127.188005 
L 245.421907 134.788252 
L 247.371782 145.169187 
L 249.646637 158.541662 
L 254.196346 187.019381 
L 257.771117 208.676657 
L 260.37095 222.994222 
L 262.645805 234.172099 
L 264.595734 242.635085 
L 266.545609 250.033228 
L 268.170505 255.395994 
L 269.795401 260.059456 
L 271.420297 264.066005 
L 273.045193 267.467521 
L 274.670089 270.321825 
L 276.294985 272.689529 
L 277.919881 274.631395 
L 279.544777 276.206225 
L 281.169673 277.46928 
L 282.794569 278.471191 
L 284.744445 279.392263 
L 286.69432 280.070187 
L 288.969174 280.628615 
L 291.893987 281.086146 
L 295.468758 281.393142 
L 300.668425 281.582314 
L 310.417801 281.659294 
L 374.438812 281.66635 
L 398.487273 281.66635 
L 398.487273 281.66635 
" style="fill:none;stroke:#ff0000;stroke-linecap:square;stroke-width:1.5;"/>
   </g>
   <g id="patch_3">
    <path d="M 57.6 307.584 
L 57.6 41.472 
" style="fill:none;stroke:#000000;stroke-linecap:square;stroke-linejoin:miter;stroke-width:0.8;"/>
   </g>
   <g id="patch_4">
    <path d="M 414.72 307.584 
L 414.72 41.472 
" style="fill:none;stroke:#000000;stroke-linecap:square;stroke-linejoin:miter;stroke-width:0.8;"/>
   </g>
   <g id="patch_5">
    <path d="M 57.6 307.584 
L 414.72 307.584 
" style="fill:none;stroke:#000000;stroke-linecap:square;stroke-linejoin:miter;stroke-width:0.8;"/>
   </g>
   <g id="patch_6">
    <path d="M 57.6 41.472 
L 414.72 41.472 
" style="fill:none;stroke:#000000;stroke-linecap:square;stroke-linejoin:miter;stroke-width:0.8;"/>
   </g>
   <g id="text_17">
    <!-- b = 19.479 ($\pm$ 1.25 %) -->
    <defs>
     <path d="M 48.6875 27.296875 
Q 48.6875 37.203125 44.609375 42.84375 
Q 40.53125 48.484375 33.40625 48.484375 
Q 26.265625 48.484375 22.1875 42.84375 
Q 18.109375 37.203125 18.109375 27.296875 
Q 18.109375 17.390625 22.1875 11.75 
Q 26.265625 6.109375 33.40625 6.109375 
Q 40.53125 6.109375 44.609375 11.75 
Q 48.6875 17.390625 48.6875 27.296875 
z
M 18.109375 46.390625 
Q 20.953125 51.265625 25.265625 53.625 
Q 29.59375 56 35.59375 56 
Q 45.5625 56 51.78125 48.09375 
Q 58.015625 40.1875 58.015625 27.296875 
Q 58.015625 14.40625 51.78125 6.484375 
Q 45.5625 -1.421875 35.59375 -1.421875 
Q 29.59375 -1.421875 25.265625 0.953125 
Q 20.953125 3.328125 18.109375 8.203125 
L 18.109375 0 
L 9.078125 0 
L 9.078125 75.984375 
L 18.109375 75.984375 
z
" id="DejaVuSans-62"/>
     <path id="DejaVuSans-20"/>
     <path d="M 10.59375 45.40625 
L 73.1875 45.40625 
L 73.1875 37.203125 
L 10.59375 37.203125 
z
M 10.59375 25.484375 
L 73.1875 25.484375 
L 73.1875 17.1875 
L 10.59375 17.1875 
z
" id="DejaVuSans-3d"/>
     <path d="M 10.984375 1.515625 
L 10.984375 10.5 
Q 14.703125 8.734375 18.5 7.8125 
Q 22.3125 6.890625 25.984375 6.890625 
Q 35.75 6.890625 40.890625 13.453125 
Q 46.046875 20.015625 46.78125 33.40625 
Q 43.953125 29.203125 39.59375 26.953125 
Q 35.25 24.703125 29.984375 24.703125 
Q 19.046875 24.703125 12.671875 31.3125 
Q 6.296875 37.9375 6.296875 49.421875 
Q 6.296875 60.640625 12.9375 67.421875 
Q 19.578125 74.21875 30.609375 74.21875 
Q 43.265625 74.21875 49.921875 64.515625 
Q 56.59375 54.828125 56.59375 36.375 
Q 56.59375 19.140625 48.40625 8.859375 
Q 40.234375 -1.421875 26.421875 -1.421875 
Q 22.703125 -1.421875 18.890625 -0.6875 
Q 15.09375 0.046875 10.984375 1.515625 
z
M 30.609375 32.421875 
Q 37.25 32.421875 41.125 36.953125 
Q 45.015625 41.5 45.015625 49.421875 
Q 45.015625 57.28125 41.125 61.84375 
Q 37.25 66.40625 30.609375 66.40625 
Q 23.96875 66.40625 20.09375 61.84375 
Q 16.21875 57.28125 16.21875 49.421875 
Q 16.21875 41.5 20.09375 36.953125 
Q 23.96875 32.421875 30.609375 32.421875 
z
" id="DejaVuSans-39"/>
     <path d="M 10.6875 12.40625 
L 21 12.40625 
L 21 0 
L 10.6875 0 
z
" id="DejaVuSans-2e"/>
     <path d="M 31 75.875 
Q 24.46875 64.65625 21.28125 53.65625 
Q 18.109375 42.671875 18.109375 31.390625 
Q 18.109375 20.125 21.3125 9.0625 
Q 24.515625 -2 31 -13.1875 
L 23.1875 -13.1875 
Q 15.875 -1.703125 12.234375 9.375 
Q 8.59375 20.453125 8.59375 31.390625 
Q 8.59375 42.28125 12.203125 53.3125 
Q 15.828125 64.359375 23.1875 75.875 
z
" id="DejaVuSans-28"/>
     <path d="M 46 62.703125 
L 46 43.796875 
L 73.1875 43.796875 
L 73.1875 35.5 
L 46 35.5 
L 46 16.609375 
L 37.796875 16.609375 
L 37.796875 35.5 
L 10.59375 35.5 
L 10.59375 43.796875 
L 37.796875 43.796875 
L 37.796875 62.703125 
z
M 10.59375 8.296875 
L 73.1875 8.296875 
L 73.1875 0 
L 10.59375 0 
z
" id="DejaVuSans-b1"/>
     <path d="M 72.703125 32.078125 
Q 68.453125 32.078125 66.03125 28.46875 
Q 63.625 24.859375 63.625 18.40625 
Q 63.625 12.0625 66.03125 8.421875 
Q 68.453125 4.78125 72.703125 4.78125 
Q 76.859375 4.78125 79.265625 8.421875 
Q 81.6875 12.0625 81.6875 18.40625 
Q 81.6875 24.8125 79.265625 28.4375 
Q 76.859375 32.078125 72.703125 32.078125 
z
M 72.703125 38.28125 
Q 80.421875 38.28125 84.953125 32.90625 
Q 89.5 27.546875 89.5 18.40625 
Q 89.5 9.28125 84.9375 3.921875 
Q 80.375 -1.421875 72.703125 -1.421875 
Q 64.890625 -1.421875 60.34375 3.921875 
Q 55.8125 9.28125 55.8125 18.40625 
Q 55.8125 27.59375 60.375 32.9375 
Q 64.9375 38.28125 72.703125 38.28125 
z
M 22.3125 68.015625 
Q 18.109375 68.015625 15.6875 64.375 
Q 13.28125 60.75 13.28125 54.390625 
Q 13.28125 47.953125 15.671875 44.328125 
Q 18.0625 40.71875 22.3125 40.71875 
Q 26.5625 40.71875 28.96875 44.328125 
Q 31.390625 47.953125 31.390625 54.390625 
Q 31.390625 60.6875 28.953125 64.34375 
Q 26.515625 68.015625 22.3125 68.015625 
z
M 66.40625 74.21875 
L 74.21875 74.21875 
L 28.609375 -1.421875 
L 20.796875 -1.421875 
z
M 22.3125 74.21875 
Q 30.03125 74.21875 34.609375 68.875 
Q 39.203125 63.53125 39.203125 54.390625 
Q 39.203125 45.171875 34.640625 39.84375 
Q 30.078125 34.515625 22.3125 34.515625 
Q 14.546875 34.515625 10.03125 39.859375 
Q 5.515625 45.21875 5.515625 54.390625 
Q 5.515625 63.484375 10.046875 68.84375 
Q 14.59375 74.21875 22.3125 74.21875 
z
" id="DejaVuSans-25"/>
     <path d="M 8.015625 75.875 
L 15.828125 75.875 
Q 23.140625 64.359375 26.78125 53.3125 
Q 30.421875 42.28125 30.421875 31.390625 
Q 30.421875 20.453125 26.78125 9.375 
Q 23.140625 -1.703125 15.828125 -13.1875 
L 8.015625 -13.1875 
Q 14.5 -2 17.703125 9.0625 
Q 20.90625 20.125 20.90625 31.390625 
Q 20.90625 42.671875 17.703125 53.65625 
Q 14.5 64.65625 8.015625 75.875 
z
" id="DejaVuSans-29"/>
    </defs>
    <g transform="translate(75.456 63.895725)scale(0.12 -0.12)">
     <use transform="translate(0 0.015625)" xlink:href="#DejaVuSans-62"/>
     <use transform="translate(63.476562 0.015625)" xlink:href="#DejaVuSans-20"/>
     <use transform="translate(95.263672 0.015625)" xlink:href="#DejaVuSans-3d"/>
     <use transform="translate(179.052734 0.015625)" xlink:href="#DejaVuSans-20"/>
     <use transform="translate(210.839844 0.015625)" xlink:href="#DejaVuSans-31"/>
     <use transform="translate(274.462891 0.015625)" xlink:href="#DejaVuSans-39"/>
     <use transform="translate(338.085938 0.015625)" xlink:href="#DejaVuSans-2e"/>
     <use transform="translate(369.873047 0.015625)" xlink:href="#DejaVuSans-34"/>
     <use transform="translate(433.496094 0.015625)" xlink:href="#DejaVuSans-37"/>
     <use transform="translate(497.119141 0.015625)" xlink:href="#DejaVuSans-39"/>
     <use transform="translate(560.742188 0.015625)" xlink:href="#DejaVuSans-20"/>
     <use transform="translate(592.529297 0.015625)" xlink:href="#DejaVuSans-28"/>
     <use transform="translate(631.542969 0.015625)" xlink:href="#DejaVuSans-b1"/>
     <use transform="translate(715.332031 0.015625)" xlink:href="#DejaVuSans-20"/>
     <use transform="translate(747.119141 0.015625)" xlink:href="#DejaVuSans-31"/>
     <use transform="translate(810.742188 0.015625)" xlink:href="#DejaVuSans-2e"/>
     <use transform="translate(842.451172 0.015625)" xlink:href="#DejaVuSans-32"/>
     <use transform="translate(906.074219 0.015625)" xlink:href="#DejaVuSans-35"/>
     <use transform="translate(969.697266 0.015625)" xlink:href="#DejaVuSans-20"/>
     <use transform="translate(1001.484375 0.015625)" xlink:href="#DejaVuSans-25"/>
     <use transform="translate(1096.503906 0.015625)" xlink:href="#DejaVuSans-29"/>
    </g>
    <!-- c = 98.998 ($\pm$ 0.77 %) -->
    <defs>
     <path d="M 48.78125 52.59375 
L 48.78125 44.1875 
Q 44.96875 46.296875 41.140625 47.34375 
Q 37.3125 48.390625 33.40625 48.390625 
Q 24.65625 48.390625 19.8125 42.84375 
Q 14.984375 37.3125 14.984375 27.296875 
Q 14.984375 17.28125 19.8125 11.734375 
Q 24.65625 6.203125 33.40625 6.203125 
Q 37.3125 6.203125 41.140625 7.25 
Q 44.96875 8.296875 48.78125 10.40625 
L 48.78125 2.09375 
Q 45.015625 0.34375 40.984375 -0.53125 
Q 36.96875 -1.421875 32.421875 -1.421875 
Q 20.0625 -1.421875 12.78125 6.34375 
Q 5.515625 14.109375 5.515625 27.296875 
Q 5.515625 40.671875 12.859375 48.328125 
Q 20.21875 56 33.015625 56 
Q 37.15625 56 41.109375 55.140625 
Q 45.0625 54.296875 48.78125 52.59375 
z
" id="DejaVuSans-63"/>
     <path d="M 31.78125 34.625 
Q 24.75 34.625 20.71875 30.859375 
Q 16.703125 27.09375 16.703125 20.515625 
Q 16.703125 13.921875 20.71875 10.15625 
Q 24.75 6.390625 31.78125 6.390625 
Q 38.8125 6.390625 42.859375 10.171875 
Q 46.921875 13.96875 46.921875 20.515625 
Q 46.921875 27.09375 42.890625 30.859375 
Q 38.875 34.625 31.78125 34.625 
z
M 21.921875 38.8125 
Q 15.578125 40.375 12.03125 44.71875 
Q 8.5 49.078125 8.5 55.328125 
Q 8.5 64.0625 14.71875 69.140625 
Q 20.953125 74.21875 31.78125 74.21875 
Q 42.671875 74.21875 48.875 69.140625 
Q 55.078125 64.0625 55.078125 55.328125 
Q 55.078125 49.078125 51.53125 44.71875 
Q 48 40.375 41.703125 38.8125 
Q 48.828125 37.15625 52.796875 32.3125 
Q 56.78125 27.484375 56.78125 20.515625 
Q 56.78125 9.90625 50.3125 4.234375 
Q 43.84375 -1.421875 31.78125 -1.421875 
Q 19.734375 -1.421875 13.25 4.234375 
Q 6.78125 9.90625 6.78125 20.515625 
Q 6.78125 27.484375 10.78125 32.3125 
Q 14.796875 37.15625 21.921875 38.8125 
z
M 18.3125 54.390625 
Q 18.3125 48.734375 21.84375 45.5625 
Q 25.390625 42.390625 31.78125 42.390625 
Q 38.140625 42.390625 41.71875 45.5625 
Q 45.3125 48.734375 45.3125 54.390625 
Q 45.3125 60.0625 41.71875 63.234375 
Q 38.140625 66.40625 31.78125 66.40625 
Q 25.390625 66.40625 21.84375 63.234375 
Q 18.3125 60.0625 18.3125 54.390625 
z
" id="DejaVuSans-38"/>
    </defs>
    <g transform="translate(75.456 77.3331)scale(0.12 -0.12)">
     <use transform="translate(0 0.125)" xlink:href="#DejaVuSans-63"/>
     <use transform="translate(54.980469 0.125)" xlink:href="#DejaVuSans-20"/>
     <use transform="translate(86.767578 0.125)" xlink:href="#DejaVuSans-3d"/>
     <use transform="translate(170.556641 0.125)" xlink:href="#DejaVuSans-20"/>
     <use transform="translate(202.34375 0.125)" xlink:href="#DejaVuSans-39"/>
     <use transform="translate(265.966797 0.125)" xlink:href="#DejaVuSans-38"/>
     <use transform="translate(329.589844 0.125)" xlink:href="#DejaVuSans-2e"/>
     <use transform="translate(361.376953 0.125)" xlink:href="#DejaVuSans-39"/>
     <use transform="translate(425 0.125)" xlink:href="#DejaVuSans-39"/>
     <use transform="translate(488.623047 0.125)" xlink:href="#DejaVuSans-38"/>
     <use transform="translate(552.246094 0.125)" xlink:href="#DejaVuSans-20"/>
     <use transform="translate(584.033203 0.125)" xlink:href="#DejaVuSans-28"/>
     <use transform="translate(623.046875 0.125)" xlink:href="#DejaVuSans-b1"/>
     <use transform="translate(706.835938 0.125)" xlink:href="#DejaVuSans-20"/>
     <use transform="translate(738.623047 0.125)" xlink:href="#DejaVuSans-30"/>
     <use transform="translate(802.246094 0.125)" xlink:href="#DejaVuSans-2e"/>
     <use transform="translate(833.923828 0.125)" xlink:href="#DejaVuSans-37"/>
     <use transform="translate(897.53125 0.125)" xlink:href="#DejaVuSans-37"/>
     <use transform="translate(961.154297 0.125)" xlink:href="#DejaVuSans-20"/>
     <use transform="translate(992.941406 0.125)" xlink:href="#DejaVuSans-25"/>
     <use transform="translate(1087.960938 0.125)" xlink:href="#DejaVuSans-29"/>
    </g>
    <!-- $\mu$ = 2.999 ($\pm$ 0.08 %) -->
    <defs>
     <path d="M -1.3125 -20.796875 
L 13.375 54.6875 
L 22.40625 54.6875 
L 15.765625 20.65625 
Q 15.578125 19.625 15.421875 18.359375 
Q 15.28125 17.09375 15.28125 15.828125 
Q 15.28125 11.28125 18.140625 8.828125 
Q 21 6.390625 26.3125 6.390625 
Q 33.546875 6.390625 37.984375 10.484375 
Q 42.4375 14.59375 44 22.796875 
L 50.203125 54.6875 
L 59.1875 54.6875 
L 51.03125 12.640625 
Q 50.828125 11.71875 50.75 11.03125 
Q 50.6875 10.359375 50.6875 9.8125 
Q 50.6875 8.296875 51.296875 7.59375 
Q 51.90625 6.890625 53.21875 6.890625 
Q 53.71875 6.890625 54.5625 7.125 
Q 55.421875 7.375 56.984375 8.015625 
L 55.609375 0.78125 
Q 53.46875 -0.296875 51.515625 -0.859375 
Q 49.5625 -1.421875 47.703125 -1.421875 
Q 44.484375 -1.421875 42.65625 0.625 
Q 40.828125 2.6875 40.828125 6.296875 
Q 38.09375 2.390625 34.296875 0.484375 
Q 30.515625 -1.421875 25.390625 -1.421875 
Q 20.84375 -1.421875 17.453125 0.671875 
Q 14.0625 2.78125 12.984375 6.203125 
L 7.71875 -20.796875 
z
" id="DejaVuSans-Oblique-3bc"/>
    </defs>
    <g transform="translate(75.456 90.772725)scale(0.12 -0.12)">
     <use transform="translate(0 0.125)" xlink:href="#DejaVuSans-Oblique-3bc"/>
     <use transform="translate(63.623047 0.125)" xlink:href="#DejaVuSans-20"/>
     <use transform="translate(95.410156 0.125)" xlink:href="#DejaVuSans-3d"/>
     <use transform="translate(179.199219 0.125)" xlink:href="#DejaVuSans-20"/>
     <use transform="translate(210.986328 0.125)" xlink:href="#DejaVuSans-32"/>
     <use transform="translate(274.609375 0.125)" xlink:href="#DejaVuSans-2e"/>
     <use transform="translate(306.396484 0.125)" xlink:href="#DejaVuSans-39"/>
     <use transform="translate(370.019531 0.125)" xlink:href="#DejaVuSans-39"/>
     <use transform="translate(433.642578 0.125)" xlink:href="#DejaVuSans-39"/>
     <use transform="translate(497.265625 0.125)" xlink:href="#DejaVuSans-20"/>
     <use transform="translate(529.052734 0.125)" xlink:href="#DejaVuSans-28"/>
     <use transform="translate(568.066406 0.125)" xlink:href="#DejaVuSans-b1"/>
     <use transform="translate(651.855469 0.125)" xlink:href="#DejaVuSans-20"/>
     <use transform="translate(683.642578 0.125)" xlink:href="#DejaVuSans-30"/>
     <use transform="translate(747.265625 0.125)" xlink:href="#DejaVuSans-2e"/>
     <use transform="translate(779.052734 0.125)" xlink:href="#DejaVuSans-30"/>
     <use transform="translate(842.675781 0.125)" xlink:href="#DejaVuSans-38"/>
     <use transform="translate(906.298828 0.125)" xlink:href="#DejaVuSans-20"/>
     <use transform="translate(938.085938 0.125)" xlink:href="#DejaVuSans-25"/>
     <use transform="translate(1033.105469 0.125)" xlink:href="#DejaVuSans-29"/>
    </g>
    <!-- $\sigma$ = 0.305 ($\pm$ 0.80 %) -->
    <defs>
     <path d="M 34.671875 47.5625 
Q 27.25 47.5625 22.21875 42.1875 
Q 16.890625 36.578125 15.140625 27.296875 
Q 13.1875 17.484375 16.3125 11.8125 
Q 19.390625 6.203125 26.65625 6.203125 
Q 33.84375 6.203125 39.109375 11.859375 
Q 44.4375 17.53125 46.34375 27.296875 
Q 48.046875 36.234375 45.015625 42.1875 
Q 42.1875 47.5625 34.671875 47.5625 
z
M 36.078125 54.734375 
L 65.921875 54.6875 
L 64.15625 45.703125 
L 54.109375 45.703125 
Q 57.90625 38.09375 55.859375 27.296875 
Q 53.21875 13.875 45.0625 6.25 
Q 36.859375 -1.421875 25.140625 -1.421875 
Q 13.375 -1.421875 8.203125 6.25 
Q 3.03125 13.875 5.671875 27.296875 
Q 8.25 40.765625 16.40625 48.390625 
Q 23.1875 54.734375 36.078125 54.734375 
z
" id="DejaVuSans-Oblique-3c3"/>
    </defs>
    <g transform="translate(75.456 104.234475)scale(0.12 -0.12)">
     <use transform="translate(0 0.125)" xlink:href="#DejaVuSans-Oblique-3c3"/>
     <use transform="translate(63.378906 0.125)" xlink:href="#DejaVuSans-20"/>
     <use transform="translate(95.166016 0.125)" xlink:href="#DejaVuSans-3d"/>
     <use transform="translate(178.955078 0.125)" xlink:href="#DejaVuSans-20"/>
     <use transform="translate(210.742188 0.125)" xlink:href="#DejaVuSans-30"/>
     <use transform="translate(274.365234 0.125)" xlink:href="#DejaVuSans-2e"/>
     <use transform="translate(306.152344 0.125)" xlink:href="#DejaVuSans-33"/>
     <use transform="translate(369.775391 0.125)" xlink:href="#DejaVuSans-30"/>
     <use transform="translate(433.398438 0.125)" xlink:href="#DejaVuSans-35"/>
     <use transform="translate(497.021484 0.125)" xlink:href="#DejaVuSans-20"/>
     <use transform="translate(528.808594 0.125)" xlink:href="#DejaVuSans-28"/>
     <use transform="translate(567.822266 0.125)" xlink:href="#DejaVuSans-b1"/>
     <use transform="translate(651.611328 0.125)" xlink:href="#DejaVuSans-20"/>
     <use transform="translate(683.398438 0.125)" xlink:href="#DejaVuSans-30"/>
     <use transform="translate(747.021484 0.125)" xlink:href="#DejaVuSans-2e"/>
     <use transform="translate(778.777344 0.125)" xlink:href="#DejaVuSans-38"/>
     <use transform="translate(842.400391 0.125)" xlink:href="#DejaVuSans-30"/>
     <use transform="translate(906.023438 0.125)" xlink:href="#DejaVuSans-20"/>
     <use transform="translate(937.810547 0.125)" xlink:href="#DejaVuSans-25"/>
     <use transform="translate(1032.830078 0.125)" xlink:href="#DejaVuSans-29"/>
    </g>
   </g>
   <g id="legend_1">
    <g id="patch_7">
     <path d="M 309.770625 86.2995 
L 406.32 86.2995 
Q 408.72 86.2995 408.72 83.8995 
L 408.72 49.872 
Q 408.72 47.472 406.32 47.472 
L 309.770625 47.472 
Q 307.370625 47.472 307.370625 49.872 
L 307.370625 83.8995 
Q 307.370625 86.2995 309.770625 86.2995 
z
" style="fill:#ffffff;opacity:0.8;stroke:#cccccc;stroke-linejoin:miter;"/>
    </g>
    <g id="line2d_19">
     <path d="M 312.170625 57.190125 
L 336.170625 57.190125 
" style="fill:none;stroke:#000000;stroke-linecap:square;stroke-width:1.5;"/>
    </g>
    <g id="line2d_20"/>
    <g id="text_18">
     <!-- Spectrum -->
     <defs>
      <path d="M 53.515625 70.515625 
L 53.515625 60.890625 
Q 47.90625 63.578125 42.921875 64.890625 
Q 37.9375 66.21875 33.296875 66.21875 
Q 25.25 66.21875 20.875 63.09375 
Q 16.5 59.96875 16.5 54.203125 
Q 16.5 49.359375 19.40625 46.890625 
Q 22.3125 44.4375 30.421875 42.921875 
L 36.375 41.703125 
Q 47.40625 39.59375 52.65625 34.296875 
Q 57.90625 29 57.90625 20.125 
Q 57.90625 9.515625 50.796875 4.046875 
Q 43.703125 -1.421875 29.984375 -1.421875 
Q 24.8125 -1.421875 18.96875 -0.25 
Q 13.140625 0.921875 6.890625 3.21875 
L 6.890625 13.375 
Q 12.890625 10.015625 18.65625 8.296875 
Q 24.421875 6.59375 29.984375 6.59375 
Q 38.421875 6.59375 43.015625 9.90625 
Q 47.609375 13.234375 47.609375 19.390625 
Q 47.609375 24.75 44.3125 27.78125 
Q 41.015625 30.8125 33.5 32.328125 
L 27.484375 33.5 
Q 16.453125 35.6875 11.515625 40.375 
Q 6.59375 45.0625 6.59375 53.421875 
Q 6.59375 63.09375 13.40625 68.65625 
Q 20.21875 74.21875 32.171875 74.21875 
Q 37.3125 74.21875 42.625 73.28125 
Q 47.953125 72.359375 53.515625 70.515625 
z
" id="DejaVuSans-53"/>
      <path d="M 18.109375 8.203125 
L 18.109375 -20.796875 
L 9.078125 -20.796875 
L 9.078125 54.6875 
L 18.109375 54.6875 
L 18.109375 46.390625 
Q 20.953125 51.265625 25.265625 53.625 
Q 29.59375 56 35.59375 56 
Q 45.5625 56 51.78125 48.09375 
Q 58.015625 40.1875 58.015625 27.296875 
Q 58.015625 14.40625 51.78125 6.484375 
Q 45.5625 -1.421875 35.59375 -1.421875 
Q 29.59375 -1.421875 25.265625 0.953125 
Q 20.953125 3.328125 18.109375 8.203125 
z
M 48.6875 27.296875 
Q 48.6875 37.203125 44.609375 42.84375 
Q 40.53125 48.484375 33.40625 48.484375 
Q 26.265625 48.484375 22.1875 42.84375 
Q 18.109375 37.203125 18.109375 27.296875 
Q 18.109375 17.390625 22.1875 11.75 
Q 26.265625 6.109375 33.40625 6.109375 
Q 40.53125 6.109375 44.609375 11.75 
Q 48.6875 17.390625 48.6875 27.296875 
z
" id="DejaVuSans-70"/>
      <path d="M 56.203125 29.59375 
L 56.203125 25.203125 
L 14.890625 25.203125 
Q 15.484375 15.921875 20.484375 11.0625 
Q 25.484375 6.203125 34.421875 6.203125 
Q 39.59375 6.203125 44.453125 7.46875 
Q 49.3125 8.734375 54.109375 11.28125 
L 54.109375 2.78125 
Q 49.265625 0.734375 44.1875 -0.34375 
Q 39.109375 -1.421875 33.890625 -1.421875 
Q 20.796875 -1.421875 13.15625 6.1875 
Q 5.515625 13.8125 5.515625 26.8125 
Q 5.515625 40.234375 12.765625 48.109375 
Q 20.015625 56 32.328125 56 
Q 43.359375 56 49.78125 48.890625 
Q 56.203125 41.796875 56.203125 29.59375 
z
M 47.21875 32.234375 
Q 47.125 39.59375 43.09375 43.984375 
Q 39.0625 48.390625 32.421875 48.390625 
Q 24.90625 48.390625 20.390625 44.140625 
Q 15.875 39.890625 15.1875 32.171875 
z
" id="DejaVuSans-65"/>
      <path d="M 18.3125 70.21875 
L 18.3125 54.6875 
L 36.8125 54.6875 
L 36.8125 47.703125 
L 18.3125 47.703125 
L 18.3125 18.015625 
Q 18.3125 11.328125 20.140625 9.421875 
Q 21.96875 7.515625 27.59375 7.515625 
L 36.8125 7.515625 
L 36.8125 0 
L 27.59375 0 
Q 17.1875 0 13.234375 3.875 
Q 9.28125 7.765625 9.28125 18.015625 
L 9.28125 47.703125 
L 2.6875 47.703125 
L 2.6875 54.6875 
L 9.28125 54.6875 
L 9.28125 70.21875 
z
" id="DejaVuSans-74"/>
      <path d="M 41.109375 46.296875 
Q 39.59375 47.171875 37.8125 47.578125 
Q 36.03125 48 33.890625 48 
Q 26.265625 48 22.1875 43.046875 
Q 18.109375 38.09375 18.109375 28.8125 
L 18.109375 0 
L 9.078125 0 
L 9.078125 54.6875 
L 18.109375 54.6875 
L 18.109375 46.1875 
Q 20.953125 51.171875 25.484375 53.578125 
Q 30.03125 56 36.53125 56 
Q 37.453125 56 38.578125 55.875 
Q 39.703125 55.765625 41.0625 55.515625 
z
" id="DejaVuSans-72"/>
      <path d="M 8.5 21.578125 
L 8.5 54.6875 
L 17.484375 54.6875 
L 17.484375 21.921875 
Q 17.484375 14.15625 20.5 10.265625 
Q 23.53125 6.390625 29.59375 6.390625 
Q 36.859375 6.390625 41.078125 11.03125 
Q 45.3125 15.671875 45.3125 23.6875 
L 45.3125 54.6875 
L 54.296875 54.6875 
L 54.296875 0 
L 45.3125 0 
L 45.3125 8.40625 
Q 42.046875 3.421875 37.71875 1 
Q 33.40625 -1.421875 27.6875 -1.421875 
Q 18.265625 -1.421875 13.375 4.4375 
Q 8.5 10.296875 8.5 21.578125 
z
M 31.109375 56 
z
" id="DejaVuSans-75"/>
      <path d="M 52 44.1875 
Q 55.375 50.25 60.0625 53.125 
Q 64.75 56 71.09375 56 
Q 79.640625 56 84.28125 50.015625 
Q 88.921875 44.046875 88.921875 33.015625 
L 88.921875 0 
L 79.890625 0 
L 79.890625 32.71875 
Q 79.890625 40.578125 77.09375 44.375 
Q 74.3125 48.1875 68.609375 48.1875 
Q 61.625 48.1875 57.5625 43.546875 
Q 53.515625 38.921875 53.515625 30.90625 
L 53.515625 0 
L 44.484375 0 
L 44.484375 32.71875 
Q 44.484375 40.625 41.703125 44.40625 
Q 38.921875 48.1875 33.109375 48.1875 
Q 26.21875 48.1875 22.15625 43.53125 
Q 18.109375 38.875 18.109375 30.90625 
L 18.109375 0 
L 9.078125 0 
L 9.078125 54.6875 
L 18.109375 54.6875 
L 18.109375 46.1875 
Q 21.1875 51.21875 25.484375 53.609375 
Q 29.78125 56 35.6875 56 
Q 41.65625 56 45.828125 52.96875 
Q 50 49.953125 52 44.1875 
z
" id="DejaVuSans-6d"/>
     </defs>
     <g transform="translate(345.770625 61.390125)scale(0.12 -0.12)">
      <use xlink:href="#DejaVuSans-53"/>
      <use x="63.476562" xlink:href="#DejaVuSans-70"/>
      <use x="126.953125" xlink:href="#DejaVuSans-65"/>
      <use x="188.476562" xlink:href="#DejaVuSans-63"/>
      <use x="243.457031" xlink:href="#DejaVuSans-74"/>
      <use x="282.666016" xlink:href="#DejaVuSans-72"/>
      <use x="323.779297" xlink:href="#DejaVuSans-75"/>
      <use x="387.158203" xlink:href="#DejaVuSans-6d"/>
     </g>
    </g>
    <g id="line2d_21">
     <path d="M 312.170625 74.803875 
L 336.170625 74.803875 
" style="fill:none;stroke:#ff0000;stroke-linecap:square;stroke-width:1.5;"/>
    </g>
    <g id="line2d_22"/>
    <g id="text_19">
     <!-- Fit -->
     <defs>
      <path d="M 9.8125 72.90625 
L 51.703125 72.90625 
L 51.703125 64.59375 
L 19.671875 64.59375 
L 19.671875 43.109375 
L 48.578125 43.109375 
L 48.578125 34.8125 
L 19.671875 34.8125 
L 19.671875 0 
L 9.8125 0 
z
" id="DejaVuSans-46"/>
      <path d="M 9.421875 54.6875 
L 18.40625 54.6875 
L 18.40625 0 
L 9.421875 0 
z
M 9.421875 75.984375 
L 18.40625 75.984375 
L 18.40625 64.59375 
L 9.421875 64.59375 
z
" id="DejaVuSans-69"/>
     </defs>
     <g transform="translate(345.770625 79.003875)scale(0.12 -0.12)">
      <use xlink:href="#DejaVuSans-46"/>
      <use x="57.410156" xlink:href="#DejaVuSans-69"/>
      <use x="85.193359" xlink:href="#DejaVuSans-74"/>
     </g>
    </g>
   </g>
  </g>
 </g>
 <defs>
  <clipPath id="pb178862788">
   <rect height="266.112" width="357.12" x="57.6" y="41.472"/>
  </clipPath>
 </defs>
</svg>
