<?xml version="1.0" encoding="utf-8" standalone="no"?>
<!DOCTYPE svg PUBLIC "-//W3C//DTD SVG 1.1//EN"
  "http://www.w3.org/Graphics/SVG/1.1/DTD/svg11.dtd">
<!-- Created with matplotlib (http://matplotlib.org/) -->
<svg height="345pt" version="1.1" viewBox="0 0 460 345" width="460pt" xmlns="http://www.w3.org/2000/svg" xmlns:xlink="http://www.w3.org/1999/xlink">
 <defs>
  <style type="text/css">
*{stroke-linecap:butt;stroke-linejoin:round;}
  </style>
 </defs>
 <g id="figure_1">
  <g id="patch_1">
   <path d="M 0 345.6 
L 460.8 345.6 
L 460.8 0 
L 0 0 
z
" style="fill:#ffffff;"/>
  </g>
  <g id="axes_1">
   <g id="patch_2">
    <path d="M 57.6 307.584 
L 414.72 307.584 
L 414.72 41.472 
L 57.6 41.472 
z
" style="fill:#ffffff;"/>
   </g>
   <g id="matplotlib.axis_1">
    <g id="xtick_1">
     <g id="line2d_1">
      <defs>
       <path d="M 0 0 
L 0 3.5 
" id="m6fdfa16437" style="stroke:#000000;stroke-width:0.8;"/>
      </defs>
      <g>
       <use style="stroke:#000000;stroke-width:0.8;" x="73.832727" xlink:href="#m6fdfa16437" y="307.584"/>
      </g>
     </g>
     <g id="text_1">
      <!-- 0 -->
      <defs>
       <path d="M 31.78125 66.40625 
Q 24.171875 66.40625 20.328125 58.90625 
Q 16.5 51.421875 16.5 36.375 
Q 16.5 21.390625 20.328125 13.890625 
Q 24.171875 6.390625 31.78125 6.390625 
Q 39.453125 6.390625 43.28125 13.890625 
Q 47.125 21.390625 47.125 36.375 
Q 47.125 51.421875 43.28125 58.90625 
Q 39.453125 66.40625 31.78125 66.40625 
z
M 31.78125 74.21875 
Q 44.046875 74.21875 50.515625 64.515625 
Q 56.984375 54.828125 56.984375 36.375 
Q 56.984375 17.96875 50.515625 8.265625 
Q 44.046875 -1.421875 31.78125 -1.421875 
Q 19.53125 -1.421875 13.0625 8.265625 
Q 6.59375 17.96875 6.59375 36.375 
Q 6.59375 54.828125 13.0625 64.515625 
Q 19.53125 74.21875 31.78125 74.21875 
z
" id="DejaVuSans-30"/>
      </defs>
      <g transform="translate(70.651477 322.182437)scale(0.1 -0.1)">
       <use xlink:href="#DejaVuSans-30"/>
      </g>
     </g>
    </g>
    <g id="xtick_2">
     <g id="line2d_2">
      <g>
       <use style="stroke:#000000;stroke-width:0.8;" x="127.941818" xlink:href="#m6fdfa16437" y="307.584"/>
      </g>
     </g>
     <g id="text_2">
      <!-- 1 -->
      <defs>
       <path d="M 12.40625 8.296875 
L 28.515625 8.296875 
L 28.515625 63.921875 
L 10.984375 60.40625 
L 10.984375 69.390625 
L 28.421875 72.90625 
L 38.28125 72.90625 
L 38.28125 8.296875 
L 54.390625 8.296875 
L 54.390625 0 
L 12.40625 0 
z
" id="DejaVuSans-31"/>
      </defs>
      <g transform="translate(124.760568 322.182437)scale(0.1 -0.1)">
       <use xlink:href="#DejaVuSans-31"/>
      </g>
     </g>
    </g>
    <g id="xtick_3">
     <g id="line2d_3">
      <g>
       <use style="stroke:#000000;stroke-width:0.8;" x="182.050909" xlink:href="#m6fdfa16437" y="307.584"/>
      </g>
     </g>
     <g id="text_3">
      <!-- 2 -->
      <defs>
       <path d="M 19.1875 8.296875 
L 53.609375 8.296875 
L 53.609375 0 
L 7.328125 0 
L 7.328125 8.296875 
Q 12.9375 14.109375 22.625 23.890625 
Q 32.328125 33.6875 34.8125 36.53125 
Q 39.546875 41.84375 41.421875 45.53125 
Q 43.3125 49.21875 43.3125 52.78125 
Q 43.3125 58.59375 39.234375 62.25 
Q 35.15625 65.921875 28.609375 65.921875 
Q 23.96875 65.921875 18.8125 64.3125 
Q 13.671875 62.703125 7.8125 59.421875 
L 7.8125 69.390625 
Q 13.765625 71.78125 18.9375 73 
Q 24.125 74.21875 28.421875 74.21875 
Q 39.75 74.21875 46.484375 68.546875 
Q 53.21875 62.890625 53.21875 53.421875 
Q 53.21875 48.921875 51.53125 44.890625 
Q 49.859375 40.875 45.40625 35.40625 
Q 44.1875 33.984375 37.640625 27.21875 
Q 31.109375 20.453125 19.1875 8.296875 
z
" id="DejaVuSans-32"/>
      </defs>
      <g transform="translate(178.869659 322.182437)scale(0.1 -0.1)">
       <use xlink:href="#DejaVuSans-32"/>
      </g>
     </g>
    </g>
    <g id="xtick_4">
     <g id="line2d_4">
      <g>
       <use style="stroke:#000000;stroke-width:0.8;" x="236.16" xlink:href="#m6fdfa16437" y="307.584"/>
      </g>
     </g>
     <g id="text_4">
      <!-- 3 -->
      <defs>
       <path d="M 40.578125 39.3125 
Q 47.65625 37.796875 51.625 33 
Q 55.609375 28.21875 55.609375 21.1875 
Q 55.609375 10.40625 48.1875 4.484375 
Q 40.765625 -1.421875 27.09375 -1.421875 
Q 22.515625 -1.421875 17.65625 -0.515625 
Q 12.796875 0.390625 7.625 2.203125 
L 7.625 11.71875 
Q 11.71875 9.328125 16.59375 8.109375 
Q 21.484375 6.890625 26.8125 6.890625 
Q 36.078125 6.890625 40.9375 10.546875 
Q 45.796875 14.203125 45.796875 21.1875 
Q 45.796875 27.640625 41.28125 31.265625 
Q 36.765625 34.90625 28.71875 34.90625 
L 20.21875 34.90625 
L 20.21875 43.015625 
L 29.109375 43.015625 
Q 36.375 43.015625 40.234375 45.921875 
Q 44.09375 48.828125 44.09375 54.296875 
Q 44.09375 59.90625 40.109375 62.90625 
Q 36.140625 65.921875 28.71875 65.921875 
Q 24.65625 65.921875 20.015625 65.03125 
Q 15.375 64.15625 9.8125 62.3125 
L 9.8125 71.09375 
Q 15.4375 72.65625 20.34375 73.4375 
Q 25.25 74.21875 29.59375 74.21875 
Q 40.828125 74.21875 47.359375 69.109375 
Q 53.90625 64.015625 53.90625 55.328125 
Q 53.90625 49.265625 50.4375 45.09375 
Q 46.96875 40.921875 40.578125 39.3125 
z
" id="DejaVuSans-33"/>
      </defs>
      <g transform="translate(232.97875 322.182437)scale(0.1 -0.1)">
       <use xlink:href="#DejaVuSans-33"/>
      </g>
     </g>
    </g>
    <g id="xtick_5">
     <g id="line2d_5">
      <g>
       <use style="stroke:#000000;stroke-width:0.8;" x="290.269091" xlink:href="#m6fdfa16437" y="307.584"/>
      </g>
     </g>
     <g id="text_5">
      <!-- 4 -->
      <defs>
       <path d="M 37.796875 64.3125 
L 12.890625 25.390625 
L 37.796875 25.390625 
z
M 35.203125 72.90625 
L 47.609375 72.90625 
L 47.609375 25.390625 
L 58.015625 25.390625 
L 58.015625 17.1875 
L 47.609375 17.1875 
L 47.609375 0 
L 37.796875 0 
L 37.796875 17.1875 
L 4.890625 17.1875 
L 4.890625 26.703125 
z
" id="DejaVuSans-34"/>
      </defs>
      <g transform="translate(287.087841 322.182437)scale(0.1 -0.1)">
       <use xlink:href="#DejaVuSans-34"/>
      </g>
     </g>
    </g>
    <g id="xtick_6">
     <g id="line2d_6">
      <g>
       <use style="stroke:#000000;stroke-width:0.8;" x="344.378182" xlink:href="#m6fdfa16437" y="307.584"/>
      </g>
     </g>
     <g id="text_6">
      <!-- 5 -->
      <defs>
       <path d="M 10.796875 72.90625 
L 49.515625 72.90625 
L 49.515625 64.59375 
L 19.828125 64.59375 
L 19.828125 46.734375 
Q 21.96875 47.46875 24.109375 47.828125 
Q 26.265625 48.1875 28.421875 48.1875 
Q 40.625 48.1875 47.75 41.5 
Q 54.890625 34.8125 54.890625 23.390625 
Q 54.890625 11.625 47.5625 5.09375 
Q 40.234375 -1.421875 26.90625 -1.421875 
Q 22.3125 -1.421875 17.546875 -0.640625 
Q 12.796875 0.140625 7.71875 1.703125 
L 7.71875 11.625 
Q 12.109375 9.234375 16.796875 8.0625 
Q 21.484375 6.890625 26.703125 6.890625 
Q 35.15625 6.890625 40.078125 11.328125 
Q 45.015625 15.765625 45.015625 23.390625 
Q 45.015625 31 40.078125 35.4375 
Q 35.15625 39.890625 26.703125 39.890625 
Q 22.75 39.890625 18.8125 39.015625 
Q 14.890625 38.140625 10.796875 36.28125 
z
" id="DejaVuSans-35"/>
      </defs>
      <g transform="translate(341.196932 322.182437)scale(0.1 -0.1)">
       <use xlink:href="#DejaVuSans-35"/>
      </g>
     </g>
    </g>
    <g id="xtick_7">
     <g id="line2d_7">
      <g>
       <use style="stroke:#000000;stroke-width:0.8;" x="398.487273" xlink:href="#m6fdfa16437" y="307.584"/>
      </g>
     </g>
     <g id="text_7">
      <!-- 6 -->
      <defs>
       <path d="M 33.015625 40.375 
Q 26.375 40.375 22.484375 35.828125 
Q 18.609375 31.296875 18.609375 23.390625 
Q 18.609375 15.53125 22.484375 10.953125 
Q 26.375 6.390625 33.015625 6.390625 
Q 39.65625 6.390625 43.53125 10.953125 
Q 47.40625 15.53125 47.40625 23.390625 
Q 47.40625 31.296875 43.53125 35.828125 
Q 39.65625 40.375 33.015625 40.375 
z
M 52.59375 71.296875 
L 52.59375 62.3125 
Q 48.875 64.0625 45.09375 64.984375 
Q 41.3125 65.921875 37.59375 65.921875 
Q 27.828125 65.921875 22.671875 59.328125 
Q 17.53125 52.734375 16.796875 39.40625 
Q 19.671875 43.65625 24.015625 45.921875 
Q 28.375 48.1875 33.59375 48.1875 
Q 44.578125 48.1875 50.953125 41.515625 
Q 57.328125 34.859375 57.328125 23.390625 
Q 57.328125 12.15625 50.6875 5.359375 
Q 44.046875 -1.421875 33.015625 -1.421875 
Q 20.359375 -1.421875 13.671875 8.265625 
Q 6.984375 17.96875 6.984375 36.375 
Q 6.984375 53.65625 15.1875 63.9375 
Q 23.390625 74.21875 37.203125 74.21875 
Q 40.921875 74.21875 44.703125 73.484375 
Q 48.484375 72.75 52.59375 71.296875 
z
" id="DejaVuSans-36"/>
      </defs>
      <g transform="translate(395.306023 322.182437)scale(0.1 -0.1)">
       <use xlink:href="#DejaVuSans-36"/>
      </g>
     </g>
    </g>
   </g>
   <g id="matplotlib.axis_2">
    <g id="ytick_1">
     <g id="line2d_8">
      <defs>
       <path d="M 0 0 
L -3.5 0 
" id="m06f1ee36f7" style="stroke:#000000;stroke-width:0.8;"/>
      </defs>
      <g>
       <use style="stroke:#000000;stroke-width:0.8;" x="57.6" xlink:href="#m06f1ee36f7" y="307.584"/>
      </g>
     </g>
     <g id="text_8">
      <!-- 0 -->
      <g transform="translate(44.2375 311.383219)scale(0.1 -0.1)">
       <use xlink:href="#DejaVuSans-30"/>
      </g>
     </g>
    </g>
    <g id="ytick_2">
     <g id="line2d_9">
      <g>
       <use style="stroke:#000000;stroke-width:0.8;" x="57.6" xlink:href="#m06f1ee36f7" y="274.32"/>
      </g>
     </g>
     <g id="text_9">
      <!-- 25 -->
      <g transform="translate(37.875 278.119219)scale(0.1 -0.1)">
       <use xlink:href="#DejaVuSans-32"/>
       <use x="63.623047" xlink:href="#DejaVuSans-35"/>
      </g>
     </g>
    </g>
    <g id="ytick_3">
     <g id="line2d_10">
      <g>
       <use style="stroke:#000000;stroke-width:0.8;" x="57.6" xlink:href="#m06f1ee36f7" y="241.056"/>
      </g>
     </g>
     <g id="text_10">
      <!-- 50 -->
      <g transform="translate(37.875 244.855219)scale(0.1 -0.1)">
       <use xlink:href="#DejaVuSans-35"/>
       <use x="63.623047" xlink:href="#DejaVuSans-30"/>
      </g>
     </g>
    </g>
    <g id="ytick_4">
     <g id="line2d_11">
      <g>
       <use style="stroke:#000000;stroke-width:0.8;" x="57.6" xlink:href="#m06f1ee36f7" y="207.792"/>
      </g>
     </g>
     <g id="text_11">
      <!-- 75 -->
      <defs>
       <path d="M 8.203125 72.90625 
L 55.078125 72.90625 
L 55.078125 68.703125 
L 28.609375 0 
L 18.3125 0 
L 43.21875 64.59375 
L 8.203125 64.59375 
z
" id="DejaVuSans-37"/>
      </defs>
      <g transform="translate(37.875 211.591219)scale(0.1 -0.1)">
       <use xlink:href="#DejaVuSans-37"/>
       <use x="63.623047" xlink:href="#DejaVuSans-35"/>
      </g>
     </g>
    </g>
    <g id="ytick_5">
     <g id="line2d_12">
      <g>
       <use style="stroke:#000000;stroke-width:0.8;" x="57.6" xlink:href="#m06f1ee36f7" y="174.528"/>
      </g>
     </g>
     <g id="text_12">
      <!-- 100 -->
      <g transform="translate(31.5125 178.327219)scale(0.1 -0.1)">
       <use xlink:href="#DejaVuSans-31"/>
       <use x="63.623047" xlink:href="#DejaVuSans-30"/>
       <use x="127.246094" xlink:href="#DejaVuSans-30"/>
      </g>
     </g>
    </g>
    <g id="ytick_6">
     <g id="line2d_13">
      <g>
       <use style="stroke:#000000;stroke-width:0.8;" x="57.6" xlink:href="#m06f1ee36f7" y="141.264"/>
      </g>
     </g>
     <g id="text_13">
      <!-- 125 -->
      <g transform="translate(31.5125 145.063219)scale(0.1 -0.1)">
       <use xlink:href="#DejaVuSans-31"/>
       <use x="63.623047" xlink:href="#DejaVuSans-32"/>
       <use x="127.246094" xlink:href="#DejaVuSans-35"/>
      </g>
     </g>
    </g>
    <g id="ytick_7">
     <g id="line2d_14">
      <g>
       <use style="stroke:#000000;stroke-width:0.8;" x="57.6" xlink:href="#m06f1ee36f7" y="108"/>
      </g>
     </g>
     <g id="text_14">
      <!-- 150 -->
      <g transform="translate(31.5125 111.799219)scale(0.1 -0.1)">
       <use xlink:href="#DejaVuSans-31"/>
       <use x="63.623047" xlink:href="#DejaVuSans-35"/>
       <use x="127.246094" xlink:href="#DejaVuSans-30"/>
      </g>
     </g>
    </g>
    <g id="ytick_8">
     <g id="line2d_15">
      <g>
       <use style="stroke:#000000;stroke-width:0.8;" x="57.6" xlink:href="#m06f1ee36f7" y="74.736"/>
      </g>
     </g>
     <g id="text_15">
      <!-- 175 -->
      <g transform="translate(31.5125 78.535219)scale(0.1 -0.1)">
       <use xlink:href="#DejaVuSans-31"/>
       <use x="63.623047" xlink:href="#DejaVuSans-37"/>
       <use x="127.246094" xlink:href="#DejaVuSans-35"/>
      </g>
     </g>
    </g>
    <g id="ytick_9">
     <g id="line2d_16">
      <g>
       <use style="stroke:#000000;stroke-width:0.8;" x="57.6" xlink:href="#m06f1ee36f7" y="41.472"/>
      </g>
     </g>
     <g id="text_16">
      <!-- 200 -->
      <g transform="translate(31.5125 45.271219)scale(0.1 -0.1)">
       <use xlink:href="#DejaVuSans-32"/>
       <use x="63.623047" xlink:href="#DejaVuSans-30"/>
       <use x="127.246094" xlink:href="#DejaVuSans-30"/>
      </g>
     </g>
    </g>
   </g>
   <g id="line2d_17">
    <path clip-path="url(#p394dad9d69)" d="M 73.832727 307.317888 
L 73.995217 307.317888 
L 73.995217 305.188992 
L 74.320197 305.188992 
L 74.320197 302.92704 
L 74.645176 302.92704 
L 74.645176 300.798144 
L 74.970156 300.798144 
L 74.970156 298.802304 
L 75.295135 298.802304 
L 75.295135 296.93952 
L 75.620115 296.93952 
L 75.620115 295.209792 
L 75.945094 295.209792 
L 75.945094 293.480064 
L 76.270074 293.480064 
L 76.270074 292.016448 
L 76.595053 292.016448 
L 76.595053 290.552832 
L 76.920033 290.552832 
L 76.920033 289.355328 
L 77.245012 289.355328 
L 77.245012 288.157824 
L 77.569992 288.157824 
L 77.569992 286.96032 
L 77.894971 286.96032 
L 77.894971 286.028928 
L 78.219951 286.028928 
L 78.219951 285.097536 
L 78.54493 285.097536 
L 78.54493 284.2992 
L 78.86991 284.2992 
L 78.86991 283.500864 
L 79.194889 283.500864 
L 79.194889 282.835584 
L 79.519869 282.835584 
L 79.519869 282.30336 
L 79.844848 282.30336 
L 79.844848 281.771136 
L 80.169827 281.771136 
L 80.169827 281.371968 
L 80.494806 281.371968 
L 80.494806 280.9728 
L 80.819785 280.9728 
L 80.819785 280.706688 
L 81.144765 280.706688 
L 81.144765 280.440576 
L 81.469744 280.440576 
L 81.469744 280.174464 
L 81.794726 280.174464 
L 81.794726 280.041408 
L 82.119708 280.041408 
L 82.119708 279.908352 
L 83.744604 279.908352 
L 83.744604 280.041408 
L 84.394562 280.041408 
L 84.394562 280.174464 
L 84.719541 280.174464 
L 84.719541 280.30752 
L 85.04452 280.30752 
L 85.04452 280.440576 
L 85.3695 280.440576 
L 85.3695 280.573632 
L 85.694479 280.573632 
L 85.694479 280.706688 
L 86.019458 280.706688 
L 86.019458 280.9728 
L 86.344437 280.9728 
L 86.344437 281.105856 
L 86.669416 281.105856 
L 86.669416 281.238912 
L 86.994396 281.238912 
L 86.994396 281.371968 
L 87.319378 281.371968 
L 87.319378 281.505024 
L 87.969339 281.505024 
L 87.969339 281.63808 
L 88.294318 281.63808 
L 88.294318 281.771136 
L 88.944276 281.771136 
L 88.944276 281.904192 
L 92.194068 281.904192 
L 92.194068 281.771136 
L 93.169011 281.771136 
L 93.169011 281.63808 
L 93.493991 281.63808 
L 93.493991 281.505024 
L 94.143949 281.505024 
L 94.143949 281.371968 
L 94.468928 281.371968 
L 94.468928 281.238912 
L 95.118887 281.238912 
L 95.118887 281.105856 
L 95.443866 281.105856 
L 95.443866 280.9728 
L 96.093824 280.9728 
L 96.093824 280.839744 
L 96.418803 280.839744 
L 96.418803 280.706688 
L 96.743783 280.706688 
L 96.743783 280.573632 
L 97.393741 280.573632 
L 97.393741 280.440576 
L 98.043702 280.440576 
L 98.043702 280.30752 
L 99.018642 280.30752 
L 99.018642 280.174464 
L 100.643538 280.174464 
L 100.643538 280.30752 
L 101.293497 280.30752 
L 101.293497 280.440576 
L 101.943455 280.440576 
L 101.943455 280.573632 
L 102.268434 280.573632 
L 102.268434 280.706688 
L 102.593414 280.706688 
L 102.593414 280.839744 
L 103.243372 280.839744 
L 103.243372 280.9728 
L 103.568354 280.9728 
L 103.568354 281.105856 
L 103.893336 281.105856 
L 103.893336 281.238912 
L 104.218315 281.238912 
L 104.218315 281.371968 
L 104.868273 281.371968 
L 104.868273 281.505024 
L 105.193253 281.505024 
L 105.193253 281.63808 
L 106.16819 281.63808 
L 106.16819 281.771136 
L 107.793086 281.771136 
L 107.793086 281.63808 
L 108.443045 281.63808 
L 108.443045 281.505024 
L 109.093006 281.505024 
L 109.093006 281.371968 
L 109.417988 281.371968 
L 109.417988 281.238912 
L 109.742967 281.238912 
L 109.742967 281.105856 
L 110.067946 281.105856 
L 110.067946 280.9728 
L 110.392925 280.9728 
L 110.392925 280.839744 
L 110.717904 280.839744 
L 110.717904 280.706688 
L 111.042884 280.706688 
L 111.042884 280.573632 
L 111.367863 280.573632 
L 111.367863 280.440576 
L 111.692842 280.440576 
L 111.692842 280.30752 
L 112.017821 280.30752 
L 112.017821 280.174464 
L 112.3428 280.174464 
L 112.3428 280.041408 
L 112.66778 280.041408 
L 112.66778 279.775296 
L 112.992759 279.775296 
L 112.992759 279.64224 
L 113.317738 279.64224 
L 113.317738 279.509184 
L 113.967696 279.509184 
L 113.967696 279.376128 
L 114.292678 279.376128 
L 114.292678 279.243072 
L 114.61766 279.243072 
L 114.61766 279.110016 
L 115.267619 279.110016 
L 115.267619 278.97696 
L 115.592598 278.97696 
L 115.592598 278.843904 
L 116.242556 278.843904 
L 116.242556 278.710848 
L 116.892515 278.710848 
L 116.892515 278.577792 
L 117.867452 278.577792 
L 117.867452 278.444736 
L 118.84239 278.444736 
L 118.84239 278.31168 
L 120.467291 278.31168 
L 120.467291 278.178624 
L 122.417166 278.178624 
L 122.417166 278.045568 
L 123.717083 278.045568 
L 123.717083 277.912512 
L 124.692021 277.912512 
L 124.692021 277.779456 
L 125.666964 277.779456 
L 125.666964 277.6464 
L 126.316922 277.6464 
L 126.316922 277.513344 
L 126.641901 277.513344 
L 126.641901 277.380288 
L 127.29186 277.380288 
L 127.29186 277.247232 
L 127.616839 277.247232 
L 127.616839 277.114176 
L 128.266797 277.114176 
L 128.266797 276.98112 
L 128.591777 276.98112 
L 128.591777 276.848064 
L 129.241735 276.848064 
L 129.241735 276.715008 
L 129.566714 276.715008 
L 129.566714 276.581952 
L 131.841569 276.581952 
L 131.841569 276.715008 
L 132.491527 276.715008 
L 132.491527 276.848064 
L 132.816506 276.848064 
L 132.816506 277.114176 
L 133.141485 277.114176 
L 133.141485 277.247232 
L 133.466465 277.247232 
L 133.466465 277.513344 
L 133.791444 277.513344 
L 133.791444 277.779456 
L 134.116423 277.779456 
L 134.116423 278.045568 
L 134.441402 278.045568 
L 134.441402 278.444736 
L 134.766381 278.444736 
L 134.766381 278.843904 
L 135.091361 278.843904 
L 135.091361 279.110016 
L 135.41634 279.110016 
L 135.41634 279.509184 
L 135.741319 279.509184 
L 135.741319 279.908352 
L 136.066298 279.908352 
L 136.066298 280.30752 
L 136.391277 280.30752 
L 136.391277 280.706688 
L 136.716257 280.706688 
L 136.716257 281.105856 
L 137.041236 281.105856 
L 137.041236 281.505024 
L 137.366215 281.505024 
L 137.366215 281.771136 
L 137.691194 281.771136 
L 137.691194 282.170304 
L 138.016173 282.170304 
L 138.016173 282.436416 
L 138.341153 282.436416 
L 138.341153 282.702528 
L 138.666132 282.702528 
L 138.666132 282.96864 
L 138.991111 282.96864 
L 138.991111 283.101696 
L 139.31609 283.101696 
L 139.31609 283.234752 
L 139.641069 283.234752 
L 139.641069 283.367808 
L 140.940986 283.367808 
L 140.940986 283.234752 
L 141.265965 283.234752 
L 141.265965 282.96864 
L 141.590945 282.96864 
L 141.590945 282.835584 
L 141.915924 282.835584 
L 141.915924 282.569472 
L 142.240903 282.569472 
L 142.240903 282.30336 
L 142.565882 282.30336 
L 142.565882 282.037248 
L 142.890861 282.037248 
L 142.890861 281.63808 
L 143.215841 281.63808 
L 143.215841 281.371968 
L 143.54082 281.371968 
L 143.54082 281.105856 
L 143.865799 281.105856 
L 143.865799 280.706688 
L 144.190778 280.706688 
L 144.190778 280.440576 
L 144.515757 280.440576 
L 144.515757 280.041408 
L 144.840737 280.041408 
L 144.840737 279.775296 
L 145.165716 279.775296 
L 145.165716 279.509184 
L 145.490695 279.509184 
L 145.490695 279.243072 
L 145.815674 279.243072 
L 145.815674 279.110016 
L 146.140653 279.110016 
L 146.140653 278.843904 
L 146.465633 278.843904 
L 146.465633 278.710848 
L 147.115591 278.710848 
L 147.115591 278.577792 
L 147.765549 278.577792 
L 147.765549 278.710848 
L 148.415508 278.710848 
L 148.415508 278.843904 
L 148.740487 278.843904 
L 148.740487 278.97696 
L 149.065466 278.97696 
L 149.065466 279.110016 
L 149.390445 279.110016 
L 149.390445 279.243072 
L 149.715425 279.243072 
L 149.715425 279.509184 
L 150.040404 279.509184 
L 150.040404 279.64224 
L 150.365383 279.64224 
L 150.365383 279.908352 
L 150.690362 279.908352 
L 150.690362 280.041408 
L 151.015341 280.041408 
L 151.015341 280.30752 
L 151.340321 280.30752 
L 151.340321 280.440576 
L 151.6653 280.440576 
L 151.6653 280.706688 
L 151.990279 280.706688 
L 151.990279 280.839744 
L 152.315258 280.839744 
L 152.315258 280.9728 
L 152.640237 280.9728 
L 152.640237 281.105856 
L 152.965217 281.105856 
L 152.965217 281.238912 
L 153.290196 281.238912 
L 153.290196 281.371968 
L 154.590113 281.371968 
L 154.590113 281.238912 
L 155.240125 281.238912 
L 155.240125 281.105856 
L 155.890083 281.105856 
L 155.890083 280.9728 
L 156.215063 280.9728 
L 156.215063 280.839744 
L 156.540042 280.839744 
L 156.540042 280.706688 
L 156.865021 280.706688 
L 156.865021 280.573632 
L 157.514979 280.573632 
L 157.514979 280.440576 
L 157.839959 280.440576 
L 157.839959 280.30752 
L 158.164938 280.30752 
L 158.164938 280.174464 
L 158.814896 280.174464 
L 158.814896 280.041408 
L 160.114813 280.041408 
L 160.114813 280.174464 
L 160.764771 280.174464 
L 160.764771 280.30752 
L 161.089751 280.30752 
L 161.089751 280.440576 
L 161.41473 280.440576 
L 161.41473 280.573632 
L 161.739709 280.573632 
L 161.739709 280.839744 
L 162.064688 280.839744 
L 162.064688 280.9728 
L 162.389667 280.9728 
L 162.389667 281.105856 
L 162.714647 281.105856 
L 162.714647 281.371968 
L 163.039626 281.371968 
L 163.039626 281.505024 
L 163.364605 281.505024 
L 163.364605 281.771136 
L 163.689584 281.771136 
L 163.689584 281.904192 
L 164.014563 281.904192 
L 164.014563 282.170304 
L 164.339543 282.170304 
L 164.339543 282.30336 
L 164.664522 282.30336 
L 164.664522 282.569472 
L 164.989501 282.569472 
L 164.989501 282.702528 
L 165.31448 282.702528 
L 165.31448 282.835584 
L 165.639459 282.835584 
L 165.639459 282.96864 
L 165.964439 282.96864 
L 165.964439 283.101696 
L 166.614397 283.101696 
L 166.614397 283.234752 
L 167.914314 283.234752 
L 167.914314 283.101696 
L 168.564272 283.101696 
L 168.564272 282.96864 
L 169.214231 282.96864 
L 169.214231 282.835584 
L 169.53921 282.835584 
L 169.53921 282.702528 
L 169.864189 282.702528 
L 169.864189 282.569472 
L 170.189168 282.569472 
L 170.189168 282.30336 
L 170.514147 282.30336 
L 170.514147 282.170304 
L 170.839127 282.170304 
L 170.839127 282.037248 
L 171.164106 282.037248 
L 171.164106 281.904192 
L 171.489085 281.904192 
L 171.489085 281.771136 
L 171.814064 281.771136 
L 171.814064 281.63808 
L 172.139043 281.63808 
L 172.139043 281.371968 
L 172.464023 281.371968 
L 172.464023 281.238912 
L 172.789002 281.238912 
L 172.789002 281.105856 
L 173.113981 281.105856 
L 173.113981 280.9728 
L 173.763939 280.9728 
L 173.763939 280.839744 
L 174.088919 280.839744 
L 174.088919 280.706688 
L 174.738877 280.706688 
L 174.738877 280.573632 
L 175.388835 280.573632 
L 175.388835 280.440576 
L 176.363773 280.440576 
L 176.363773 280.30752 
L 177.66369 280.30752 
L 177.66369 280.174464 
L 178.963607 280.174464 
L 178.963607 280.041408 
L 180.263523 280.041408 
L 180.263523 279.908352 
L 180.913482 279.908352 
L 180.913482 279.775296 
L 181.888419 279.775296 
L 181.888419 279.64224 
L 182.538378 279.64224 
L 182.538378 279.509184 
L 183.513315 279.509184 
L 183.513315 279.376128 
L 186.763107 279.376128 
L 186.763107 279.509184 
L 187.413066 279.509184 
L 187.413066 279.64224 
L 187.738045 279.64224 
L 187.738045 279.775296 
L 188.388003 279.775296 
L 188.388003 279.908352 
L 188.712983 279.908352 
L 188.712983 280.041408 
L 189.362941 280.041408 
L 189.362941 280.174464 
L 190.012899 280.174464 
L 190.012899 280.30752 
L 191.637795 280.30752 
L 191.637795 280.174464 
L 192.287754 280.174464 
L 192.287754 280.041408 
L 192.612733 280.041408 
L 192.612733 279.908352 
L 192.937712 279.908352 
L 192.937712 279.775296 
L 193.262691 279.775296 
L 193.262691 279.509184 
L 193.587671 279.509184 
L 193.587671 279.243072 
L 193.91265 279.243072 
L 193.91265 278.97696 
L 194.237629 278.97696 
L 194.237629 278.710848 
L 194.562608 278.710848 
L 194.562608 278.31168 
L 194.887587 278.31168 
L 194.887587 277.912512 
L 195.212567 277.912512 
L 195.212567 277.513344 
L 195.537546 277.513344 
L 195.537546 276.98112 
L 195.862525 276.98112 
L 195.862525 276.448896 
L 196.187504 276.448896 
L 196.187504 275.916672 
L 196.512483 275.916672 
L 196.512483 275.384448 
L 196.837463 275.384448 
L 196.837463 274.719168 
L 197.162442 274.719168 
L 197.162442 274.186944 
L 197.487421 274.186944 
L 197.487421 273.388608 
L 197.8124 273.388608 
L 197.8124 272.723328 
L 198.137379 272.723328 
L 198.137379 271.924992 
L 198.462359 271.924992 
L 198.462359 271.259712 
L 198.787338 271.259712 
L 198.787338 270.32832 
L 199.112317 270.32832 
L 199.112317 269.529984 
L 199.437296 269.529984 
L 199.437296 268.598592 
L 199.762275 268.598592 
L 199.762275 267.800256 
L 200.087255 267.800256 
L 200.087255 266.735808 
L 200.412234 266.735808 
L 200.412234 265.804416 
L 200.737213 265.804416 
L 200.737213 264.873024 
L 201.062192 264.873024 
L 201.062192 263.808576 
L 201.387171 263.808576 
L 201.387171 262.744128 
L 201.712151 262.744128 
L 201.712151 261.67968 
L 202.03713 261.67968 
L 202.03713 260.615232 
L 202.362109 260.615232 
L 202.362109 259.417728 
L 202.687088 259.417728 
L 202.687088 258.35328 
L 203.012067 258.35328 
L 203.012067 257.155776 
L 203.337047 257.155776 
L 203.337047 256.091328 
L 203.662026 256.091328 
L 203.662026 254.893824 
L 203.987005 254.893824 
L 203.987005 253.69632 
L 204.311984 253.69632 
L 204.311984 252.498816 
L 204.636963 252.498816 
L 204.636963 251.301312 
L 204.961943 251.301312 
L 204.961943 250.236864 
L 205.286922 250.236864 
L 205.286922 249.03936 
L 205.611901 249.03936 
L 205.611901 247.841856 
L 205.93688 247.841856 
L 205.93688 246.644352 
L 206.261859 246.644352 
L 206.261859 245.446848 
L 206.586839 245.446848 
L 206.586839 244.3824 
L 206.911818 244.3824 
L 206.911818 243.184896 
L 207.236797 243.184896 
L 207.236797 241.987392 
L 207.561776 241.987392 
L 207.561776 240.922944 
L 207.886755 240.922944 
L 207.886755 239.72544 
L 208.211735 239.72544 
L 208.211735 238.527936 
L 208.536714 238.527936 
L 208.536714 237.330432 
L 208.861693 237.330432 
L 208.861693 236.132928 
L 209.186699 236.132928 
L 209.186699 234.935424 
L 209.511706 234.935424 
L 209.511706 233.73792 
L 209.836685 233.73792 
L 209.836685 232.40736 
L 210.161664 232.40736 
L 210.161664 231.0768 
L 210.486643 231.0768 
L 210.486643 229.74624 
L 210.811622 229.74624 
L 210.811622 228.41568 
L 211.136602 228.41568 
L 211.136602 226.952064 
L 211.461581 226.952064 
L 211.461581 225.488448 
L 211.78656 225.488448 
L 211.78656 224.024832 
L 212.111539 224.024832 
L 212.111539 222.42816 
L 212.436518 222.42816 
L 212.436518 220.698432 
L 212.761498 220.698432 
L 212.761498 219.10176 
L 213.086477 219.10176 
L 213.086477 217.238976 
L 213.411456 217.238976 
L 213.411456 215.509248 
L 213.736435 215.509248 
L 213.736435 213.646464 
L 214.061414 213.646464 
L 214.061414 211.650624 
L 214.386394 211.650624 
L 214.386394 209.654784 
L 214.711373 209.654784 
L 214.711373 207.658944 
L 215.036352 207.658944 
L 215.036352 205.663104 
L 215.361331 205.663104 
L 215.361331 203.534208 
L 215.68631 203.534208 
L 215.68631 201.405312 
L 216.01129 201.405312 
L 216.01129 199.276416 
L 216.336269 199.276416 
L 216.336269 197.14752 
L 216.661248 197.14752 
L 216.661248 194.885568 
L 216.986227 194.885568 
L 216.986227 192.756672 
L 217.311206 192.756672 
L 217.311206 190.49472 
L 217.636186 190.49472 
L 217.636186 188.365824 
L 217.961165 188.365824 
L 217.961165 186.103872 
L 218.286144 186.103872 
L 218.286144 183.974976 
L 218.611123 183.974976 
L 218.611123 181.84608 
L 218.936102 181.84608 
L 218.936102 179.584128 
L 219.261082 179.584128 
L 219.261082 177.455232 
L 219.586061 177.455232 
L 219.586061 175.459392 
L 219.91104 175.459392 
L 219.91104 173.330496 
L 220.236019 173.330496 
L 220.236019 171.2016 
L 220.560998 171.2016 
L 220.560998 169.20576 
L 220.885978 169.20576 
L 220.885978 167.20992 
L 221.210957 167.20992 
L 221.210957 165.21408 
L 221.535936 165.21408 
L 221.535936 163.351296 
L 221.860915 163.351296 
L 221.860915 161.488512 
L 222.185894 161.488512 
L 222.185894 159.492672 
L 222.510874 159.492672 
L 222.510874 157.762944 
L 222.835853 157.762944 
L 222.835853 155.90016 
L 223.160832 155.90016 
L 223.160832 154.037376 
L 223.485811 154.037376 
L 223.485811 152.307648 
L 223.81079 152.307648 
L 223.81079 150.57792 
L 224.13577 150.57792 
L 224.13577 148.848192 
L 224.460749 148.848192 
L 224.460749 147.25152 
L 224.785728 147.25152 
L 224.785728 145.521792 
L 225.110707 145.521792 
L 225.110707 143.92512 
L 225.435686 143.92512 
L 225.435686 142.328448 
L 225.760666 142.328448 
L 225.760666 140.864832 
L 226.085645 140.864832 
L 226.085645 139.26816 
L 226.410624 139.26816 
L 226.410624 137.804544 
L 226.735603 137.804544 
L 226.735603 136.340928 
L 227.060582 136.340928 
L 227.060582 135.010368 
L 227.385562 135.010368 
L 227.385562 133.546752 
L 227.710541 133.546752 
L 227.710541 132.216192 
L 228.03552 132.216192 
L 228.03552 130.885632 
L 228.360499 130.885632 
L 228.360499 129.555072 
L 228.685478 129.555072 
L 228.685478 128.357568 
L 229.010458 128.357568 
L 229.010458 127.027008 
L 229.335437 127.027008 
L 229.335437 125.829504 
L 229.660416 125.829504 
L 229.660416 124.765056 
L 229.985395 124.765056 
L 229.985395 123.567552 
L 230.310374 123.567552 
L 230.310374 122.503104 
L 230.635354 122.503104 
L 230.635354 121.438656 
L 230.960333 121.438656 
L 230.960333 120.374208 
L 231.285312 120.374208 
L 231.285312 119.442816 
L 231.610291 119.442816 
L 231.610291 118.511424 
L 231.93527 118.511424 
L 231.93527 117.580032 
L 232.26025 117.580032 
L 232.26025 116.64864 
L 232.585229 116.64864 
L 232.585229 115.850304 
L 232.910208 115.850304 
L 232.910208 115.051968 
L 233.235187 115.051968 
L 233.235187 114.253632 
L 233.560166 114.253632 
L 233.560166 113.455296 
L 233.885146 113.455296 
L 233.885146 112.790016 
L 234.210125 112.790016 
L 234.210125 112.124736 
L 234.535104 112.124736 
L 234.535104 111.592512 
L 234.860083 111.592512 
L 234.860083 111.060288 
L 235.185062 111.060288 
L 235.185062 110.528064 
L 235.510042 110.528064 
L 235.510042 110.128896 
L 235.835021 110.128896 
L 235.835021 109.729728 
L 236.16 109.729728 
L 236.16 109.33056 
L 236.484979 109.33056 
L 236.484979 109.064448 
L 236.809958 109.064448 
L 236.809958 108.931392 
L 237.134938 108.931392 
L 237.134938 108.798336 
L 238.434854 108.798336 
L 238.434854 108.931392 
L 238.759834 108.931392 
L 238.759834 109.197504 
L 239.084813 109.197504 
L 239.084813 109.596672 
L 239.409792 109.596672 
L 239.409792 109.99584 
L 239.734771 109.99584 
L 239.734771 110.395008 
L 240.05975 110.395008 
L 240.05975 111.060288 
L 240.38473 111.060288 
L 240.38473 111.725568 
L 240.709709 111.725568 
L 240.709709 112.390848 
L 241.034688 112.390848 
L 241.034688 113.189184 
L 241.359667 113.189184 
L 241.359667 114.120576 
L 241.684646 114.120576 
L 241.684646 115.051968 
L 242.009626 115.051968 
L 242.009626 116.116416 
L 242.334605 116.116416 
L 242.334605 117.180864 
L 242.659584 117.180864 
L 242.659584 118.378368 
L 242.984563 118.378368 
L 242.984563 119.708928 
L 243.309542 119.708928 
L 243.309542 121.039488 
L 243.634522 121.039488 
L 243.634522 122.370048 
L 243.959501 122.370048 
L 243.959501 123.833664 
L 244.28448 123.833664 
L 244.28448 125.430336 
L 244.609459 125.430336 
L 244.609459 127.027008 
L 244.934438 127.027008 
L 244.934438 128.62368 
L 245.259418 128.62368 
L 245.259418 130.353408 
L 245.584397 130.353408 
L 245.584397 132.083136 
L 245.909376 132.083136 
L 245.909376 133.94592 
L 246.234355 133.94592 
L 246.234355 135.94176 
L 246.559334 135.94176 
L 246.559334 137.804544 
L 246.884314 137.804544 
L 246.884314 139.800384 
L 247.209293 139.800384 
L 247.209293 141.92928 
L 247.534272 141.92928 
L 247.534272 143.92512 
L 247.859251 143.92512 
L 247.859251 146.054016 
L 248.18423 146.054016 
L 248.18423 148.315968 
L 248.50921 148.315968 
L 248.50921 150.444864 
L 248.834189 150.444864 
L 248.834189 152.706816 
L 249.159168 152.706816 
L 249.159168 154.835712 
L 249.484147 154.835712 
L 249.484147 157.097664 
L 249.809126 157.097664 
L 249.809126 159.359616 
L 250.134106 159.359616 
L 250.134106 161.621568 
L 250.459085 161.621568 
L 250.459085 163.88352 
L 250.784064 163.88352 
L 250.784064 166.145472 
L 251.109043 166.145472 
L 251.109043 168.407424 
L 251.434022 168.407424 
L 251.434022 170.669376 
L 251.759002 170.669376 
L 251.759002 172.798272 
L 252.083981 172.798272 
L 252.083981 175.060224 
L 252.40896 175.060224 
L 252.40896 177.18912 
L 252.733939 177.18912 
L 252.733939 179.318016 
L 253.058918 179.318016 
L 253.058918 181.446912 
L 253.383898 181.446912 
L 253.383898 183.575808 
L 253.708877 183.575808 
L 253.708877 185.571648 
L 254.033856 185.571648 
L 254.033856 187.700544 
L 254.358835 187.700544 
L 254.358835 189.696384 
L 254.683814 189.696384 
L 254.683814 191.692224 
L 255.008794 191.692224 
L 255.008794 193.555008 
L 255.333773 193.555008 
L 255.333773 195.417792 
L 255.658752 195.417792 
L 255.658752 197.413632 
L 255.983731 197.413632 
L 255.983731 199.276416 
L 256.30871 199.276416 
L 256.30871 201.006144 
L 256.63369 201.006144 
L 256.63369 202.868928 
L 256.958669 202.868928 
L 256.958669 204.598656 
L 257.283648 204.598656 
L 257.283648 206.328384 
L 257.608627 206.328384 
L 257.608627 208.058112 
L 257.933606 208.058112 
L 257.933606 209.78784 
L 258.258586 209.78784 
L 258.258586 211.384512 
L 258.583565 211.384512 
L 258.583565 213.11424 
L 258.908544 213.11424 
L 258.908544 214.710912 
L 259.233523 214.710912 
L 259.233523 216.307584 
L 259.558502 216.307584 
L 259.558502 217.7712 
L 259.883482 217.7712 
L 259.883482 219.367872 
L 260.208461 219.367872 
L 260.208461 220.831488 
L 260.53344 220.831488 
L 260.53344 222.295104 
L 260.858419 222.295104 
L 260.858419 223.891776 
L 261.183398 223.891776 
L 261.183398 225.355392 
L 261.508378 225.355392 
L 261.508378 226.685952 
L 261.833357 226.685952 
L 261.833357 228.149568 
L 262.158336 228.149568 
L 262.158336 229.613184 
L 262.483315 229.613184 
L 262.483315 230.943744 
L 262.808294 230.943744 
L 262.808294 232.40736 
L 263.133301 232.40736 
L 263.133301 233.73792 
L 263.458307 233.73792 
L 263.458307 235.201536 
L 263.783286 235.201536 
L 263.783286 236.532096 
L 264.108265 236.532096 
L 264.108265 237.995712 
L 264.433245 237.995712 
L 264.433245 239.326272 
L 264.758224 239.326272 
L 264.758224 240.656832 
L 265.083203 240.656832 
L 265.083203 242.120448 
L 265.408182 242.120448 
L 265.408182 243.451008 
L 265.733161 243.451008 
L 265.733161 244.914624 
L 266.058141 244.914624 
L 266.058141 246.245184 
L 266.38312 246.245184 
L 266.38312 247.7088 
L 266.708099 247.7088 
L 266.708099 249.03936 
L 267.033078 249.03936 
L 267.033078 250.502976 
L 267.358057 250.502976 
L 267.358057 251.833536 
L 267.683037 251.833536 
L 267.683037 253.297152 
L 268.008016 253.297152 
L 268.008016 254.627712 
L 268.332995 254.627712 
L 268.332995 255.958272 
L 268.657974 255.958272 
L 268.657974 257.288832 
L 268.982953 257.288832 
L 268.982953 258.619392 
L 269.307933 258.619392 
L 269.307933 259.816896 
L 269.632912 259.816896 
L 269.632912 261.147456 
L 269.957891 261.147456 
L 269.957891 262.34496 
L 270.28287 262.34496 
L 270.28287 263.409408 
L 270.607849 263.409408 
L 270.607849 264.473856 
L 270.932829 264.473856 
L 270.932829 265.538304 
L 271.257808 265.538304 
L 271.257808 266.602752 
L 271.582787 266.602752 
L 271.582787 267.534144 
L 271.907766 267.534144 
L 271.907766 268.33248 
L 272.232745 268.33248 
L 272.232745 269.130816 
L 272.557725 269.130816 
L 272.557725 269.796096 
L 272.882704 269.796096 
L 272.882704 270.461376 
L 273.207683 270.461376 
L 273.207683 271.126656 
L 273.532662 271.126656 
L 273.532662 271.525824 
L 273.857641 271.525824 
L 273.857641 272.058048 
L 274.182621 272.058048 
L 274.182621 272.457216 
L 274.5076 272.457216 
L 274.5076 272.723328 
L 274.832579 272.723328 
L 274.832579 273.122496 
L 275.157558 273.122496 
L 275.157558 273.255552 
L 275.482537 273.255552 
L 275.482537 273.521664 
L 275.807517 273.521664 
L 275.807517 273.65472 
L 276.132496 273.65472 
L 276.132496 273.920832 
L 276.457475 273.920832 
L 276.457475 274.053888 
L 276.782454 274.053888 
L 276.782454 274.186944 
L 277.432413 274.186944 
L 277.432413 274.32 
L 277.757392 274.32 
L 277.757392 274.453056 
L 278.40735 274.453056 
L 278.40735 274.586112 
L 278.732329 274.586112 
L 278.732329 274.719168 
L 279.382288 274.719168 
L 279.382288 274.852224 
L 279.707267 274.852224 
L 279.707267 274.98528 
L 280.032246 274.98528 
L 280.032246 275.251392 
L 280.357225 275.251392 
L 280.357225 275.384448 
L 280.682205 275.384448 
L 280.682205 275.517504 
L 281.007184 275.517504 
L 281.007184 275.783616 
L 281.332163 275.783616 
L 281.332163 275.916672 
L 281.657142 275.916672 
L 281.657142 276.182784 
L 281.982121 276.182784 
L 281.982121 276.31584 
L 282.307101 276.31584 
L 282.307101 276.581952 
L 282.63208 276.581952 
L 282.63208 276.848064 
L 282.957059 276.848064 
L 282.957059 277.114176 
L 283.282038 277.114176 
L 283.282038 277.247232 
L 283.607017 277.247232 
L 283.607017 277.513344 
L 283.931997 277.513344 
L 283.931997 277.779456 
L 284.256976 277.779456 
L 284.256976 277.912512 
L 284.581955 277.912512 
L 284.581955 278.178624 
L 284.906934 278.178624 
L 284.906934 278.31168 
L 285.231913 278.31168 
L 285.231913 278.577792 
L 285.556893 278.577792 
L 285.556893 278.710848 
L 285.881872 278.710848 
L 285.881872 278.97696 
L 286.206851 278.97696 
L 286.206851 279.110016 
L 286.53183 279.110016 
L 286.53183 279.243072 
L 286.856809 279.243072 
L 286.856809 279.376128 
L 287.181789 279.376128 
L 287.181789 279.509184 
L 287.506768 279.509184 
L 287.506768 279.64224 
L 287.831747 279.64224 
L 287.831747 279.775296 
L 288.156726 279.775296 
L 288.156726 279.908352 
L 288.481705 279.908352 
L 288.481705 280.041408 
L 289.131664 280.041408 
L 289.131664 280.174464 
L 289.781622 280.174464 
L 289.781622 280.30752 
L 293.031414 280.30752 
L 293.031414 280.174464 
L 294.006352 280.174464 
L 294.006352 280.041408 
L 294.65631 280.041408 
L 294.65631 279.908352 
L 295.306269 279.908352 
L 295.306269 279.775296 
L 295.956227 279.775296 
L 295.956227 279.64224 
L 296.931165 279.64224 
L 296.931165 279.509184 
L 297.581123 279.509184 
L 297.581123 279.376128 
L 300.505936 279.376128 
L 300.505936 279.509184 
L 301.155894 279.509184 
L 301.155894 279.64224 
L 301.805853 279.64224 
L 301.805853 279.775296 
L 302.455811 279.775296 
L 302.455811 279.908352 
L 302.78079 279.908352 
L 302.78079 280.041408 
L 303.105769 280.041408 
L 303.105769 280.174464 
L 303.430749 280.174464 
L 303.430749 280.30752 
L 304.080707 280.30752 
L 304.080707 280.440576 
L 304.405686 280.440576 
L 304.405686 280.573632 
L 304.730665 280.573632 
L 304.730665 280.706688 
L 305.055645 280.706688 
L 305.055645 280.839744 
L 305.380624 280.839744 
L 305.380624 280.9728 
L 305.705603 280.9728 
L 305.705603 281.238912 
L 306.030582 281.238912 
L 306.030582 281.371968 
L 306.355561 281.371968 
L 306.355561 281.505024 
L 306.680541 281.505024 
L 306.680541 281.63808 
L 307.00552 281.63808 
L 307.00552 281.771136 
L 307.330499 281.771136 
L 307.330499 281.904192 
L 307.655478 281.904192 
L 307.655478 282.037248 
L 307.980457 282.037248 
L 307.980457 282.170304 
L 308.305437 282.170304 
L 308.305437 282.30336 
L 308.630416 282.30336 
L 308.630416 282.436416 
L 308.955395 282.436416 
L 308.955395 282.569472 
L 309.280374 282.569472 
L 309.280374 282.702528 
L 309.605353 282.702528 
L 309.605353 282.835584 
L 309.930333 282.835584 
L 309.930333 282.96864 
L 310.580291 282.96864 
L 310.580291 283.101696 
L 310.90527 283.101696 
L 310.90527 283.234752 
L 312.205187 283.234752 
L 312.205187 283.367808 
L 312.530166 283.367808 
L 312.530166 283.234752 
L 313.830083 283.234752 
L 313.830083 283.101696 
L 314.155062 283.101696 
L 314.155062 282.96864 
L 314.805021 282.96864 
L 314.805021 282.835584 
L 315.13 282.835584 
L 315.13 282.702528 
L 315.454979 282.702528 
L 315.454979 282.569472 
L 315.779958 282.569472 
L 315.779958 282.436416 
L 316.104937 282.436416 
L 316.104937 282.30336 
L 316.429917 282.30336 
L 316.429917 282.170304 
L 316.754896 282.170304 
L 316.754896 281.904192 
L 317.079875 281.904192 
L 317.079875 281.771136 
L 317.404881 281.771136 
L 317.404881 281.63808 
L 317.729887 281.63808 
L 317.729887 281.505024 
L 318.054867 281.505024 
L 318.054867 281.238912 
L 318.379846 281.238912 
L 318.379846 281.105856 
L 318.704825 281.105856 
L 318.704825 280.9728 
L 319.029804 280.9728 
L 319.029804 280.706688 
L 319.354783 280.706688 
L 319.354783 280.573632 
L 319.679763 280.573632 
L 319.679763 280.440576 
L 320.004742 280.440576 
L 320.004742 280.174464 
L 320.329721 280.174464 
L 320.329721 280.041408 
L 320.6547 280.041408 
L 320.6547 279.908352 
L 320.979679 279.908352 
L 320.979679 279.775296 
L 321.304659 279.775296 
L 321.304659 279.509184 
L 321.629638 279.509184 
L 321.629638 279.376128 
L 321.954617 279.376128 
L 321.954617 279.243072 
L 322.279596 279.243072 
L 322.279596 279.110016 
L 322.604575 279.110016 
L 322.604575 278.97696 
L 323.254534 278.97696 
L 323.254534 278.843904 
L 323.579513 278.843904 
L 323.579513 278.710848 
L 324.229471 278.710848 
L 324.229471 278.577792 
L 326.179347 278.577792 
L 326.179347 278.710848 
L 326.829305 278.710848 
L 326.829305 278.843904 
L 327.154284 278.843904 
L 327.154284 278.97696 
L 327.479263 278.97696 
L 327.479263 279.110016 
L 327.804243 279.110016 
L 327.804243 279.243072 
L 328.129222 279.243072 
L 328.129222 279.376128 
L 328.454201 279.376128 
L 328.454201 279.509184 
L 328.77918 279.509184 
L 328.77918 279.64224 
L 329.104159 279.64224 
L 329.104159 279.775296 
L 329.429139 279.775296 
L 329.429139 279.908352 
L 329.754118 279.908352 
L 329.754118 280.041408 
L 330.079097 280.041408 
L 330.079097 280.174464 
L 330.404076 280.174464 
L 330.404076 280.30752 
L 330.729055 280.30752 
L 330.729055 280.440576 
L 331.054035 280.440576 
L 331.054035 280.573632 
L 331.379014 280.573632 
L 331.379014 280.706688 
L 331.703993 280.706688 
L 331.703993 280.839744 
L 332.353951 280.839744 
L 332.353951 280.9728 
L 333.00391 280.9728 
L 333.00391 281.105856 
L 334.303827 281.105856 
L 334.303827 281.238912 
L 338.853535 281.238912 
L 338.853535 281.371968 
L 339.503494 281.371968 
L 339.503494 281.505024 
L 340.153452 281.505024 
L 340.153452 281.63808 
L 340.803411 281.63808 
L 340.803411 281.771136 
L 341.12839 281.771136 
L 341.12839 281.904192 
L 341.778348 281.904192 
L 341.778348 282.037248 
L 342.428307 282.037248 
L 342.428307 282.170304 
L 345.02814 282.170304 
L 345.02814 282.037248 
L 345.353119 282.037248 
L 345.353119 281.904192 
L 345.678099 281.904192 
L 345.678099 281.771136 
L 346.003078 281.771136 
L 346.003078 281.63808 
L 346.328057 281.63808 
L 346.328057 281.505024 
L 346.653036 281.505024 
L 346.653036 281.238912 
L 346.978015 281.238912 
L 346.978015 281.105856 
L 347.302995 281.105856 
L 347.302995 280.839744 
L 347.627974 280.839744 
L 347.627974 280.573632 
L 347.952953 280.573632 
L 347.952953 280.440576 
L 348.277932 280.440576 
L 348.277932 280.174464 
L 348.602911 280.174464 
L 348.602911 279.908352 
L 348.927891 279.908352 
L 348.927891 279.775296 
L 349.25287 279.775296 
L 349.25287 279.509184 
L 349.577849 279.509184 
L 349.577849 279.376128 
L 349.902828 279.376128 
L 349.902828 279.110016 
L 350.227807 279.110016 
L 350.227807 278.97696 
L 350.552787 278.97696 
L 350.552787 278.843904 
L 350.877766 278.843904 
L 350.877766 278.710848 
L 351.202745 278.710848 
L 351.202745 278.577792 
L 352.827641 278.577792 
L 352.827641 278.710848 
L 353.15262 278.710848 
L 353.15262 278.843904 
L 353.477599 278.843904 
L 353.477599 278.97696 
L 353.802579 278.97696 
L 353.802579 279.110016 
L 354.127558 279.110016 
L 354.127558 279.376128 
L 354.452537 279.376128 
L 354.452537 279.509184 
L 354.777516 279.509184 
L 354.777516 279.775296 
L 355.102495 279.775296 
L 355.102495 280.041408 
L 355.427475 280.041408 
L 355.427475 280.174464 
L 355.752454 280.174464 
L 355.752454 280.440576 
L 356.077433 280.440576 
L 356.077433 280.706688 
L 356.402412 280.706688 
L 356.402412 280.9728 
L 356.727391 280.9728 
L 356.727391 281.238912 
L 357.052371 281.238912 
L 357.052371 281.505024 
L 357.37735 281.505024 
L 357.37735 281.63808 
L 357.702329 281.63808 
L 357.702329 281.904192 
L 358.027308 281.904192 
L 358.027308 282.037248 
L 358.352287 282.037248 
L 358.352287 282.30336 
L 358.677267 282.30336 
L 358.677267 282.436416 
L 359.002246 282.436416 
L 359.002246 282.569472 
L 359.652204 282.569472 
L 359.652204 282.702528 
L 360.302163 282.702528 
L 360.302163 282.835584 
L 362.577017 282.835584 
L 362.577017 282.702528 
L 363.551955 282.702528 
L 363.551955 282.569472 
L 364.526892 282.569472 
L 364.526892 282.436416 
L 367.776684 282.436416 
L 367.776684 282.569472 
L 369.726559 282.569472 
L 369.726559 282.702528 
L 372.001468 282.702528 
L 372.001468 282.569472 
L 372.976406 282.569472 
L 372.976406 282.436416 
L 373.626364 282.436416 
L 373.626364 282.30336 
L 374.276322 282.30336 
L 374.276322 282.170304 
L 374.926281 282.170304 
L 374.926281 282.037248 
L 375.576239 282.037248 
L 375.576239 281.904192 
L 375.901218 281.904192 
L 375.901218 281.771136 
L 376.551177 281.771136 
L 376.551177 281.63808 
L 377.201135 281.63808 
L 377.201135 281.505024 
L 378.176073 281.505024 
L 378.176073 281.371968 
L 380.450927 281.371968 
L 380.450927 281.505024 
L 381.750844 281.505024 
L 381.750844 281.63808 
L 382.725782 281.63808 
L 382.725782 281.771136 
L 383.700719 281.771136 
L 383.700719 281.904192 
L 387.925449 281.904192 
L 387.925449 282.037248 
L 388.575407 282.037248 
L 388.575407 282.170304 
L 389.225366 282.170304 
L 389.225366 282.30336 
L 389.550345 282.30336 
L 389.550345 282.436416 
L 389.875324 282.436416 
L 389.875324 282.702528 
L 390.200303 282.702528 
L 390.200303 282.835584 
L 390.525282 282.835584 
L 390.525282 283.101696 
L 390.850262 283.101696 
L 390.850262 283.367808 
L 391.175241 283.367808 
L 391.175241 283.766976 
L 391.50022 283.766976 
L 391.50022 284.166144 
L 391.825199 284.166144 
L 391.825199 284.565312 
L 392.150178 284.565312 
L 392.150178 284.96448 
L 392.475158 284.96448 
L 392.475158 285.496704 
L 392.800137 285.496704 
L 392.800137 286.161984 
L 393.125116 286.161984 
L 393.125116 286.827264 
L 393.450095 286.827264 
L 393.450095 287.492544 
L 393.775074 287.492544 
L 393.775074 288.29088 
L 394.100054 288.29088 
L 394.100054 289.089216 
L 394.425033 289.089216 
L 394.425033 290.020608 
L 394.750012 290.020608 
L 394.750012 290.952 
L 395.074991 290.952 
L 395.074991 292.016448 
L 395.39997 292.016448 
L 395.39997 293.213952 
L 395.72495 293.213952 
L 395.72495 294.411456 
L 396.049929 294.411456 
L 396.049929 295.742016 
L 396.374908 295.742016 
L 396.374908 297.205632 
L 396.699887 297.205632 
L 396.699887 298.669248 
L 397.024866 298.669248 
L 397.024866 300.26592 
L 397.349846 300.26592 
L 397.349846 301.862592 
L 397.674825 301.862592 
L 397.674825 303.725376 
L 397.999804 303.725376 
L 397.999804 305.58816 
L 398.324783 305.58816 
L 398.324783 307.317888 
L 398.487273 307.317888 
L 398.487273 307.317888 
" style="fill:none;stroke:#000000;stroke-linecap:square;stroke-width:1.5;"/>
   </g>
   <g id="line2d_18">
    <path clip-path="url(#p394dad9d69)" d="M 73.832727 281.60734 
L 172.951491 281.498691 
L 178.151159 281.260911 
L 181.72593 280.881484 
L 184.325763 280.400384 
L 186.600618 279.761917 
L 188.550493 278.991589 
L 190.175389 278.146187 
L 191.800285 277.07169 
L 193.425181 275.720897 
L 195.050077 274.041437 
L 196.674973 271.976524 
L 198.299869 269.466187 
L 199.924765 266.449011 
L 201.549661 262.864422 
L 203.174557 258.655496 
L 204.799453 253.772259 
L 206.424349 248.175375 
L 208.049245 241.840065 
L 209.999174 233.255438 
L 211.94905 223.632046 
L 214.223904 211.209943 
L 216.823738 195.741214 
L 225.923155 140.038497 
L 227.87303 130.132488 
L 229.497926 123.047982 
L 230.797843 118.285224 
L 232.09776 114.41876 
L 233.072698 112.149561 
L 234.047635 110.447278 
L 234.697594 109.636312 
L 235.347552 109.089003 
L 235.99751 108.807888 
L 236.647469 108.794273 
L 237.297427 109.048219 
L 237.947386 109.568549 
L 238.597344 110.352851 
L 239.572282 112.015991 
L 240.547219 114.247424 
L 241.522157 117.024244 
L 242.822074 121.525577 
L 244.12199 126.865777 
L 245.746886 134.578193 
L 247.696762 145.083673 
L 250.296595 160.586455 
L 259.071034 214.510296 
L 261.345888 226.618545 
L 263.295817 235.937534 
L 265.245693 244.202278 
L 267.195568 251.395604 
L 268.820464 256.589255 
L 270.44536 261.089721 
L 272.070256 264.94276 
L 273.695152 268.202665 
L 275.320048 270.928779 
L 276.944944 273.182461 
L 278.56984 275.024563 
L 280.194736 276.513456 
L 281.819632 277.703576 
L 283.444528 278.64447 
L 285.394403 279.506292 
L 287.344278 280.138063 
L 289.619133 280.656235 
L 292.543945 281.078557 
L 296.118717 281.360073 
L 301.318384 281.532062 
L 311.717718 281.602159 
L 396.212418 281.60734 
L 398.487273 281.60734 
L 398.487273 281.60734 
" style="fill:none;stroke:#ff0000;stroke-linecap:square;stroke-width:1.5;"/>
   </g>
   <g id="patch_3">
    <path d="M 57.6 307.584 
L 57.6 41.472 
" style="fill:none;stroke:#000000;stroke-linecap:square;stroke-linejoin:miter;stroke-width:0.8;"/>
   </g>
   <g id="patch_4">
    <path d="M 414.72 307.584 
L 414.72 41.472 
" style="fill:none;stroke:#000000;stroke-linecap:square;stroke-linejoin:miter;stroke-width:0.8;"/>
   </g>
   <g id="patch_5">
    <path d="M 57.6 307.584 
L 414.72 307.584 
" style="fill:none;stroke:#000000;stroke-linecap:square;stroke-linejoin:miter;stroke-width:0.8;"/>
   </g>
   <g id="patch_6">
    <path d="M 57.6 41.472 
L 414.72 41.472 
" style="fill:none;stroke:#000000;stroke-linecap:square;stroke-linejoin:miter;stroke-width:0.8;"/>
   </g>
   <g id="text_17">
    <!-- b = 19.523 ($\pm$ 0.46 %) -->
    <defs>
     <path d="M 48.6875 27.296875 
Q 48.6875 37.203125 44.609375 42.84375 
Q 40.53125 48.484375 33.40625 48.484375 
Q 26.265625 48.484375 22.1875 42.84375 
Q 18.109375 37.203125 18.109375 27.296875 
Q 18.109375 17.390625 22.1875 11.75 
Q 26.265625 6.109375 33.40625 6.109375 
Q 40.53125 6.109375 44.609375 11.75 
Q 48.6875 17.390625 48.6875 27.296875 
z
M 18.109375 46.390625 
Q 20.953125 51.265625 25.265625 53.625 
Q 29.59375 56 35.59375 56 
Q 45.5625 56 51.78125 48.09375 
Q 58.015625 40.1875 58.015625 27.296875 
Q 58.015625 14.40625 51.78125 6.484375 
Q 45.5625 -1.421875 35.59375 -1.421875 
Q 29.59375 -1.421875 25.265625 0.953125 
Q 20.953125 3.328125 18.109375 8.203125 
L 18.109375 0 
L 9.078125 0 
L 9.078125 75.984375 
L 18.109375 75.984375 
z
" id="DejaVuSans-62"/>
     <path id="DejaVuSans-20"/>
     <path d="M 10.59375 45.40625 
L 73.1875 45.40625 
L 73.1875 37.203125 
L 10.59375 37.203125 
z
M 10.59375 25.484375 
L 73.1875 25.484375 
L 73.1875 17.1875 
L 10.59375 17.1875 
z
" id="DejaVuSans-3d"/>
     <path d="M 10.984375 1.515625 
L 10.984375 10.5 
Q 14.703125 8.734375 18.5 7.8125 
Q 22.3125 6.890625 25.984375 6.890625 
Q 35.75 6.890625 40.890625 13.453125 
Q 46.046875 20.015625 46.78125 33.40625 
Q 43.953125 29.203125 39.59375 26.953125 
Q 35.25 24.703125 29.984375 24.703125 
Q 19.046875 24.703125 12.671875 31.3125 
Q 6.296875 37.9375 6.296875 49.421875 
Q 6.296875 60.640625 12.9375 67.421875 
Q 19.578125 74.21875 30.609375 74.21875 
Q 43.265625 74.21875 49.921875 64.515625 
Q 56.59375 54.828125 56.59375 36.375 
Q 56.59375 19.140625 48.40625 8.859375 
Q 40.234375 -1.421875 26.421875 -1.421875 
Q 22.703125 -1.421875 18.890625 -0.6875 
Q 15.09375 0.046875 10.984375 1.515625 
z
M 30.609375 32.421875 
Q 37.25 32.421875 41.125 36.953125 
Q 45.015625 41.5 45.015625 49.421875 
Q 45.015625 57.28125 41.125 61.84375 
Q 37.25 66.40625 30.609375 66.40625 
Q 23.96875 66.40625 20.09375 61.84375 
Q 16.21875 57.28125 16.21875 49.421875 
Q 16.21875 41.5 20.09375 36.953125 
Q 23.96875 32.421875 30.609375 32.421875 
z
" id="DejaVuSans-39"/>
     <path d="M 10.6875 12.40625 
L 21 12.40625 
L 21 0 
L 10.6875 0 
z
" id="DejaVuSans-2e"/>
     <path d="M 31 75.875 
Q 24.46875 64.65625 21.28125 53.65625 
Q 18.109375 42.671875 18.109375 31.390625 
Q 18.109375 20.125 21.3125 9.0625 
Q 24.515625 -2 31 -13.1875 
L 23.1875 -13.1875 
Q 15.875 -1.703125 12.234375 9.375 
Q 8.59375 20.453125 8.59375 31.390625 
Q 8.59375 42.28125 12.203125 53.3125 
Q 15.828125 64.359375 23.1875 75.875 
z
" id="DejaVuSans-28"/>
     <path d="M 46 62.703125 
L 46 43.796875 
L 73.1875 43.796875 
L 73.1875 35.5 
L 46 35.5 
L 46 16.609375 
L 37.796875 16.609375 
L 37.796875 35.5 
L 10.59375 35.5 
L 10.59375 43.796875 
L 37.796875 43.796875 
L 37.796875 62.703125 
z
M 10.59375 8.296875 
L 73.1875 8.296875 
L 73.1875 0 
L 10.59375 0 
z
" id="DejaVuSans-b1"/>
     <path d="M 72.703125 32.078125 
Q 68.453125 32.078125 66.03125 28.46875 
Q 63.625 24.859375 63.625 18.40625 
Q 63.625 12.0625 66.03125 8.421875 
Q 68.453125 4.78125 72.703125 4.78125 
Q 76.859375 4.78125 79.265625 8.421875 
Q 81.6875 12.0625 81.6875 18.40625 
Q 81.6875 24.8125 79.265625 28.4375 
Q 76.859375 32.078125 72.703125 32.078125 
z
M 72.703125 38.28125 
Q 80.421875 38.28125 84.953125 32.90625 
Q 89.5 27.546875 89.5 18.40625 
Q 89.5 9.28125 84.9375 3.921875 
Q 80.375 -1.421875 72.703125 -1.421875 
Q 64.890625 -1.421875 60.34375 3.921875 
Q 55.8125 9.28125 55.8125 18.40625 
Q 55.8125 27.59375 60.375 32.9375 
Q 64.9375 38.28125 72.703125 38.28125 
z
M 22.3125 68.015625 
Q 18.109375 68.015625 15.6875 64.375 
Q 13.28125 60.75 13.28125 54.390625 
Q 13.28125 47.953125 15.671875 44.328125 
Q 18.0625 40.71875 22.3125 40.71875 
Q 26.5625 40.71875 28.96875 44.328125 
Q 31.390625 47.953125 31.390625 54.390625 
Q 31.390625 60.6875 28.953125 64.34375 
Q 26.515625 68.015625 22.3125 68.015625 
z
M 66.40625 74.21875 
L 74.21875 74.21875 
L 28.609375 -1.421875 
L 20.796875 -1.421875 
z
M 22.3125 74.21875 
Q 30.03125 74.21875 34.609375 68.875 
Q 39.203125 63.53125 39.203125 54.390625 
Q 39.203125 45.171875 34.640625 39.84375 
Q 30.078125 34.515625 22.3125 34.515625 
Q 14.546875 34.515625 10.03125 39.859375 
Q 5.515625 45.21875 5.515625 54.390625 
Q 5.515625 63.484375 10.046875 68.84375 
Q 14.59375 74.21875 22.3125 74.21875 
z
" id="DejaVuSans-25"/>
     <path d="M 8.015625 75.875 
L 15.828125 75.875 
Q 23.140625 64.359375 26.78125 53.3125 
Q 30.421875 42.28125 30.421875 31.390625 
Q 30.421875 20.453125 26.78125 9.375 
Q 23.140625 -1.703125 15.828125 -13.1875 
L 8.015625 -13.1875 
Q 14.5 -2 17.703125 9.0625 
Q 20.90625 20.125 20.90625 31.390625 
Q 20.90625 42.671875 17.703125 53.65625 
Q 14.5 64.65625 8.015625 75.875 
z
" id="DejaVuSans-29"/>
    </defs>
    <g transform="translate(75.456 63.895725)scale(0.12 -0.12)">
     <use transform="translate(0 0.015625)" xlink:href="#DejaVuSans-62"/>
     <use transform="translate(63.476562 0.015625)" xlink:href="#DejaVuSans-20"/>
     <use transform="translate(95.263672 0.015625)" xlink:href="#DejaVuSans-3d"/>
     <use transform="translate(179.052734 0.015625)" xlink:href="#DejaVuSans-20"/>
     <use transform="translate(210.839844 0.015625)" xlink:href="#DejaVuSans-31"/>
     <use transform="translate(274.462891 0.015625)" xlink:href="#DejaVuSans-39"/>
     <use transform="translate(338.085938 0.015625)" xlink:href="#DejaVuSans-2e"/>
     <use transform="translate(369.873047 0.015625)" xlink:href="#DejaVuSans-35"/>
     <use transform="translate(433.496094 0.015625)" xlink:href="#DejaVuSans-32"/>
     <use transform="translate(497.119141 0.015625)" xlink:href="#DejaVuSans-33"/>
     <use transform="translate(560.742188 0.015625)" xlink:href="#DejaVuSans-20"/>
     <use transform="translate(592.529297 0.015625)" xlink:href="#DejaVuSans-28"/>
     <use transform="translate(631.542969 0.015625)" xlink:href="#DejaVuSans-b1"/>
     <use transform="translate(715.332031 0.015625)" xlink:href="#DejaVuSans-20"/>
     <use transform="translate(747.119141 0.015625)" xlink:href="#DejaVuSans-30"/>
     <use transform="translate(810.742188 0.015625)" xlink:href="#DejaVuSans-2e"/>
     <use transform="translate(842.529297 0.015625)" xlink:href="#DejaVuSans-34"/>
     <use transform="translate(906.152344 0.015625)" xlink:href="#DejaVuSans-36"/>
     <use transform="translate(969.775391 0.015625)" xlink:href="#DejaVuSans-20"/>
     <use transform="translate(1001.5625 0.015625)" xlink:href="#DejaVuSans-25"/>
     <use transform="translate(1096.582031 0.015625)" xlink:href="#DejaVuSans-29"/>
    </g>
    <!-- c = 99.366 ($\pm$ 0.28 %) -->
    <defs>
     <path d="M 48.78125 52.59375 
L 48.78125 44.1875 
Q 44.96875 46.296875 41.140625 47.34375 
Q 37.3125 48.390625 33.40625 48.390625 
Q 24.65625 48.390625 19.8125 42.84375 
Q 14.984375 37.3125 14.984375 27.296875 
Q 14.984375 17.28125 19.8125 11.734375 
Q 24.65625 6.203125 33.40625 6.203125 
Q 37.3125 6.203125 41.140625 7.25 
Q 44.96875 8.296875 48.78125 10.40625 
L 48.78125 2.09375 
Q 45.015625 0.34375 40.984375 -0.53125 
Q 36.96875 -1.421875 32.421875 -1.421875 
Q 20.0625 -1.421875 12.78125 6.34375 
Q 5.515625 14.109375 5.515625 27.296875 
Q 5.515625 40.671875 12.859375 48.328125 
Q 20.21875 56 33.015625 56 
Q 37.15625 56 41.109375 55.140625 
Q 45.0625 54.296875 48.78125 52.59375 
z
" id="DejaVuSans-63"/>
     <path d="M 31.78125 34.625 
Q 24.75 34.625 20.71875 30.859375 
Q 16.703125 27.09375 16.703125 20.515625 
Q 16.703125 13.921875 20.71875 10.15625 
Q 24.75 6.390625 31.78125 6.390625 
Q 38.8125 6.390625 42.859375 10.171875 
Q 46.921875 13.96875 46.921875 20.515625 
Q 46.921875 27.09375 42.890625 30.859375 
Q 38.875 34.625 31.78125 34.625 
z
M 21.921875 38.8125 
Q 15.578125 40.375 12.03125 44.71875 
Q 8.5 49.078125 8.5 55.328125 
Q 8.5 64.0625 14.71875 69.140625 
Q 20.953125 74.21875 31.78125 74.21875 
Q 42.671875 74.21875 48.875 69.140625 
Q 55.078125 64.0625 55.078125 55.328125 
Q 55.078125 49.078125 51.53125 44.71875 
Q 48 40.375 41.703125 38.8125 
Q 48.828125 37.15625 52.796875 32.3125 
Q 56.78125 27.484375 56.78125 20.515625 
Q 56.78125 9.90625 50.3125 4.234375 
Q 43.84375 -1.421875 31.78125 -1.421875 
Q 19.734375 -1.421875 13.25 4.234375 
Q 6.78125 9.90625 6.78125 20.515625 
Q 6.78125 27.484375 10.78125 32.3125 
Q 14.796875 37.15625 21.921875 38.8125 
z
M 18.3125 54.390625 
Q 18.3125 48.734375 21.84375 45.5625 
Q 25.390625 42.390625 31.78125 42.390625 
Q 38.140625 42.390625 41.71875 45.5625 
Q 45.3125 48.734375 45.3125 54.390625 
Q 45.3125 60.0625 41.71875 63.234375 
Q 38.140625 66.40625 31.78125 66.40625 
Q 25.390625 66.40625 21.84375 63.234375 
Q 18.3125 60.0625 18.3125 54.390625 
z
" id="DejaVuSans-38"/>
    </defs>
    <g transform="translate(75.456 77.3331)scale(0.12 -0.12)">
     <use transform="translate(0 0.125)" xlink:href="#DejaVuSans-63"/>
     <use transform="translate(54.980469 0.125)" xlink:href="#DejaVuSans-20"/>
     <use transform="translate(86.767578 0.125)" xlink:href="#DejaVuSans-3d"/>
     <use transform="translate(170.556641 0.125)" xlink:href="#DejaVuSans-20"/>
     <use transform="translate(202.34375 0.125)" xlink:href="#DejaVuSans-39"/>
     <use transform="translate(265.966797 0.125)" xlink:href="#DejaVuSans-39"/>
     <use transform="translate(329.589844 0.125)" xlink:href="#DejaVuSans-2e"/>
     <use transform="translate(361.376953 0.125)" xlink:href="#DejaVuSans-33"/>
     <use transform="translate(425 0.125)" xlink:href="#DejaVuSans-36"/>
     <use transform="translate(488.623047 0.125)" xlink:href="#DejaVuSans-36"/>
     <use transform="translate(552.246094 0.125)" xlink:href="#DejaVuSans-20"/>
     <use transform="translate(584.033203 0.125)" xlink:href="#DejaVuSans-28"/>
     <use transform="translate(623.046875 0.125)" xlink:href="#DejaVuSans-b1"/>
     <use transform="translate(706.835938 0.125)" xlink:href="#DejaVuSans-20"/>
     <use transform="translate(738.623047 0.125)" xlink:href="#DejaVuSans-30"/>
     <use transform="translate(802.246094 0.125)" xlink:href="#DejaVuSans-2e"/>
     <use transform="translate(833.955078 0.125)" xlink:href="#DejaVuSans-32"/>
     <use transform="translate(897.578125 0.125)" xlink:href="#DejaVuSans-38"/>
     <use transform="translate(961.201172 0.125)" xlink:href="#DejaVuSans-20"/>
     <use transform="translate(992.988281 0.125)" xlink:href="#DejaVuSans-25"/>
     <use transform="translate(1088.007812 0.125)" xlink:href="#DejaVuSans-29"/>
    </g>
    <!-- $\mu$ = 3.004 ($\pm$ 0.03 %) -->
    <defs>
     <path d="M -1.3125 -20.796875 
L 13.375 54.6875 
L 22.40625 54.6875 
L 15.765625 20.65625 
Q 15.578125 19.625 15.421875 18.359375 
Q 15.28125 17.09375 15.28125 15.828125 
Q 15.28125 11.28125 18.140625 8.828125 
Q 21 6.390625 26.3125 6.390625 
Q 33.546875 6.390625 37.984375 10.484375 
Q 42.4375 14.59375 44 22.796875 
L 50.203125 54.6875 
L 59.1875 54.6875 
L 51.03125 12.640625 
Q 50.828125 11.71875 50.75 11.03125 
Q 50.6875 10.359375 50.6875 9.8125 
Q 50.6875 8.296875 51.296875 7.59375 
Q 51.90625 6.890625 53.21875 6.890625 
Q 53.71875 6.890625 54.5625 7.125 
Q 55.421875 7.375 56.984375 8.015625 
L 55.609375 0.78125 
Q 53.46875 -0.296875 51.515625 -0.859375 
Q 49.5625 -1.421875 47.703125 -1.421875 
Q 44.484375 -1.421875 42.65625 0.625 
Q 40.828125 2.6875 40.828125 6.296875 
Q 38.09375 2.390625 34.296875 0.484375 
Q 30.515625 -1.421875 25.390625 -1.421875 
Q 20.84375 -1.421875 17.453125 0.671875 
Q 14.0625 2.78125 12.984375 6.203125 
L 7.71875 -20.796875 
z
" id="DejaVuSans-Oblique-3bc"/>
    </defs>
    <g transform="translate(75.456 90.772725)scale(0.12 -0.12)">
     <use transform="translate(0 0.125)" xlink:href="#DejaVuSans-Oblique-3bc"/>
     <use transform="translate(63.623047 0.125)" xlink:href="#DejaVuSans-20"/>
     <use transform="translate(95.410156 0.125)" xlink:href="#DejaVuSans-3d"/>
     <use transform="translate(179.199219 0.125)" xlink:href="#DejaVuSans-20"/>
     <use transform="translate(210.986328 0.125)" xlink:href="#DejaVuSans-33"/>
     <use transform="translate(274.609375 0.125)" xlink:href="#DejaVuSans-2e"/>
     <use transform="translate(306.396484 0.125)" xlink:href="#DejaVuSans-30"/>
     <use transform="translate(370.019531 0.125)" xlink:href="#DejaVuSans-30"/>
     <use transform="translate(433.642578 0.125)" xlink:href="#DejaVuSans-34"/>
     <use transform="translate(497.265625 0.125)" xlink:href="#DejaVuSans-20"/>
     <use transform="translate(529.052734 0.125)" xlink:href="#DejaVuSans-28"/>
     <use transform="translate(568.066406 0.125)" xlink:href="#DejaVuSans-b1"/>
     <use transform="translate(651.855469 0.125)" xlink:href="#DejaVuSans-20"/>
     <use transform="translate(683.642578 0.125)" xlink:href="#DejaVuSans-30"/>
     <use transform="translate(747.265625 0.125)" xlink:href="#DejaVuSans-2e"/>
     <use transform="translate(779.052734 0.125)" xlink:href="#DejaVuSans-30"/>
     <use transform="translate(842.675781 0.125)" xlink:href="#DejaVuSans-33"/>
     <use transform="translate(906.298828 0.125)" xlink:href="#DejaVuSans-20"/>
     <use transform="translate(938.085938 0.125)" xlink:href="#DejaVuSans-25"/>
     <use transform="translate(1033.105469 0.125)" xlink:href="#DejaVuSans-29"/>
    </g>
    <!-- $\sigma$ = 0.305 ($\pm$ 0.30 %) -->
    <defs>
     <path d="M 34.671875 47.5625 
Q 27.25 47.5625 22.21875 42.1875 
Q 16.890625 36.578125 15.140625 27.296875 
Q 13.1875 17.484375 16.3125 11.8125 
Q 19.390625 6.203125 26.65625 6.203125 
Q 33.84375 6.203125 39.109375 11.859375 
Q 44.4375 17.53125 46.34375 27.296875 
Q 48.046875 36.234375 45.015625 42.1875 
Q 42.1875 47.5625 34.671875 47.5625 
z
M 36.078125 54.734375 
L 65.921875 54.6875 
L 64.15625 45.703125 
L 54.109375 45.703125 
Q 57.90625 38.09375 55.859375 27.296875 
Q 53.21875 13.875 45.0625 6.25 
Q 36.859375 -1.421875 25.140625 -1.421875 
Q 13.375 -1.421875 8.203125 6.25 
Q 3.03125 13.875 5.671875 27.296875 
Q 8.25 40.765625 16.40625 48.390625 
Q 23.1875 54.734375 36.078125 54.734375 
z
" id="DejaVuSans-Oblique-3c3"/>
    </defs>
    <g transform="translate(75.456 104.234475)scale(0.12 -0.12)">
     <use transform="translate(0 0.125)" xlink:href="#DejaVuSans-Oblique-3c3"/>
     <use transform="translate(63.378906 0.125)" xlink:href="#DejaVuSans-20"/>
     <use transform="translate(95.166016 0.125)" xlink:href="#DejaVuSans-3d"/>
     <use transform="translate(178.955078 0.125)" xlink:href="#DejaVuSans-20"/>
     <use transform="translate(210.742188 0.125)" xlink:href="#DejaVuSans-30"/>
     <use transform="translate(274.365234 0.125)" xlink:href="#DejaVuSans-2e"/>
     <use transform="translate(306.152344 0.125)" xlink:href="#DejaVuSans-33"/>
     <use transform="translate(369.775391 0.125)" xlink:href="#DejaVuSans-30"/>
     <use transform="translate(433.398438 0.125)" xlink:href="#DejaVuSans-35"/>
     <use transform="translate(497.021484 0.125)" xlink:href="#DejaVuSans-20"/>
     <use transform="translate(528.808594 0.125)" xlink:href="#DejaVuSans-28"/>
     <use transform="translate(567.822266 0.125)" xlink:href="#DejaVuSans-b1"/>
     <use transform="translate(651.611328 0.125)" xlink:href="#DejaVuSans-20"/>
     <use transform="translate(683.398438 0.125)" xlink:href="#DejaVuSans-30"/>
     <use transform="translate(747.021484 0.125)" xlink:href="#DejaVuSans-2e"/>
     <use transform="translate(778.808594 0.125)" xlink:href="#DejaVuSans-33"/>
     <use transform="translate(842.431641 0.125)" xlink:href="#DejaVuSans-30"/>
     <use transform="translate(906.054688 0.125)" xlink:href="#DejaVuSans-20"/>
     <use transform="translate(937.841797 0.125)" xlink:href="#DejaVuSans-25"/>
     <use transform="translate(1032.861328 0.125)" xlink:href="#DejaVuSans-29"/>
    </g>
   </g>
   <g id="legend_1">
    <g id="patch_7">
     <path d="M 309.770625 86.2995 
L 406.32 86.2995 
Q 408.72 86.2995 408.72 83.8995 
L 408.72 49.872 
Q 408.72 47.472 406.32 47.472 
L 309.770625 47.472 
Q 307.370625 47.472 307.370625 49.872 
L 307.370625 83.8995 
Q 307.370625 86.2995 309.770625 86.2995 
z
" style="fill:#ffffff;opacity:0.8;stroke:#cccccc;stroke-linejoin:miter;"/>
    </g>
    <g id="line2d_19">
     <path d="M 312.170625 57.190125 
L 336.170625 57.190125 
" style="fill:none;stroke:#000000;stroke-linecap:square;stroke-width:1.5;"/>
    </g>
    <g id="line2d_20"/>
    <g id="text_18">
     <!-- Spectrum -->
     <defs>
      <path d="M 53.515625 70.515625 
L 53.515625 60.890625 
Q 47.90625 63.578125 42.921875 64.890625 
Q 37.9375 66.21875 33.296875 66.21875 
Q 25.25 66.21875 20.875 63.09375 
Q 16.5 59.96875 16.5 54.203125 
Q 16.5 49.359375 19.40625 46.890625 
Q 22.3125 44.4375 30.421875 42.921875 
L 36.375 41.703125 
Q 47.40625 39.59375 52.65625 34.296875 
Q 57.90625 29 57.90625 20.125 
Q 57.90625 9.515625 50.796875 4.046875 
Q 43.703125 -1.421875 29.984375 -1.421875 
Q 24.8125 -1.421875 18.96875 -0.25 
Q 13.140625 0.921875 6.890625 3.21875 
L 6.890625 13.375 
Q 12.890625 10.015625 18.65625 8.296875 
Q 24.421875 6.59375 29.984375 6.59375 
Q 38.421875 6.59375 43.015625 9.90625 
Q 47.609375 13.234375 47.609375 19.390625 
Q 47.609375 24.75 44.3125 27.78125 
Q 41.015625 30.8125 33.5 32.328125 
L 27.484375 33.5 
Q 16.453125 35.6875 11.515625 40.375 
Q 6.59375 45.0625 6.59375 53.421875 
Q 6.59375 63.09375 13.40625 68.65625 
Q 20.21875 74.21875 32.171875 74.21875 
Q 37.3125 74.21875 42.625 73.28125 
Q 47.953125 72.359375 53.515625 70.515625 
z
" id="DejaVuSans-53"/>
      <path d="M 18.109375 8.203125 
L 18.109375 -20.796875 
L 9.078125 -20.796875 
L 9.078125 54.6875 
L 18.109375 54.6875 
L 18.109375 46.390625 
Q 20.953125 51.265625 25.265625 53.625 
Q 29.59375 56 35.59375 56 
Q 45.5625 56 51.78125 48.09375 
Q 58.015625 40.1875 58.015625 27.296875 
Q 58.015625 14.40625 51.78125 6.484375 
Q 45.5625 -1.421875 35.59375 -1.421875 
Q 29.59375 -1.421875 25.265625 0.953125 
Q 20.953125 3.328125 18.109375 8.203125 
z
M 48.6875 27.296875 
Q 48.6875 37.203125 44.609375 42.84375 
Q 40.53125 48.484375 33.40625 48.484375 
Q 26.265625 48.484375 22.1875 42.84375 
Q 18.109375 37.203125 18.109375 27.296875 
Q 18.109375 17.390625 22.1875 11.75 
Q 26.265625 6.109375 33.40625 6.109375 
Q 40.53125 6.109375 44.609375 11.75 
Q 48.6875 17.390625 48.6875 27.296875 
z
" id="DejaVuSans-70"/>
      <path d="M 56.203125 29.59375 
L 56.203125 25.203125 
L 14.890625 25.203125 
Q 15.484375 15.921875 20.484375 11.0625 
Q 25.484375 6.203125 34.421875 6.203125 
Q 39.59375 6.203125 44.453125 7.46875 
Q 49.3125 8.734375 54.109375 11.28125 
L 54.109375 2.78125 
Q 49.265625 0.734375 44.1875 -0.34375 
Q 39.109375 -1.421875 33.890625 -1.421875 
Q 20.796875 -1.421875 13.15625 6.1875 
Q 5.515625 13.8125 5.515625 26.8125 
Q 5.515625 40.234375 12.765625 48.109375 
Q 20.015625 56 32.328125 56 
Q 43.359375 56 49.78125 48.890625 
Q 56.203125 41.796875 56.203125 29.59375 
z
M 47.21875 32.234375 
Q 47.125 39.59375 43.09375 43.984375 
Q 39.0625 48.390625 32.421875 48.390625 
Q 24.90625 48.390625 20.390625 44.140625 
Q 15.875 39.890625 15.1875 32.171875 
z
" id="DejaVuSans-65"/>
      <path d="M 18.3125 70.21875 
L 18.3125 54.6875 
L 36.8125 54.6875 
L 36.8125 47.703125 
L 18.3125 47.703125 
L 18.3125 18.015625 
Q 18.3125 11.328125 20.140625 9.421875 
Q 21.96875 7.515625 27.59375 7.515625 
L 36.8125 7.515625 
L 36.8125 0 
L 27.59375 0 
Q 17.1875 0 13.234375 3.875 
Q 9.28125 7.765625 9.28125 18.015625 
L 9.28125 47.703125 
L 2.6875 47.703125 
L 2.6875 54.6875 
L 9.28125 54.6875 
L 9.28125 70.21875 
z
" id="DejaVuSans-74"/>
      <path d="M 41.109375 46.296875 
Q 39.59375 47.171875 37.8125 47.578125 
Q 36.03125 48 33.890625 48 
Q 26.265625 48 22.1875 43.046875 
Q 18.109375 38.09375 18.109375 28.8125 
L 18.109375 0 
L 9.078125 0 
L 9.078125 54.6875 
L 18.109375 54.6875 
L 18.109375 46.1875 
Q 20.953125 51.171875 25.484375 53.578125 
Q 30.03125 56 36.53125 56 
Q 37.453125 56 38.578125 55.875 
Q 39.703125 55.765625 41.0625 55.515625 
z
" id="DejaVuSans-72"/>
      <path d="M 8.5 21.578125 
L 8.5 54.6875 
L 17.484375 54.6875 
L 17.484375 21.921875 
Q 17.484375 14.15625 20.5 10.265625 
Q 23.53125 6.390625 29.59375 6.390625 
Q 36.859375 6.390625 41.078125 11.03125 
Q 45.3125 15.671875 45.3125 23.6875 
L 45.3125 54.6875 
L 54.296875 54.6875 
L 54.296875 0 
L 45.3125 0 
L 45.3125 8.40625 
Q 42.046875 3.421875 37.71875 1 
Q 33.40625 -1.421875 27.6875 -1.421875 
Q 18.265625 -1.421875 13.375 4.4375 
Q 8.5 10.296875 8.5 21.578125 
z
M 31.109375 56 
z
" id="DejaVuSans-75"/>
      <path d="M 52 44.1875 
Q 55.375 50.25 60.0625 53.125 
Q 64.75 56 71.09375 56 
Q 79.640625 56 84.28125 50.015625 
Q 88.921875 44.046875 88.921875 33.015625 
L 88.921875 0 
L 79.890625 0 
L 79.890625 32.71875 
Q 79.890625 40.578125 77.09375 44.375 
Q 74.3125 48.1875 68.609375 48.1875 
Q 61.625 48.1875 57.5625 43.546875 
Q 53.515625 38.921875 53.515625 30.90625 
L 53.515625 0 
L 44.484375 0 
L 44.484375 32.71875 
Q 44.484375 40.625 41.703125 44.40625 
Q 38.921875 48.1875 33.109375 48.1875 
Q 26.21875 48.1875 22.15625 43.53125 
Q 18.109375 38.875 18.109375 30.90625 
L 18.109375 0 
L 9.078125 0 
L 9.078125 54.6875 
L 18.109375 54.6875 
L 18.109375 46.1875 
Q 21.1875 51.21875 25.484375 53.609375 
Q 29.78125 56 35.6875 56 
Q 41.65625 56 45.828125 52.96875 
Q 50 49.953125 52 44.1875 
z
" id="DejaVuSans-6d"/>
     </defs>
     <g transform="translate(345.770625 61.390125)scale(0.12 -0.12)">
      <use xlink:href="#DejaVuSans-53"/>
      <use x="63.476562" xlink:href="#DejaVuSans-70"/>
      <use x="126.953125" xlink:href="#DejaVuSans-65"/>
      <use x="188.476562" xlink:href="#DejaVuSans-63"/>
      <use x="243.457031" xlink:href="#DejaVuSans-74"/>
      <use x="282.666016" xlink:href="#DejaVuSans-72"/>
      <use x="323.779297" xlink:href="#DejaVuSans-75"/>
      <use x="387.158203" xlink:href="#DejaVuSans-6d"/>
     </g>
    </g>
    <g id="line2d_21">
     <path d="M 312.170625 74.803875 
L 336.170625 74.803875 
" style="fill:none;stroke:#ff0000;stroke-linecap:square;stroke-width:1.5;"/>
    </g>
    <g id="line2d_22"/>
    <g id="text_19">
     <!-- Fit -->
     <defs>
      <path d="M 9.8125 72.90625 
L 51.703125 72.90625 
L 51.703125 64.59375 
L 19.671875 64.59375 
L 19.671875 43.109375 
L 48.578125 43.109375 
L 48.578125 34.8125 
L 19.671875 34.8125 
L 19.671875 0 
L 9.8125 0 
z
" id="DejaVuSans-46"/>
      <path d="M 9.421875 54.6875 
L 18.40625 54.6875 
L 18.40625 0 
L 9.421875 0 
z
M 9.421875 75.984375 
L 18.40625 75.984375 
L 18.40625 64.59375 
L 9.421875 64.59375 
z
" id="DejaVuSans-69"/>
     </defs>
     <g transform="translate(345.770625 79.003875)scale(0.12 -0.12)">
      <use xlink:href="#DejaVuSans-46"/>
      <use x="57.410156" xlink:href="#DejaVuSans-69"/>
      <use x="85.193359" xlink:href="#DejaVuSans-74"/>
     </g>
    </g>
   </g>
  </g>
 </g>
 <defs>
  <clipPath id="p394dad9d69">
   <rect height="266.112" width="357.12" x="57.6" y="41.472"/>
  </clipPath>
 </defs>
</svg>
