<?xml version="1.0" encoding="utf-8" standalone="no"?>
<!DOCTYPE svg PUBLIC "-//W3C//DTD SVG 1.1//EN"
  "http://www.w3.org/Graphics/SVG/1.1/DTD/svg11.dtd">
<!-- Created with matplotlib (http://matplotlib.org/) -->
<svg height="345pt" version="1.1" viewBox="0 0 460 345" width="460pt" xmlns="http://www.w3.org/2000/svg" xmlns:xlink="http://www.w3.org/1999/xlink">
 <defs>
  <style type="text/css">
*{stroke-linecap:butt;stroke-linejoin:round;}
  </style>
 </defs>
 <g id="figure_1">
  <g id="patch_1">
   <path d="M 0 345.6 
L 460.8 345.6 
L 460.8 0 
L 0 0 
z
" style="fill:#ffffff;"/>
  </g>
  <g id="axes_1">
   <g id="patch_2">
    <path d="M 57.6 307.584 
L 414.72 307.584 
L 414.72 41.472 
L 57.6 41.472 
z
" style="fill:#ffffff;"/>
   </g>
   <g id="matplotlib.axis_1">
    <g id="xtick_1">
     <g id="line2d_1">
      <defs>
       <path d="M 0 0 
L 0 3.5 
" id="mdfb791282d" style="stroke:#000000;stroke-width:0.8;"/>
      </defs>
      <g>
       <use style="stroke:#000000;stroke-width:0.8;" x="73.832727" xlink:href="#mdfb791282d" y="307.584"/>
      </g>
     </g>
     <g id="text_1">
      <!-- 0 -->
      <defs>
       <path d="M 31.78125 66.40625 
Q 24.171875 66.40625 20.328125 58.90625 
Q 16.5 51.421875 16.5 36.375 
Q 16.5 21.390625 20.328125 13.890625 
Q 24.171875 6.390625 31.78125 6.390625 
Q 39.453125 6.390625 43.28125 13.890625 
Q 47.125 21.390625 47.125 36.375 
Q 47.125 51.421875 43.28125 58.90625 
Q 39.453125 66.40625 31.78125 66.40625 
z
M 31.78125 74.21875 
Q 44.046875 74.21875 50.515625 64.515625 
Q 56.984375 54.828125 56.984375 36.375 
Q 56.984375 17.96875 50.515625 8.265625 
Q 44.046875 -1.421875 31.78125 -1.421875 
Q 19.53125 -1.421875 13.0625 8.265625 
Q 6.59375 17.96875 6.59375 36.375 
Q 6.59375 54.828125 13.0625 64.515625 
Q 19.53125 74.21875 31.78125 74.21875 
z
" id="DejaVuSans-30"/>
      </defs>
      <g transform="translate(70.651477 322.182437)scale(0.1 -0.1)">
       <use xlink:href="#DejaVuSans-30"/>
      </g>
     </g>
    </g>
    <g id="xtick_2">
     <g id="line2d_2">
      <g>
       <use style="stroke:#000000;stroke-width:0.8;" x="127.941818" xlink:href="#mdfb791282d" y="307.584"/>
      </g>
     </g>
     <g id="text_2">
      <!-- 1 -->
      <defs>
       <path d="M 12.40625 8.296875 
L 28.515625 8.296875 
L 28.515625 63.921875 
L 10.984375 60.40625 
L 10.984375 69.390625 
L 28.421875 72.90625 
L 38.28125 72.90625 
L 38.28125 8.296875 
L 54.390625 8.296875 
L 54.390625 0 
L 12.40625 0 
z
" id="DejaVuSans-31"/>
      </defs>
      <g transform="translate(124.760568 322.182437)scale(0.1 -0.1)">
       <use xlink:href="#DejaVuSans-31"/>
      </g>
     </g>
    </g>
    <g id="xtick_3">
     <g id="line2d_3">
      <g>
       <use style="stroke:#000000;stroke-width:0.8;" x="182.050909" xlink:href="#mdfb791282d" y="307.584"/>
      </g>
     </g>
     <g id="text_3">
      <!-- 2 -->
      <defs>
       <path d="M 19.1875 8.296875 
L 53.609375 8.296875 
L 53.609375 0 
L 7.328125 0 
L 7.328125 8.296875 
Q 12.9375 14.109375 22.625 23.890625 
Q 32.328125 33.6875 34.8125 36.53125 
Q 39.546875 41.84375 41.421875 45.53125 
Q 43.3125 49.21875 43.3125 52.78125 
Q 43.3125 58.59375 39.234375 62.25 
Q 35.15625 65.921875 28.609375 65.921875 
Q 23.96875 65.921875 18.8125 64.3125 
Q 13.671875 62.703125 7.8125 59.421875 
L 7.8125 69.390625 
Q 13.765625 71.78125 18.9375 73 
Q 24.125 74.21875 28.421875 74.21875 
Q 39.75 74.21875 46.484375 68.546875 
Q 53.21875 62.890625 53.21875 53.421875 
Q 53.21875 48.921875 51.53125 44.890625 
Q 49.859375 40.875 45.40625 35.40625 
Q 44.1875 33.984375 37.640625 27.21875 
Q 31.109375 20.453125 19.1875 8.296875 
z
" id="DejaVuSans-32"/>
      </defs>
      <g transform="translate(178.869659 322.182437)scale(0.1 -0.1)">
       <use xlink:href="#DejaVuSans-32"/>
      </g>
     </g>
    </g>
    <g id="xtick_4">
     <g id="line2d_4">
      <g>
       <use style="stroke:#000000;stroke-width:0.8;" x="236.16" xlink:href="#mdfb791282d" y="307.584"/>
      </g>
     </g>
     <g id="text_4">
      <!-- 3 -->
      <defs>
       <path d="M 40.578125 39.3125 
Q 47.65625 37.796875 51.625 33 
Q 55.609375 28.21875 55.609375 21.1875 
Q 55.609375 10.40625 48.1875 4.484375 
Q 40.765625 -1.421875 27.09375 -1.421875 
Q 22.515625 -1.421875 17.65625 -0.515625 
Q 12.796875 0.390625 7.625 2.203125 
L 7.625 11.71875 
Q 11.71875 9.328125 16.59375 8.109375 
Q 21.484375 6.890625 26.8125 6.890625 
Q 36.078125 6.890625 40.9375 10.546875 
Q 45.796875 14.203125 45.796875 21.1875 
Q 45.796875 27.640625 41.28125 31.265625 
Q 36.765625 34.90625 28.71875 34.90625 
L 20.21875 34.90625 
L 20.21875 43.015625 
L 29.109375 43.015625 
Q 36.375 43.015625 40.234375 45.921875 
Q 44.09375 48.828125 44.09375 54.296875 
Q 44.09375 59.90625 40.109375 62.90625 
Q 36.140625 65.921875 28.71875 65.921875 
Q 24.65625 65.921875 20.015625 65.03125 
Q 15.375 64.15625 9.8125 62.3125 
L 9.8125 71.09375 
Q 15.4375 72.65625 20.34375 73.4375 
Q 25.25 74.21875 29.59375 74.21875 
Q 40.828125 74.21875 47.359375 69.109375 
Q 53.90625 64.015625 53.90625 55.328125 
Q 53.90625 49.265625 50.4375 45.09375 
Q 46.96875 40.921875 40.578125 39.3125 
z
" id="DejaVuSans-33"/>
      </defs>
      <g transform="translate(232.97875 322.182437)scale(0.1 -0.1)">
       <use xlink:href="#DejaVuSans-33"/>
      </g>
     </g>
    </g>
    <g id="xtick_5">
     <g id="line2d_5">
      <g>
       <use style="stroke:#000000;stroke-width:0.8;" x="290.269091" xlink:href="#mdfb791282d" y="307.584"/>
      </g>
     </g>
     <g id="text_5">
      <!-- 4 -->
      <defs>
       <path d="M 37.796875 64.3125 
L 12.890625 25.390625 
L 37.796875 25.390625 
z
M 35.203125 72.90625 
L 47.609375 72.90625 
L 47.609375 25.390625 
L 58.015625 25.390625 
L 58.015625 17.1875 
L 47.609375 17.1875 
L 47.609375 0 
L 37.796875 0 
L 37.796875 17.1875 
L 4.890625 17.1875 
L 4.890625 26.703125 
z
" id="DejaVuSans-34"/>
      </defs>
      <g transform="translate(287.087841 322.182437)scale(0.1 -0.1)">
       <use xlink:href="#DejaVuSans-34"/>
      </g>
     </g>
    </g>
    <g id="xtick_6">
     <g id="line2d_6">
      <g>
       <use style="stroke:#000000;stroke-width:0.8;" x="344.378182" xlink:href="#mdfb791282d" y="307.584"/>
      </g>
     </g>
     <g id="text_6">
      <!-- 5 -->
      <defs>
       <path d="M 10.796875 72.90625 
L 49.515625 72.90625 
L 49.515625 64.59375 
L 19.828125 64.59375 
L 19.828125 46.734375 
Q 21.96875 47.46875 24.109375 47.828125 
Q 26.265625 48.1875 28.421875 48.1875 
Q 40.625 48.1875 47.75 41.5 
Q 54.890625 34.8125 54.890625 23.390625 
Q 54.890625 11.625 47.5625 5.09375 
Q 40.234375 -1.421875 26.90625 -1.421875 
Q 22.3125 -1.421875 17.546875 -0.640625 
Q 12.796875 0.140625 7.71875 1.703125 
L 7.71875 11.625 
Q 12.109375 9.234375 16.796875 8.0625 
Q 21.484375 6.890625 26.703125 6.890625 
Q 35.15625 6.890625 40.078125 11.328125 
Q 45.015625 15.765625 45.015625 23.390625 
Q 45.015625 31 40.078125 35.4375 
Q 35.15625 39.890625 26.703125 39.890625 
Q 22.75 39.890625 18.8125 39.015625 
Q 14.890625 38.140625 10.796875 36.28125 
z
" id="DejaVuSans-35"/>
      </defs>
      <g transform="translate(341.196932 322.182437)scale(0.1 -0.1)">
       <use xlink:href="#DejaVuSans-35"/>
      </g>
     </g>
    </g>
    <g id="xtick_7">
     <g id="line2d_7">
      <g>
       <use style="stroke:#000000;stroke-width:0.8;" x="398.487273" xlink:href="#mdfb791282d" y="307.584"/>
      </g>
     </g>
     <g id="text_7">
      <!-- 6 -->
      <defs>
       <path d="M 33.015625 40.375 
Q 26.375 40.375 22.484375 35.828125 
Q 18.609375 31.296875 18.609375 23.390625 
Q 18.609375 15.53125 22.484375 10.953125 
Q 26.375 6.390625 33.015625 6.390625 
Q 39.65625 6.390625 43.53125 10.953125 
Q 47.40625 15.53125 47.40625 23.390625 
Q 47.40625 31.296875 43.53125 35.828125 
Q 39.65625 40.375 33.015625 40.375 
z
M 52.59375 71.296875 
L 52.59375 62.3125 
Q 48.875 64.0625 45.09375 64.984375 
Q 41.3125 65.921875 37.59375 65.921875 
Q 27.828125 65.921875 22.671875 59.328125 
Q 17.53125 52.734375 16.796875 39.40625 
Q 19.671875 43.65625 24.015625 45.921875 
Q 28.375 48.1875 33.59375 48.1875 
Q 44.578125 48.1875 50.953125 41.515625 
Q 57.328125 34.859375 57.328125 23.390625 
Q 57.328125 12.15625 50.6875 5.359375 
Q 44.046875 -1.421875 33.015625 -1.421875 
Q 20.359375 -1.421875 13.671875 8.265625 
Q 6.984375 17.96875 6.984375 36.375 
Q 6.984375 53.65625 15.1875 63.9375 
Q 23.390625 74.21875 37.203125 74.21875 
Q 40.921875 74.21875 44.703125 73.484375 
Q 48.484375 72.75 52.59375 71.296875 
z
" id="DejaVuSans-36"/>
      </defs>
      <g transform="translate(395.306023 322.182437)scale(0.1 -0.1)">
       <use xlink:href="#DejaVuSans-36"/>
      </g>
     </g>
    </g>
   </g>
   <g id="matplotlib.axis_2">
    <g id="ytick_1">
     <g id="line2d_8">
      <defs>
       <path d="M 0 0 
L -3.5 0 
" id="ma85b2be7ea" style="stroke:#000000;stroke-width:0.8;"/>
      </defs>
      <g>
       <use style="stroke:#000000;stroke-width:0.8;" x="57.6" xlink:href="#ma85b2be7ea" y="307.584"/>
      </g>
     </g>
     <g id="text_8">
      <!-- 0 -->
      <g transform="translate(44.2375 311.383219)scale(0.1 -0.1)">
       <use xlink:href="#DejaVuSans-30"/>
      </g>
     </g>
    </g>
    <g id="ytick_2">
     <g id="line2d_9">
      <g>
       <use style="stroke:#000000;stroke-width:0.8;" x="57.6" xlink:href="#ma85b2be7ea" y="274.32"/>
      </g>
     </g>
     <g id="text_9">
      <!-- 25 -->
      <g transform="translate(37.875 278.119219)scale(0.1 -0.1)">
       <use xlink:href="#DejaVuSans-32"/>
       <use x="63.623047" xlink:href="#DejaVuSans-35"/>
      </g>
     </g>
    </g>
    <g id="ytick_3">
     <g id="line2d_10">
      <g>
       <use style="stroke:#000000;stroke-width:0.8;" x="57.6" xlink:href="#ma85b2be7ea" y="241.056"/>
      </g>
     </g>
     <g id="text_10">
      <!-- 50 -->
      <g transform="translate(37.875 244.855219)scale(0.1 -0.1)">
       <use xlink:href="#DejaVuSans-35"/>
       <use x="63.623047" xlink:href="#DejaVuSans-30"/>
      </g>
     </g>
    </g>
    <g id="ytick_4">
     <g id="line2d_11">
      <g>
       <use style="stroke:#000000;stroke-width:0.8;" x="57.6" xlink:href="#ma85b2be7ea" y="207.792"/>
      </g>
     </g>
     <g id="text_11">
      <!-- 75 -->
      <defs>
       <path d="M 8.203125 72.90625 
L 55.078125 72.90625 
L 55.078125 68.703125 
L 28.609375 0 
L 18.3125 0 
L 43.21875 64.59375 
L 8.203125 64.59375 
z
" id="DejaVuSans-37"/>
      </defs>
      <g transform="translate(37.875 211.591219)scale(0.1 -0.1)">
       <use xlink:href="#DejaVuSans-37"/>
       <use x="63.623047" xlink:href="#DejaVuSans-35"/>
      </g>
     </g>
    </g>
    <g id="ytick_5">
     <g id="line2d_12">
      <g>
       <use style="stroke:#000000;stroke-width:0.8;" x="57.6" xlink:href="#ma85b2be7ea" y="174.528"/>
      </g>
     </g>
     <g id="text_12">
      <!-- 100 -->
      <g transform="translate(31.5125 178.327219)scale(0.1 -0.1)">
       <use xlink:href="#DejaVuSans-31"/>
       <use x="63.623047" xlink:href="#DejaVuSans-30"/>
       <use x="127.246094" xlink:href="#DejaVuSans-30"/>
      </g>
     </g>
    </g>
    <g id="ytick_6">
     <g id="line2d_13">
      <g>
       <use style="stroke:#000000;stroke-width:0.8;" x="57.6" xlink:href="#ma85b2be7ea" y="141.264"/>
      </g>
     </g>
     <g id="text_13">
      <!-- 125 -->
      <g transform="translate(31.5125 145.063219)scale(0.1 -0.1)">
       <use xlink:href="#DejaVuSans-31"/>
       <use x="63.623047" xlink:href="#DejaVuSans-32"/>
       <use x="127.246094" xlink:href="#DejaVuSans-35"/>
      </g>
     </g>
    </g>
    <g id="ytick_7">
     <g id="line2d_14">
      <g>
       <use style="stroke:#000000;stroke-width:0.8;" x="57.6" xlink:href="#ma85b2be7ea" y="108"/>
      </g>
     </g>
     <g id="text_14">
      <!-- 150 -->
      <g transform="translate(31.5125 111.799219)scale(0.1 -0.1)">
       <use xlink:href="#DejaVuSans-31"/>
       <use x="63.623047" xlink:href="#DejaVuSans-35"/>
       <use x="127.246094" xlink:href="#DejaVuSans-30"/>
      </g>
     </g>
    </g>
    <g id="ytick_8">
     <g id="line2d_15">
      <g>
       <use style="stroke:#000000;stroke-width:0.8;" x="57.6" xlink:href="#ma85b2be7ea" y="74.736"/>
      </g>
     </g>
     <g id="text_15">
      <!-- 175 -->
      <g transform="translate(31.5125 78.535219)scale(0.1 -0.1)">
       <use xlink:href="#DejaVuSans-31"/>
       <use x="63.623047" xlink:href="#DejaVuSans-37"/>
       <use x="127.246094" xlink:href="#DejaVuSans-35"/>
      </g>
     </g>
    </g>
    <g id="ytick_9">
     <g id="line2d_16">
      <g>
       <use style="stroke:#000000;stroke-width:0.8;" x="57.6" xlink:href="#ma85b2be7ea" y="41.472"/>
      </g>
     </g>
     <g id="text_16">
      <!-- 200 -->
      <g transform="translate(31.5125 45.271219)scale(0.1 -0.1)">
       <use xlink:href="#DejaVuSans-32"/>
       <use x="63.623047" xlink:href="#DejaVuSans-30"/>
       <use x="127.246094" xlink:href="#DejaVuSans-30"/>
      </g>
     </g>
    </g>
   </g>
   <g id="line2d_17">
    <path clip-path="url(#p16b789891c)" d="M 73.832727 274.32 
L 73.995217 274.32 
L 73.995217 282.30336 
L 74.320197 282.30336 
L 74.320197 286.29504 
L 74.645176 286.29504 
L 74.645176 283.63392 
L 74.970156 283.63392 
L 74.970156 279.64224 
L 75.295135 279.64224 
L 75.295135 296.93952 
L 75.620115 296.93952 
L 75.620115 271.65888 
L 75.945094 271.65888 
L 75.945094 290.28672 
L 76.270074 290.28672 
L 76.270074 274.32 
L 76.595053 274.32 
L 76.595053 272.98944 
L 76.920033 272.98944 
L 76.920033 278.31168 
L 77.245012 278.31168 
L 77.245012 282.30336 
L 77.569992 282.30336 
L 77.569992 284.96448 
L 77.894971 284.96448 
L 77.894971 275.65056 
L 78.219951 275.65056 
L 78.219951 288.95616 
L 78.54493 288.95616 
L 78.54493 282.30336 
L 78.86991 282.30336 
L 78.86991 279.64224 
L 79.194889 279.64224 
L 79.194889 278.31168 
L 79.519869 278.31168 
L 79.519869 270.32832 
L 79.844848 270.32832 
L 79.844848 283.63392 
L 80.169828 283.63392 
L 80.169828 282.30336 
L 80.494808 282.30336 
L 80.494808 274.32 
L 80.819787 274.32 
L 80.819787 282.30336 
L 81.144767 282.30336 
L 81.144767 275.65056 
L 81.469746 275.65056 
L 81.469746 286.29504 
L 81.794726 286.29504 
L 81.794726 288.95616 
L 82.119705 288.95616 
L 82.119705 286.29504 
L 82.444685 286.29504 
L 82.444685 283.63392 
L 82.769664 283.63392 
L 82.769664 284.96448 
L 83.094644 284.96448 
L 83.094644 283.63392 
L 83.419623 283.63392 
L 83.419623 268.99776 
L 83.744603 268.99776 
L 83.744603 287.6256 
L 84.069582 287.6256 
L 84.069582 284.96448 
L 84.394562 284.96448 
L 84.394562 283.63392 
L 84.719541 283.63392 
L 84.719541 280.9728 
L 85.044521 280.9728 
L 85.044521 276.98112 
L 85.3695 276.98112 
L 85.3695 278.31168 
L 85.69448 278.31168 
L 85.69448 279.64224 
L 86.019459 279.64224 
L 86.019459 284.96448 
L 86.344439 284.96448 
L 86.344439 283.63392 
L 86.669419 283.63392 
L 86.669419 284.96448 
L 87.319378 284.96448 
L 87.319378 278.31168 
L 87.644357 278.31168 
L 87.644357 276.98112 
L 87.969337 276.98112 
L 87.969337 287.6256 
L 88.294316 287.6256 
L 88.294316 283.63392 
L 88.619296 283.63392 
L 88.619296 276.98112 
L 88.944275 276.98112 
L 88.944275 275.65056 
L 89.269255 275.65056 
L 89.269255 280.9728 
L 89.594234 280.9728 
L 89.594234 284.96448 
L 89.919214 284.96448 
L 89.919214 272.98944 
L 90.244193 272.98944 
L 90.244193 280.9728 
L 90.569173 280.9728 
L 90.569173 291.61728 
L 90.894152 291.61728 
L 90.894152 278.31168 
L 91.219132 278.31168 
L 91.219132 287.6256 
L 91.544111 287.6256 
L 91.544111 271.65888 
L 91.869091 271.65888 
L 91.869091 276.98112 
L 92.19407 276.98112 
L 92.19407 282.30336 
L 92.844029 282.30336 
L 92.844029 270.32832 
L 93.169009 270.32832 
L 93.169009 276.98112 
L 93.493989 276.98112 
L 93.493989 284.96448 
L 93.818968 284.96448 
L 93.818968 280.9728 
L 94.143948 280.9728 
L 94.143948 288.95616 
L 94.468927 288.95616 
L 94.468927 292.94784 
L 94.793907 292.94784 
L 94.793907 279.64224 
L 95.118886 279.64224 
L 95.118886 278.31168 
L 95.443866 278.31168 
L 95.443866 272.98944 
L 95.768845 272.98944 
L 95.768845 275.65056 
L 96.093825 275.65056 
L 96.093825 286.29504 
L 96.418804 286.29504 
L 96.418804 282.30336 
L 96.743784 282.30336 
L 96.743784 290.28672 
L 97.068763 290.28672 
L 97.068763 283.63392 
L 97.393743 283.63392 
L 97.393743 291.61728 
L 97.718722 291.61728 
L 97.718722 272.98944 
L 98.043702 272.98944 
L 98.043702 287.6256 
L 98.368681 287.6256 
L 98.368681 279.64224 
L 98.693661 279.64224 
L 98.693661 280.9728 
L 99.01864 280.9728 
L 99.01864 278.31168 
L 99.34362 278.31168 
L 99.34362 274.32 
L 99.6686 274.32 
L 99.6686 284.96448 
L 99.993579 284.96448 
L 99.993579 270.32832 
L 100.318559 270.32832 
L 100.318559 275.65056 
L 100.643538 275.65056 
L 100.643538 280.9728 
L 100.968518 280.9728 
L 100.968518 278.31168 
L 102.268436 278.31168 
L 102.268436 287.6256 
L 102.593415 287.6256 
L 102.593415 275.65056 
L 102.918395 275.65056 
L 102.918395 286.29504 
L 103.243374 286.29504 
L 103.243374 279.64224 
L 103.568354 279.64224 
L 103.568354 276.98112 
L 103.893333 276.98112 
L 103.893333 283.63392 
L 104.218313 283.63392 
L 104.218313 288.95616 
L 104.543292 288.95616 
L 104.543292 275.65056 
L 104.868272 275.65056 
L 104.868272 290.28672 
L 105.193251 290.28672 
L 105.193251 275.65056 
L 105.518231 275.65056 
L 105.518231 283.63392 
L 105.84321 283.63392 
L 105.84321 275.65056 
L 106.16819 275.65056 
L 106.16819 284.96448 
L 106.49317 284.96448 
L 106.49317 287.6256 
L 106.818149 287.6256 
L 106.818149 279.64224 
L 107.143129 279.64224 
L 107.143129 280.9728 
L 107.468108 280.9728 
L 107.468108 283.63392 
L 107.793088 283.63392 
L 107.793088 280.9728 
L 108.118067 280.9728 
L 108.118067 282.30336 
L 108.443047 282.30336 
L 108.443047 284.96448 
L 108.768026 284.96448 
L 108.768026 280.9728 
L 109.093006 280.9728 
L 109.093006 284.96448 
L 109.417985 284.96448 
L 109.417985 291.61728 
L 109.742965 291.61728 
L 109.742965 263.67552 
L 110.067944 263.67552 
L 110.067944 279.64224 
L 110.717903 279.64224 
L 110.717903 276.98112 
L 111.042883 276.98112 
L 111.042883 280.9728 
L 111.367862 280.9728 
L 111.367862 290.28672 
L 111.692842 290.28672 
L 111.692842 275.65056 
L 112.017821 275.65056 
L 112.017821 278.31168 
L 112.342801 278.31168 
L 112.342801 287.6256 
L 112.667781 287.6256 
L 112.667781 271.65888 
L 112.99276 271.65888 
L 112.99276 279.64224 
L 113.31774 279.64224 
L 113.31774 275.65056 
L 113.642719 275.65056 
L 113.642719 282.30336 
L 113.967699 282.30336 
L 113.967699 290.28672 
L 114.292678 290.28672 
L 114.292678 266.33664 
L 114.617658 266.33664 
L 114.617658 279.64224 
L 114.942637 279.64224 
L 114.942637 272.98944 
L 115.267617 272.98944 
L 115.267617 275.65056 
L 115.592596 275.65056 
L 115.592596 278.31168 
L 115.917576 278.31168 
L 115.917576 282.30336 
L 116.242555 282.30336 
L 116.242555 287.6256 
L 116.567535 287.6256 
L 116.567535 278.31168 
L 116.892514 278.31168 
L 116.892514 270.32832 
L 117.217494 270.32832 
L 117.217494 288.95616 
L 117.542473 288.95616 
L 117.542473 282.30336 
L 117.867453 282.30336 
L 117.867453 288.95616 
L 118.192432 288.95616 
L 118.192432 276.98112 
L 118.517412 276.98112 
L 118.517412 287.6256 
L 118.842391 287.6256 
L 118.842391 280.9728 
L 119.167371 280.9728 
L 119.167371 282.30336 
L 119.492351 282.30336 
L 119.492351 271.65888 
L 119.81733 271.65888 
L 119.81733 272.98944 
L 120.14231 272.98944 
L 120.14231 275.65056 
L 120.467289 275.65056 
L 120.467289 280.9728 
L 120.792269 280.9728 
L 120.792269 272.98944 
L 121.117248 272.98944 
L 121.117248 274.32 
L 121.442228 274.32 
L 121.442228 282.30336 
L 121.767207 282.30336 
L 121.767207 271.65888 
L 122.092187 271.65888 
L 122.092187 279.64224 
L 122.417166 279.64224 
L 122.417166 266.33664 
L 122.742146 266.33664 
L 122.742146 274.32 
L 123.067125 274.32 
L 123.067125 280.9728 
L 123.392105 280.9728 
L 123.392105 282.30336 
L 123.717084 282.30336 
L 123.717084 270.32832 
L 124.042064 270.32832 
L 124.042064 282.30336 
L 124.367043 282.30336 
L 124.367043 279.64224 
L 124.692023 279.64224 
L 124.692023 271.65888 
L 125.017002 271.65888 
L 125.017002 284.96448 
L 125.341982 284.96448 
L 125.341982 263.67552 
L 125.666962 263.67552 
L 125.666962 274.32 
L 125.991941 274.32 
L 125.991941 276.98112 
L 126.316921 276.98112 
L 126.316921 275.65056 
L 126.6419 275.65056 
L 126.6419 279.64224 
L 126.96688 279.64224 
L 126.96688 271.65888 
L 127.616839 271.65888 
L 127.616839 283.63392 
L 127.941818 283.63392 
L 127.941818 272.98944 
L 128.266798 272.98944 
L 128.266798 278.31168 
L 128.591777 278.31168 
L 128.591777 284.96448 
L 128.916757 284.96448 
L 128.916757 286.29504 
L 129.241736 286.29504 
L 129.241736 275.65056 
L 129.566716 275.65056 
L 129.566716 283.63392 
L 129.891695 283.63392 
L 129.891695 278.31168 
L 130.216675 278.31168 
L 130.216675 282.30336 
L 130.541654 282.30336 
L 130.541654 287.6256 
L 130.866634 287.6256 
L 130.866634 268.99776 
L 131.191613 268.99776 
L 131.191613 274.32 
L 131.516593 274.32 
L 131.516593 278.31168 
L 131.841572 278.31168 
L 131.841572 275.65056 
L 132.166552 275.65056 
L 132.166552 276.98112 
L 132.491532 276.98112 
L 132.491532 278.31168 
L 132.816511 278.31168 
L 132.816511 268.99776 
L 133.141491 268.99776 
L 133.141491 280.9728 
L 133.46647 280.9728 
L 133.46647 284.96448 
L 133.79145 284.96448 
L 133.79145 290.28672 
L 134.116429 290.28672 
L 134.116429 278.31168 
L 134.766388 278.31168 
L 134.766388 268.99776 
L 135.091368 268.99776 
L 135.091368 275.65056 
L 135.416347 275.65056 
L 135.416347 271.65888 
L 136.066306 271.65888 
L 136.066306 272.98944 
L 136.391286 272.98944 
L 136.391286 280.9728 
L 136.716265 280.9728 
L 136.716265 284.96448 
L 137.041245 284.96448 
L 137.041245 282.30336 
L 137.366224 282.30336 
L 137.366224 284.96448 
L 137.691204 284.96448 
L 137.691204 280.9728 
L 138.016183 280.9728 
L 138.016183 288.95616 
L 138.341163 288.95616 
L 138.341163 275.65056 
L 138.666143 275.65056 
L 138.666143 276.98112 
L 138.991122 276.98112 
L 138.991122 291.61728 
L 139.316102 291.61728 
L 139.316102 284.96448 
L 139.641081 284.96448 
L 139.641081 282.30336 
L 139.966061 282.30336 
L 139.966061 292.94784 
L 140.29104 292.94784 
L 140.29104 283.63392 
L 140.61602 283.63392 
L 140.61602 284.96448 
L 140.940999 284.96448 
L 140.940999 292.94784 
L 141.265979 292.94784 
L 141.265979 274.32 
L 141.590958 274.32 
L 141.590958 286.29504 
L 142.565897 286.29504 
L 142.565897 274.32 
L 142.890876 274.32 
L 142.890876 276.98112 
L 143.540835 276.98112 
L 143.540835 280.9728 
L 143.865815 280.9728 
L 143.865815 278.31168 
L 144.515774 278.31168 
L 144.515774 280.9728 
L 145.165733 280.9728 
L 145.165733 271.65888 
L 145.490713 271.65888 
L 145.490713 284.96448 
L 145.815692 284.96448 
L 145.815692 283.63392 
L 146.140672 283.63392 
L 146.140672 290.28672 
L 146.465651 290.28672 
L 146.465651 284.96448 
L 146.790631 284.96448 
L 146.790631 282.30336 
L 147.11561 282.30336 
L 147.11561 275.65056 
L 147.44059 275.65056 
L 147.44059 270.32832 
L 147.765569 270.32832 
L 147.765569 274.32 
L 148.090549 274.32 
L 148.090549 275.65056 
L 148.415528 275.65056 
L 148.415528 278.31168 
L 148.740508 278.31168 
L 148.740508 288.95616 
L 149.065487 288.95616 
L 149.065487 261.0144 
L 149.390467 261.0144 
L 149.390467 276.98112 
L 149.715446 276.98112 
L 149.715446 275.65056 
L 150.040426 275.65056 
L 150.040426 280.9728 
L 150.690385 280.9728 
L 150.690385 290.28672 
L 151.015364 290.28672 
L 151.015364 278.31168 
L 151.340344 278.31168 
L 151.340344 279.64224 
L 151.665324 279.64224 
L 151.665324 284.96448 
L 151.990303 284.96448 
L 151.990303 279.64224 
L 152.315283 279.64224 
L 152.315283 272.98944 
L 152.640262 272.98944 
L 152.640262 270.32832 
L 152.965242 270.32832 
L 152.965242 278.31168 
L 153.290221 278.31168 
L 153.290221 284.96448 
L 154.26516 284.96448 
L 154.26516 275.65056 
L 154.590139 275.65056 
L 154.590139 282.30336 
L 155.240098 282.30336 
L 155.240098 290.28672 
L 155.565078 290.28672 
L 155.565078 286.29504 
L 155.890057 286.29504 
L 155.890057 279.64224 
L 156.215037 279.64224 
L 156.215037 280.9728 
L 156.540016 280.9728 
L 156.540016 274.32 
L 156.864996 274.32 
L 156.864996 282.30336 
L 157.189975 282.30336 
L 157.189975 288.95616 
L 157.514955 288.95616 
L 157.514955 278.31168 
L 158.164914 278.31168 
L 158.164914 290.28672 
L 158.489894 290.28672 
L 158.489894 282.30336 
L 158.814873 282.30336 
L 158.814873 276.98112 
L 159.139853 276.98112 
L 159.139853 278.31168 
L 159.464832 278.31168 
L 159.464832 270.32832 
L 159.789812 270.32832 
L 159.789812 284.96448 
L 160.114791 284.96448 
L 160.114791 275.65056 
L 160.439771 275.65056 
L 160.439771 276.98112 
L 160.76475 276.98112 
L 160.76475 280.9728 
L 161.414709 280.9728 
L 161.414709 276.98112 
L 161.739689 276.98112 
L 161.739689 282.30336 
L 162.064668 282.30336 
L 162.064668 276.98112 
L 162.389648 276.98112 
L 162.389648 271.65888 
L 162.714627 271.65888 
L 162.714627 288.95616 
L 163.039607 288.95616 
L 163.039607 283.63392 
L 163.364586 283.63392 
L 163.364586 279.64224 
L 163.689566 279.64224 
L 163.689566 278.31168 
L 164.014545 278.31168 
L 164.014545 286.29504 
L 164.339525 286.29504 
L 164.339525 279.64224 
L 164.664505 279.64224 
L 164.664505 283.63392 
L 164.989484 283.63392 
L 164.989484 276.98112 
L 165.314464 276.98112 
L 165.314464 286.29504 
L 165.639443 286.29504 
L 165.639443 283.63392 
L 165.964423 283.63392 
L 165.964423 284.96448 
L 166.289402 284.96448 
L 166.289402 286.29504 
L 166.614382 286.29504 
L 166.614382 274.32 
L 166.939361 274.32 
L 166.939361 290.28672 
L 167.264341 290.28672 
L 167.264341 283.63392 
L 167.58932 283.63392 
L 167.58932 286.29504 
L 167.9143 286.29504 
L 167.9143 287.6256 
L 168.239279 287.6256 
L 168.239279 290.28672 
L 168.564259 290.28672 
L 168.564259 282.30336 
L 168.889238 282.30336 
L 168.889238 275.65056 
L 169.214218 275.65056 
L 169.214218 286.29504 
L 169.539197 286.29504 
L 169.539197 282.30336 
L 169.864177 282.30336 
L 169.864177 279.64224 
L 170.189156 279.64224 
L 170.189156 278.31168 
L 170.514136 278.31168 
L 170.514136 276.98112 
L 170.839115 276.98112 
L 170.839115 279.64224 
L 171.164095 279.64224 
L 171.164095 280.9728 
L 171.814054 280.9728 
L 171.814054 276.98112 
L 172.139034 276.98112 
L 172.139034 286.29504 
L 172.464013 286.29504 
L 172.464013 280.9728 
L 172.788993 280.9728 
L 172.788993 278.31168 
L 173.113972 278.31168 
L 173.113972 279.64224 
L 173.763931 279.64224 
L 173.763931 276.98112 
L 174.088911 276.98112 
L 174.088911 287.6256 
L 174.73887 287.6256 
L 174.73887 279.64224 
L 175.063849 279.64224 
L 175.063849 288.95616 
L 175.388829 288.95616 
L 175.388829 274.32 
L 175.713808 274.32 
L 175.713808 280.9728 
L 176.038788 280.9728 
L 176.038788 290.28672 
L 176.363767 290.28672 
L 176.363767 272.98944 
L 176.688747 272.98944 
L 176.688747 286.29504 
L 177.013726 286.29504 
L 177.013726 272.98944 
L 177.338706 272.98944 
L 177.338706 284.96448 
L 177.663686 284.96448 
L 177.663686 290.28672 
L 177.988665 290.28672 
L 177.988665 279.64224 
L 178.313645 279.64224 
L 178.313645 278.31168 
L 178.638624 278.31168 
L 178.638624 280.9728 
L 178.963604 280.9728 
L 178.963604 270.32832 
L 179.288583 270.32832 
L 179.288583 262.34496 
L 179.613563 262.34496 
L 179.613563 274.32 
L 179.938542 274.32 
L 179.938542 284.96448 
L 180.263522 284.96448 
L 180.263522 288.95616 
L 180.588501 288.95616 
L 180.588501 286.29504 
L 180.913481 286.29504 
L 180.913481 276.98112 
L 181.23846 276.98112 
L 181.23846 282.30336 
L 181.56344 282.30336 
L 181.56344 283.63392 
L 181.888419 283.63392 
L 181.888419 286.29504 
L 182.213399 286.29504 
L 182.213399 275.65056 
L 182.538378 275.65056 
L 182.538378 280.9728 
L 182.863358 280.9728 
L 182.863358 276.98112 
L 183.188337 276.98112 
L 183.188337 279.64224 
L 183.513317 279.64224 
L 183.513317 291.61728 
L 183.838296 291.61728 
L 183.838296 278.31168 
L 184.163276 278.31168 
L 184.163276 284.96448 
L 184.488256 284.96448 
L 184.488256 278.31168 
L 184.813235 278.31168 
L 184.813235 280.9728 
L 185.138215 280.9728 
L 185.138215 274.32 
L 185.463194 274.32 
L 185.463194 282.30336 
L 185.788174 282.30336 
L 185.788174 283.63392 
L 186.113153 283.63392 
L 186.113153 271.65888 
L 186.438133 271.65888 
L 186.438133 276.98112 
L 186.763112 276.98112 
L 186.763112 278.31168 
L 187.088092 278.31168 
L 187.088092 274.32 
L 187.413071 274.32 
L 187.413071 287.6256 
L 187.738051 287.6256 
L 187.738051 280.9728 
L 188.06303 280.9728 
L 188.06303 271.65888 
L 188.38801 271.65888 
L 188.38801 278.31168 
L 188.712989 278.31168 
L 188.712989 292.94784 
L 189.037969 292.94784 
L 189.037969 272.98944 
L 189.362948 272.98944 
L 189.362948 268.99776 
L 189.687928 268.99776 
L 189.687928 278.31168 
L 190.012907 278.31168 
L 190.012907 276.98112 
L 190.337887 276.98112 
L 190.337887 294.2784 
L 190.662867 294.2784 
L 190.662867 282.30336 
L 190.987846 282.30336 
L 190.987846 278.31168 
L 191.312826 278.31168 
L 191.312826 275.65056 
L 191.637805 275.65056 
L 191.637805 279.64224 
L 191.962785 279.64224 
L 191.962785 280.9728 
L 192.287764 280.9728 
L 192.287764 279.64224 
L 192.612744 279.64224 
L 192.612744 287.6256 
L 192.937723 287.6256 
L 192.937723 271.65888 
L 193.262703 271.65888 
L 193.262703 288.95616 
L 193.587682 288.95616 
L 193.587682 275.65056 
L 193.912662 275.65056 
L 193.912662 284.96448 
L 194.237641 284.96448 
L 194.237641 278.31168 
L 194.562621 278.31168 
L 194.562621 279.64224 
L 194.8876 279.64224 
L 194.8876 282.30336 
L 195.21258 282.30336 
L 195.21258 272.98944 
L 195.537559 272.98944 
L 195.537559 275.65056 
L 195.862539 275.65056 
L 195.862539 272.98944 
L 196.187518 272.98944 
L 196.187518 275.65056 
L 196.512498 275.65056 
L 196.512498 265.00608 
L 196.837477 265.00608 
L 196.837477 270.32832 
L 197.162457 270.32832 
L 197.162457 278.31168 
L 197.487437 278.31168 
L 197.487437 262.34496 
L 197.812416 262.34496 
L 197.812416 268.99776 
L 198.137396 268.99776 
L 198.137396 274.32 
L 198.462375 274.32 
L 198.462375 268.99776 
L 198.787355 268.99776 
L 198.787355 278.31168 
L 199.112334 278.31168 
L 199.112334 268.99776 
L 199.437314 268.99776 
L 199.437314 270.32832 
L 199.762293 270.32832 
L 199.762293 262.34496 
L 200.087273 262.34496 
L 200.087273 270.32832 
L 200.412252 270.32832 
L 200.412252 268.99776 
L 201.062211 268.99776 
L 201.062211 262.34496 
L 201.387191 262.34496 
L 201.387191 270.32832 
L 201.71217 270.32832 
L 201.71217 265.00608 
L 202.03715 265.00608 
L 202.03715 257.02272 
L 202.362129 257.02272 
L 202.362129 259.68384 
L 202.687109 259.68384 
L 202.687109 274.32 
L 203.012088 274.32 
L 203.012088 259.68384 
L 203.337068 259.68384 
L 203.337068 253.03104 
L 203.662048 253.03104 
L 203.662048 261.0144 
L 203.987027 261.0144 
L 203.987027 249.03936 
L 204.312007 249.03936 
L 204.312007 243.71712 
L 204.636986 243.71712 
L 204.636986 247.7088 
L 204.961966 247.7088 
L 204.961966 253.03104 
L 205.286945 253.03104 
L 205.286945 258.35328 
L 205.611925 258.35328 
L 205.611925 246.37824 
L 205.936904 246.37824 
L 205.936904 250.36992 
L 206.261884 250.36992 
L 206.261884 246.37824 
L 206.586863 246.37824 
L 206.586863 241.056 
L 206.911843 241.056 
L 206.911843 229.08096 
L 207.236822 229.08096 
L 207.236822 246.37824 
L 207.561802 246.37824 
L 207.561802 241.056 
L 207.886781 241.056 
L 207.886781 230.41152 
L 208.211761 230.41152 
L 208.211761 245.04768 
L 208.53674 245.04768 
L 208.53674 247.7088 
L 208.86172 247.7088 
L 208.86172 242.38656 
L 209.186699 242.38656 
L 209.186699 229.08096 
L 209.511679 229.08096 
L 209.511679 237.06432 
L 209.836658 237.06432 
L 209.836658 238.39488 
L 210.161638 238.39488 
L 210.161638 229.08096 
L 210.486618 229.08096 
L 210.486618 231.74208 
L 210.811597 231.74208 
L 210.811597 242.38656 
L 211.136577 242.38656 
L 211.136577 237.06432 
L 211.461556 237.06432 
L 211.461556 231.74208 
L 211.786536 231.74208 
L 211.786536 207.792 
L 212.111515 207.792 
L 212.111515 225.08928 
L 212.761474 225.08928 
L 212.761474 231.74208 
L 213.086454 231.74208 
L 213.086454 214.4448 
L 213.411433 214.4448 
L 213.411433 213.11424 
L 213.736413 213.11424 
L 213.736413 217.10592 
L 214.061392 217.10592 
L 214.061392 211.78368 
L 214.386372 211.78368 
L 214.386372 217.10592 
L 214.711351 217.10592 
L 214.711351 194.4864 
L 215.036331 194.4864 
L 215.036331 219.76704 
L 215.36131 219.76704 
L 215.36131 177.18912 
L 215.68629 177.18912 
L 215.68629 197.14752 
L 216.011269 197.14752 
L 216.011269 199.80864 
L 216.336249 199.80864 
L 216.336249 189.16416 
L 216.661229 189.16416 
L 216.661229 215.77536 
L 216.986208 215.77536 
L 216.986208 198.47808 
L 217.311188 198.47808 
L 217.311188 190.49472 
L 217.636167 190.49472 
L 217.636167 191.82528 
L 217.961147 191.82528 
L 217.961147 182.51136 
L 218.286126 182.51136 
L 218.286126 183.84192 
L 218.611106 183.84192 
L 218.611106 186.50304 
L 218.936085 186.50304 
L 218.936085 174.528 
L 219.261065 174.528 
L 219.261065 182.51136 
L 219.586044 182.51136 
L 219.586044 165.21408 
L 219.911024 165.21408 
L 219.911024 170.53632 
L 220.236003 170.53632 
L 220.236003 174.528 
L 220.560983 174.528 
L 220.560983 173.19744 
L 220.885962 173.19744 
L 220.885962 162.55296 
L 221.210942 162.55296 
L 221.210942 163.88352 
L 221.535921 163.88352 
L 221.535921 153.23904 
L 221.860901 153.23904 
L 221.860901 145.25568 
L 222.18588 145.25568 
L 222.18588 157.23072 
L 222.51086 157.23072 
L 222.51086 162.55296 
L 222.835839 162.55296 
L 222.835839 174.528 
L 223.160819 174.528 
L 223.160819 146.58624 
L 223.485799 146.58624 
L 223.485799 141.264 
L 223.810778 141.264 
L 223.810778 139.93344 
L 224.135758 139.93344 
L 224.135758 146.58624 
L 224.460737 146.58624 
L 224.460737 158.56128 
L 224.785717 158.56128 
L 224.785717 171.86688 
L 225.110696 171.86688 
L 225.110696 162.55296 
L 225.435676 162.55296 
L 225.435676 149.24736 
L 225.760655 149.24736 
L 225.760655 126.62784 
L 226.085635 126.62784 
L 226.085635 134.6112 
L 226.410614 134.6112 
L 226.410614 123.96672 
L 226.735594 123.96672 
L 226.735594 129.28896 
L 227.060573 129.28896 
L 227.060573 126.62784 
L 227.385553 126.62784 
L 227.385553 115.98336 
L 227.710532 115.98336 
L 227.710532 141.264 
L 228.035512 141.264 
L 228.035512 125.29728 
L 228.360491 125.29728 
L 228.360491 137.27232 
L 228.685471 137.27232 
L 228.685471 142.59456 
L 229.01045 142.59456 
L 229.01045 117.31392 
L 229.33543 117.31392 
L 229.33543 118.64448 
L 229.66041 118.64448 
L 229.66041 149.24736 
L 229.985389 149.24736 
L 229.985389 151.90848 
L 230.310369 151.90848 
L 230.310369 114.6528 
L 230.635348 114.6528 
L 230.635348 113.32224 
L 230.960328 113.32224 
L 230.960328 110.66112 
L 231.285307 110.66112 
L 231.285307 106.66944 
L 231.610287 106.66944 
L 231.610287 90.70272 
L 231.935266 90.70272 
L 231.935266 92.03328 
L 232.260246 92.03328 
L 232.260246 115.98336 
L 232.585225 115.98336 
L 232.585225 90.70272 
L 232.910205 90.70272 
L 232.910205 117.31392 
L 233.235184 117.31392 
L 233.235184 130.61952 
L 233.560164 130.61952 
L 233.560164 113.32224 
L 233.885143 113.32224 
L 233.885143 125.29728 
L 234.210123 125.29728 
L 234.210123 82.71936 
L 234.535102 82.71936 
L 234.535102 127.9584 
L 234.860082 127.9584 
L 234.860082 139.93344 
L 235.185061 139.93344 
L 235.185061 131.95008 
L 235.510041 131.95008 
L 235.510041 105.33888 
L 235.83502 105.33888 
L 235.83502 97.35552 
L 236.16 97.35552 
L 236.16 106.66944 
L 236.48498 106.66944 
L 236.48498 113.32224 
L 236.809959 113.32224 
L 236.809959 121.3056 
L 237.134939 121.3056 
L 237.134939 123.96672 
L 237.459918 123.96672 
L 237.459918 72.07488 
L 237.784898 72.07488 
L 237.784898 88.0416 
L 238.109877 88.0416 
L 238.109877 98.68608 
L 238.434857 98.68608 
L 238.434857 48.1248 
L 238.759836 48.1248 
L 238.759836 117.31392 
L 239.409795 117.31392 
L 239.409795 109.33056 
L 239.734775 109.33056 
L 239.734775 119.97504 
L 240.059754 119.97504 
L 240.059754 122.63616 
L 240.384734 122.63616 
L 240.384734 105.33888 
L 240.709713 105.33888 
L 240.709713 135.94176 
L 241.034693 135.94176 
L 241.034693 117.31392 
L 241.359672 117.31392 
L 241.359672 126.62784 
L 241.684652 126.62784 
L 241.684652 104.00832 
L 242.009631 104.00832 
L 242.009631 117.31392 
L 242.334611 117.31392 
L 242.334611 129.28896 
L 242.65959 129.28896 
L 242.65959 113.32224 
L 242.98457 113.32224 
L 242.98457 108 
L 243.30955 108 
L 243.30955 111.99168 
L 243.634529 111.99168 
L 243.634529 138.60288 
L 243.959509 138.60288 
L 243.959509 122.63616 
L 244.284488 122.63616 
L 244.284488 108 
L 244.609468 108 
L 244.609468 138.60288 
L 244.934447 138.60288 
L 244.934447 133.28064 
L 245.259427 133.28064 
L 245.259427 126.62784 
L 245.584406 126.62784 
L 245.584406 117.31392 
L 245.909386 117.31392 
L 245.909386 119.97504 
L 246.234365 119.97504 
L 246.234365 159.89184 
L 246.559345 159.89184 
L 246.559345 111.99168 
L 246.884324 111.99168 
L 246.884324 139.93344 
L 247.209304 139.93344 
L 247.209304 158.56128 
L 247.534283 158.56128 
L 247.534283 162.55296 
L 247.859263 162.55296 
L 247.859263 161.2224 
L 248.184242 161.2224 
L 248.184242 147.9168 
L 248.509222 147.9168 
L 248.509222 130.61952 
L 248.834201 130.61952 
L 248.834201 155.90016 
L 249.159181 155.90016 
L 249.159181 145.25568 
L 249.484161 145.25568 
L 249.484161 166.54464 
L 249.80914 166.54464 
L 249.80914 155.90016 
L 250.459099 155.90016 
L 250.459099 161.2224 
L 250.784079 161.2224 
L 250.784079 182.51136 
L 251.109058 182.51136 
L 251.109058 165.21408 
L 251.434038 165.21408 
L 251.434038 157.23072 
L 251.759017 157.23072 
L 251.759017 187.8336 
L 252.083997 187.8336 
L 252.083997 177.18912 
L 252.408976 177.18912 
L 252.408976 174.528 
L 252.733956 174.528 
L 252.733956 191.82528 
L 253.058935 191.82528 
L 253.058935 169.20576 
L 253.383915 169.20576 
L 253.383915 197.14752 
L 253.708894 197.14752 
L 253.708894 181.1808 
L 254.033874 181.1808 
L 254.033874 174.528 
L 254.358853 174.528 
L 254.358853 191.82528 
L 254.683833 191.82528 
L 254.683833 193.15584 
L 255.008812 193.15584 
L 255.008812 197.14752 
L 255.658771 197.14752 
L 255.658771 193.15584 
L 255.983751 193.15584 
L 255.983751 185.17248 
L 256.308731 185.17248 
L 256.308731 169.20576 
L 256.63371 169.20576 
L 256.63371 202.46976 
L 256.95869 202.46976 
L 256.95869 194.4864 
L 257.283669 194.4864 
L 257.283669 207.792 
L 257.608649 207.792 
L 257.608649 202.46976 
L 257.933628 202.46976 
L 257.933628 207.792 
L 258.258608 207.792 
L 258.258608 233.07264 
L 258.583587 233.07264 
L 258.583587 231.74208 
L 258.908567 231.74208 
L 258.908567 227.7504 
L 259.233546 227.7504 
L 259.233546 207.792 
L 259.558526 207.792 
L 259.558526 225.08928 
L 259.883505 225.08928 
L 259.883505 231.74208 
L 260.208485 231.74208 
L 260.208485 219.76704 
L 260.858444 219.76704 
L 260.858444 238.39488 
L 261.183423 238.39488 
L 261.183423 226.41984 
L 261.508403 226.41984 
L 261.508403 234.4032 
L 261.833382 234.4032 
L 261.833382 231.74208 
L 262.158362 231.74208 
L 262.158362 214.4448 
L 262.483342 214.4448 
L 262.483342 229.08096 
L 262.808321 229.08096 
L 262.808321 246.37824 
L 263.133301 246.37824 
L 263.133301 213.11424 
L 263.45828 213.11424 
L 263.45828 229.08096 
L 263.78326 229.08096 
L 263.78326 241.056 
L 264.108239 241.056 
L 264.108239 239.72544 
L 264.433219 239.72544 
L 264.433219 245.04768 
L 264.758198 245.04768 
L 264.758198 225.08928 
L 265.083178 225.08928 
L 265.083178 245.04768 
L 265.408157 245.04768 
L 265.408157 250.36992 
L 266.058116 250.36992 
L 266.058116 246.37824 
L 266.383096 246.37824 
L 266.383096 242.38656 
L 266.708075 242.38656 
L 266.708075 259.68384 
L 267.033055 259.68384 
L 267.033055 245.04768 
L 267.358034 245.04768 
L 267.358034 250.36992 
L 267.683014 250.36992 
L 267.683014 255.69216 
L 268.007993 255.69216 
L 268.007993 257.02272 
L 268.332973 257.02272 
L 268.332973 255.69216 
L 268.657952 255.69216 
L 268.657952 250.36992 
L 268.982932 250.36992 
L 268.982932 262.34496 
L 269.307912 262.34496 
L 269.307912 270.32832 
L 269.632891 270.32832 
L 269.632891 259.68384 
L 269.957871 259.68384 
L 269.957871 261.0144 
L 270.28285 261.0144 
L 270.28285 270.32832 
L 270.60783 270.32832 
L 270.60783 261.0144 
L 270.932809 261.0144 
L 270.932809 268.99776 
L 271.257789 268.99776 
L 271.257789 279.64224 
L 271.582768 279.64224 
L 271.582768 270.32832 
L 271.907748 270.32832 
L 271.907748 266.33664 
L 272.232727 266.33664 
L 272.232727 272.98944 
L 272.557707 272.98944 
L 272.557707 266.33664 
L 272.882686 266.33664 
L 272.882686 265.00608 
L 273.207666 265.00608 
L 273.207666 268.99776 
L 273.532645 268.99776 
L 273.532645 263.67552 
L 273.857625 263.67552 
L 273.857625 265.00608 
L 274.182604 265.00608 
L 274.182604 267.6672 
L 274.507584 267.6672 
L 274.507584 275.65056 
L 274.832563 275.65056 
L 274.832563 271.65888 
L 275.157543 271.65888 
L 275.157543 280.9728 
L 275.482523 280.9728 
L 275.482523 282.30336 
L 275.807502 282.30336 
L 275.807502 279.64224 
L 276.132482 279.64224 
L 276.132482 259.68384 
L 276.457461 259.68384 
L 276.457461 279.64224 
L 276.782441 279.64224 
L 276.782441 271.65888 
L 277.10742 271.65888 
L 277.10742 263.67552 
L 277.4324 263.67552 
L 277.4324 272.98944 
L 277.757379 272.98944 
L 277.757379 282.30336 
L 278.082359 282.30336 
L 278.082359 272.98944 
L 278.407338 272.98944 
L 278.407338 283.63392 
L 278.732318 283.63392 
L 278.732318 278.31168 
L 279.057297 278.31168 
L 279.057297 272.98944 
L 279.382277 272.98944 
L 279.382277 268.99776 
L 279.707256 268.99776 
L 279.707256 275.65056 
L 280.032236 275.65056 
L 280.032236 268.99776 
L 280.357215 268.99776 
L 280.357215 282.30336 
L 280.682195 282.30336 
L 280.682195 276.98112 
L 281.007174 276.98112 
L 281.007174 280.9728 
L 281.332154 280.9728 
L 281.332154 282.30336 
L 281.657133 282.30336 
L 281.657133 268.99776 
L 281.982113 268.99776 
L 281.982113 278.31168 
L 282.307093 278.31168 
L 282.307093 270.32832 
L 282.632072 270.32832 
L 282.632072 271.65888 
L 282.957052 271.65888 
L 282.957052 282.30336 
L 283.282031 282.30336 
L 283.282031 280.9728 
L 283.607011 280.9728 
L 283.607011 282.30336 
L 283.93199 282.30336 
L 283.93199 286.29504 
L 284.25697 286.29504 
L 284.25697 280.9728 
L 284.581949 280.9728 
L 284.581949 272.98944 
L 284.906929 272.98944 
L 284.906929 266.33664 
L 285.231908 266.33664 
L 285.231908 276.98112 
L 285.556888 276.98112 
L 285.556888 278.31168 
L 285.881867 278.31168 
L 285.881867 279.64224 
L 286.206847 279.64224 
L 286.206847 288.95616 
L 286.531826 288.95616 
L 286.531826 278.31168 
L 286.856806 278.31168 
L 286.856806 283.63392 
L 287.181785 283.63392 
L 287.181785 287.6256 
L 287.506765 287.6256 
L 287.506765 284.96448 
L 287.831744 284.96448 
L 287.831744 278.31168 
L 288.156724 278.31168 
L 288.156724 272.98944 
L 288.481704 272.98944 
L 288.481704 271.65888 
L 288.806683 271.65888 
L 288.806683 274.32 
L 289.131663 274.32 
L 289.131663 280.9728 
L 289.456642 280.9728 
L 289.456642 283.63392 
L 289.781622 283.63392 
L 289.781622 278.31168 
L 290.106601 278.31168 
L 290.106601 287.6256 
L 290.431581 287.6256 
L 290.431581 270.32832 
L 290.75656 270.32832 
L 290.75656 288.95616 
L 291.406519 288.95616 
L 291.406519 275.65056 
L 292.056478 275.65056 
L 292.056478 284.96448 
L 292.381458 284.96448 
L 292.381458 280.9728 
L 292.706437 280.9728 
L 292.706437 275.65056 
L 293.031417 275.65056 
L 293.031417 282.30336 
L 293.356396 282.30336 
L 293.356396 268.99776 
L 293.681376 268.99776 
L 293.681376 282.30336 
L 294.006355 282.30336 
L 294.006355 276.98112 
L 294.331335 276.98112 
L 294.331335 279.64224 
L 294.656314 279.64224 
L 294.656314 288.95616 
L 294.981294 288.95616 
L 294.981294 280.9728 
L 295.306274 280.9728 
L 295.306274 276.98112 
L 295.956233 276.98112 
L 295.956233 286.29504 
L 296.281212 286.29504 
L 296.281212 265.00608 
L 296.606192 265.00608 
L 296.606192 275.65056 
L 296.931171 275.65056 
L 296.931171 280.9728 
L 297.256151 280.9728 
L 297.256151 276.98112 
L 297.58113 276.98112 
L 297.58113 278.31168 
L 297.90611 278.31168 
L 297.90611 282.30336 
L 298.231089 282.30336 
L 298.231089 280.9728 
L 298.556069 280.9728 
L 298.556069 278.31168 
L 298.881048 278.31168 
L 298.881048 287.6256 
L 299.206028 287.6256 
L 299.206028 282.30336 
L 299.531007 282.30336 
L 299.531007 280.9728 
L 299.855987 280.9728 
L 299.855987 286.29504 
L 300.180966 286.29504 
L 300.180966 280.9728 
L 300.505946 280.9728 
L 300.505946 282.30336 
L 300.830925 282.30336 
L 300.830925 265.00608 
L 301.155905 265.00608 
L 301.155905 274.32 
L 301.480885 274.32 
L 301.480885 286.29504 
L 301.805864 286.29504 
L 301.805864 276.98112 
L 302.130844 276.98112 
L 302.130844 279.64224 
L 302.455823 279.64224 
L 302.455823 287.6256 
L 302.780803 287.6256 
L 302.780803 278.31168 
L 303.105782 278.31168 
L 303.105782 258.35328 
L 303.430762 258.35328 
L 303.430762 286.29504 
L 303.755741 286.29504 
L 303.755741 278.31168 
L 304.080721 278.31168 
L 304.080721 286.29504 
L 304.4057 286.29504 
L 304.4057 288.95616 
L 304.73068 288.95616 
L 304.73068 287.6256 
L 305.055659 287.6256 
L 305.055659 286.29504 
L 305.380639 286.29504 
L 305.380639 274.32 
L 305.705618 274.32 
L 305.705618 271.65888 
L 306.030598 271.65888 
L 306.030598 278.31168 
L 306.355577 278.31168 
L 306.355577 282.30336 
L 306.680557 282.30336 
L 306.680557 275.65056 
L 307.005536 275.65056 
L 307.005536 286.29504 
L 307.330516 286.29504 
L 307.330516 288.95616 
L 307.655495 288.95616 
L 307.655495 283.63392 
L 307.980475 283.63392 
L 307.980475 286.29504 
L 308.305455 286.29504 
L 308.305455 288.95616 
L 308.630434 288.95616 
L 308.630434 270.32832 
L 308.955414 270.32832 
L 308.955414 275.65056 
L 309.280393 275.65056 
L 309.280393 287.6256 
L 309.605373 287.6256 
L 309.605373 279.64224 
L 309.930352 279.64224 
L 309.930352 283.63392 
L 310.255332 283.63392 
L 310.255332 291.61728 
L 310.580311 291.61728 
L 310.580311 288.95616 
L 310.905291 288.95616 
L 310.905291 290.28672 
L 311.23027 290.28672 
L 311.23027 278.31168 
L 311.55525 278.31168 
L 311.55525 279.64224 
L 311.880229 279.64224 
L 311.880229 278.31168 
L 312.205209 278.31168 
L 312.205209 283.63392 
L 312.530188 283.63392 
L 312.530188 291.61728 
L 312.855168 291.61728 
L 312.855168 282.30336 
L 313.180147 282.30336 
L 313.180147 286.29504 
L 313.505127 286.29504 
L 313.505127 280.9728 
L 313.830106 280.9728 
L 313.830106 276.98112 
L 314.155086 276.98112 
L 314.155086 284.96448 
L 314.805045 284.96448 
L 314.805045 279.64224 
L 315.130025 279.64224 
L 315.130025 282.30336 
L 315.455004 282.30336 
L 315.455004 276.98112 
L 315.779984 276.98112 
L 315.779984 283.63392 
L 316.104963 283.63392 
L 316.104963 280.9728 
L 316.429943 280.9728 
L 316.429943 287.6256 
L 316.754922 287.6256 
L 316.754922 280.9728 
L 317.079902 280.9728 
L 317.079902 267.6672 
L 317.404881 267.6672 
L 317.404881 266.33664 
L 317.729861 266.33664 
L 317.729861 282.30336 
L 318.05484 282.30336 
L 318.05484 275.65056 
L 318.37982 275.65056 
L 318.37982 286.29504 
L 318.704799 286.29504 
L 318.704799 280.9728 
L 319.029779 280.9728 
L 319.029779 283.63392 
L 319.354758 283.63392 
L 319.354758 280.9728 
L 319.679738 280.9728 
L 319.679738 283.63392 
L 320.004717 283.63392 
L 320.004717 286.29504 
L 320.329697 286.29504 
L 320.329697 279.64224 
L 321.304636 279.64224 
L 321.304636 283.63392 
L 321.954595 283.63392 
L 321.954595 286.29504 
L 322.279574 286.29504 
L 322.279574 276.98112 
L 322.604554 276.98112 
L 322.604554 288.95616 
L 322.929533 288.95616 
L 322.929533 275.65056 
L 323.254513 275.65056 
L 323.254513 279.64224 
L 323.579492 279.64224 
L 323.579492 274.32 
L 323.904472 274.32 
L 323.904472 272.98944 
L 324.229451 272.98944 
L 324.229451 266.33664 
L 324.554431 266.33664 
L 324.554431 271.65888 
L 324.87941 271.65888 
L 324.87941 280.9728 
L 325.20439 280.9728 
L 325.20439 272.98944 
L 325.529369 272.98944 
L 325.529369 276.98112 
L 325.854349 276.98112 
L 325.854349 282.30336 
L 326.179328 282.30336 
L 326.179328 284.96448 
L 326.504308 284.96448 
L 326.504308 276.98112 
L 326.829287 276.98112 
L 326.829287 279.64224 
L 327.154267 279.64224 
L 327.154267 278.31168 
L 327.479247 278.31168 
L 327.479247 276.98112 
L 328.129206 276.98112 
L 328.129206 284.96448 
L 328.454185 284.96448 
L 328.454185 291.61728 
L 328.779165 291.61728 
L 328.779165 276.98112 
L 329.104144 276.98112 
L 329.104144 271.65888 
L 329.429124 271.65888 
L 329.429124 292.94784 
L 329.754103 292.94784 
L 329.754103 268.99776 
L 330.079083 268.99776 
L 330.079083 278.31168 
L 330.404062 278.31168 
L 330.404062 279.64224 
L 330.729042 279.64224 
L 330.729042 283.63392 
L 331.054021 283.63392 
L 331.054021 284.96448 
L 331.379001 284.96448 
L 331.379001 270.32832 
L 331.70398 270.32832 
L 331.70398 282.30336 
L 332.02896 282.30336 
L 332.02896 286.29504 
L 332.353939 286.29504 
L 332.353939 290.28672 
L 332.678919 290.28672 
L 332.678919 276.98112 
L 333.003898 276.98112 
L 333.003898 280.9728 
L 333.328878 280.9728 
L 333.328878 282.30336 
L 333.653857 282.30336 
L 333.653857 279.64224 
L 333.978837 279.64224 
L 333.978837 282.30336 
L 334.303817 282.30336 
L 334.303817 280.9728 
L 334.628796 280.9728 
L 334.628796 284.96448 
L 334.953776 284.96448 
L 334.953776 282.30336 
L 335.603735 282.30336 
L 335.603735 287.6256 
L 335.928714 287.6256 
L 335.928714 278.31168 
L 336.253694 278.31168 
L 336.253694 272.98944 
L 336.578673 272.98944 
L 336.578673 284.96448 
L 336.903653 284.96448 
L 336.903653 283.63392 
L 337.228632 283.63392 
L 337.228632 272.98944 
L 337.553612 272.98944 
L 337.553612 280.9728 
L 337.878591 280.9728 
L 337.878591 290.28672 
L 338.203571 290.28672 
L 338.203571 278.31168 
L 338.52855 278.31168 
L 338.52855 284.96448 
L 338.85353 284.96448 
L 338.85353 279.64224 
L 339.178509 279.64224 
L 339.178509 283.63392 
L 339.503489 283.63392 
L 339.503489 290.28672 
L 339.828468 290.28672 
L 339.828468 292.94784 
L 340.153448 292.94784 
L 340.153448 274.32 
L 340.478428 274.32 
L 340.478428 284.96448 
L 340.803407 284.96448 
L 340.803407 276.98112 
L 341.128387 276.98112 
L 341.128387 278.31168 
L 341.453366 278.31168 
L 341.453366 268.99776 
L 341.778346 268.99776 
L 341.778346 280.9728 
L 342.103325 280.9728 
L 342.103325 279.64224 
L 342.428305 279.64224 
L 342.428305 276.98112 
L 342.753284 276.98112 
L 342.753284 279.64224 
L 343.078264 279.64224 
L 343.078264 280.9728 
L 343.403243 280.9728 
L 343.403243 278.31168 
L 343.728223 278.31168 
L 343.728223 276.98112 
L 344.053202 276.98112 
L 344.053202 291.61728 
L 344.378182 291.61728 
L 344.378182 280.9728 
L 344.703161 280.9728 
L 344.703161 278.31168 
L 345.028141 278.31168 
L 345.028141 272.98944 
L 345.35312 272.98944 
L 345.35312 280.9728 
L 345.6781 280.9728 
L 345.6781 283.63392 
L 346.003079 283.63392 
L 346.003079 286.29504 
L 346.328059 286.29504 
L 346.328059 279.64224 
L 346.653038 279.64224 
L 346.653038 284.96448 
L 346.978018 284.96448 
L 346.978018 278.31168 
L 347.302998 278.31168 
L 347.302998 279.64224 
L 347.627977 279.64224 
L 347.627977 290.28672 
L 347.952957 290.28672 
L 347.952957 294.2784 
L 348.277936 294.2784 
L 348.277936 282.30336 
L 348.602916 282.30336 
L 348.602916 283.63392 
L 348.927895 283.63392 
L 348.927895 266.33664 
L 349.252875 266.33664 
L 349.252875 279.64224 
L 349.577854 279.64224 
L 349.577854 282.30336 
L 349.902834 282.30336 
L 349.902834 272.98944 
L 350.227813 272.98944 
L 350.227813 274.32 
L 350.552793 274.32 
L 350.552793 287.6256 
L 350.877772 287.6256 
L 350.877772 272.98944 
L 351.527731 272.98944 
L 351.527731 271.65888 
L 351.852711 271.65888 
L 351.852711 282.30336 
L 352.50267 282.30336 
L 352.50267 271.65888 
L 352.827649 271.65888 
L 352.827649 283.63392 
L 353.152629 283.63392 
L 353.152629 280.9728 
L 353.477609 280.9728 
L 353.477609 286.29504 
L 353.802588 286.29504 
L 353.802588 278.31168 
L 354.127568 278.31168 
L 354.127568 282.30336 
L 354.452547 282.30336 
L 354.452547 275.65056 
L 354.777527 275.65056 
L 354.777527 282.30336 
L 355.102506 282.30336 
L 355.102506 283.63392 
L 355.427486 283.63392 
L 355.427486 275.65056 
L 355.752465 275.65056 
L 355.752465 283.63392 
L 356.077445 283.63392 
L 356.077445 278.31168 
L 356.402424 278.31168 
L 356.402424 284.96448 
L 356.727404 284.96448 
L 356.727404 279.64224 
L 357.052383 279.64224 
L 357.052383 286.29504 
L 357.377363 286.29504 
L 357.377363 284.96448 
L 357.702342 284.96448 
L 357.702342 275.65056 
L 358.027322 275.65056 
L 358.027322 283.63392 
L 358.352301 283.63392 
L 358.352301 279.64224 
L 358.677281 279.64224 
L 358.677281 288.95616 
L 359.00226 288.95616 
L 359.00226 284.96448 
L 359.32724 284.96448 
L 359.32724 274.32 
L 359.652219 274.32 
L 359.652219 284.96448 
L 359.977199 284.96448 
L 359.977199 278.31168 
L 360.302179 278.31168 
L 360.302179 286.29504 
L 360.627158 286.29504 
L 360.627158 280.9728 
L 361.277117 280.9728 
L 361.277117 284.96448 
L 361.602097 284.96448 
L 361.602097 288.95616 
L 361.927076 288.95616 
L 361.927076 280.9728 
L 362.252056 280.9728 
L 362.252056 270.32832 
L 362.577035 270.32832 
L 362.577035 279.64224 
L 362.902015 279.64224 
L 362.902015 291.61728 
L 363.226994 291.61728 
L 363.226994 275.65056 
L 363.551974 275.65056 
L 363.551974 276.98112 
L 363.876953 276.98112 
L 363.876953 283.63392 
L 364.201933 283.63392 
L 364.201933 295.60896 
L 364.526912 295.60896 
L 364.526912 283.63392 
L 364.851892 283.63392 
L 364.851892 275.65056 
L 365.176871 275.65056 
L 365.176871 271.65888 
L 365.501851 271.65888 
L 365.501851 291.61728 
L 365.82683 291.61728 
L 365.82683 288.95616 
L 366.15181 288.95616 
L 366.15181 290.28672 
L 366.47679 290.28672 
L 366.47679 282.30336 
L 366.801769 282.30336 
L 366.801769 274.32 
L 367.451728 274.32 
L 367.451728 290.28672 
L 367.776708 290.28672 
L 367.776708 288.95616 
L 368.101687 288.95616 
L 368.101687 280.9728 
L 368.426667 280.9728 
L 368.426667 284.96448 
L 368.751646 284.96448 
L 368.751646 283.63392 
L 369.076626 283.63392 
L 369.076626 275.65056 
L 369.401605 275.65056 
L 369.401605 282.30336 
L 369.726585 282.30336 
L 369.726585 286.29504 
L 370.051564 286.29504 
L 370.051564 280.9728 
L 370.376544 280.9728 
L 370.376544 279.64224 
L 370.701523 279.64224 
L 370.701523 288.95616 
L 371.026503 288.95616 
L 371.026503 271.65888 
L 371.351482 271.65888 
L 371.351482 283.63392 
L 371.676462 283.63392 
L 371.676462 287.6256 
L 372.001441 287.6256 
L 372.001441 288.95616 
L 372.326421 288.95616 
L 372.326421 282.30336 
L 372.6514 282.30336 
L 372.6514 291.61728 
L 372.97638 291.61728 
L 372.97638 288.95616 
L 373.30136 288.95616 
L 373.30136 278.31168 
L 373.626339 278.31168 
L 373.626339 280.9728 
L 373.951319 280.9728 
L 373.951319 279.64224 
L 374.601278 279.64224 
L 374.601278 283.63392 
L 374.926257 283.63392 
L 374.926257 276.98112 
L 375.251237 276.98112 
L 375.251237 283.63392 
L 375.576216 283.63392 
L 375.576216 270.32832 
L 375.901196 270.32832 
L 375.901196 295.60896 
L 376.226175 295.60896 
L 376.226175 286.29504 
L 376.551155 286.29504 
L 376.551155 282.30336 
L 376.876134 282.30336 
L 376.876134 275.65056 
L 377.201114 275.65056 
L 377.201114 283.63392 
L 378.176052 283.63392 
L 378.176052 271.65888 
L 378.501032 271.65888 
L 378.501032 282.30336 
L 379.150991 282.30336 
L 379.150991 286.29504 
L 379.475971 286.29504 
L 379.475971 274.32 
L 379.80095 274.32 
L 379.80095 286.29504 
L 380.12593 286.29504 
L 380.12593 279.64224 
L 380.450909 279.64224 
L 380.450909 280.9728 
L 380.775889 280.9728 
L 380.775889 276.98112 
L 381.425848 276.98112 
L 381.425848 286.29504 
L 381.750827 286.29504 
L 381.750827 280.9728 
L 382.075807 280.9728 
L 382.075807 282.30336 
L 382.400786 282.30336 
L 382.400786 278.31168 
L 382.725766 278.31168 
L 382.725766 280.9728 
L 383.050745 280.9728 
L 383.050745 282.30336 
L 383.375725 282.30336 
L 383.375725 290.28672 
L 383.700704 290.28672 
L 383.700704 286.29504 
L 384.025684 286.29504 
L 384.025684 275.65056 
L 384.350663 275.65056 
L 384.350663 291.61728 
L 384.675643 291.61728 
L 384.675643 280.9728 
L 385.000622 280.9728 
L 385.000622 278.31168 
L 385.325602 278.31168 
L 385.325602 280.9728 
L 385.650581 280.9728 
L 385.650581 278.31168 
L 385.975561 278.31168 
L 385.975561 283.63392 
L 386.300541 283.63392 
L 386.300541 290.28672 
L 386.62552 290.28672 
L 386.62552 279.64224 
L 386.9505 279.64224 
L 386.9505 282.30336 
L 387.275479 282.30336 
L 387.275479 274.32 
L 387.600459 274.32 
L 387.600459 272.98944 
L 387.925438 272.98944 
L 387.925438 286.29504 
L 388.250418 286.29504 
L 388.250418 283.63392 
L 388.575397 283.63392 
L 388.575397 291.61728 
L 388.900377 291.61728 
L 388.900377 287.6256 
L 389.550336 287.6256 
L 389.550336 282.30336 
L 389.875315 282.30336 
L 389.875315 288.95616 
L 390.200295 288.95616 
L 390.200295 280.9728 
L 390.525274 280.9728 
L 390.525274 286.29504 
L 390.850254 286.29504 
L 390.850254 279.64224 
L 391.175233 279.64224 
L 391.175233 283.63392 
L 391.500213 283.63392 
L 391.500213 291.61728 
L 391.825192 291.61728 
L 391.825192 284.96448 
L 392.150172 284.96448 
L 392.150172 279.64224 
L 392.475152 279.64224 
L 392.475152 276.98112 
L 392.800131 276.98112 
L 392.800131 278.31168 
L 393.125111 278.31168 
L 393.125111 288.95616 
L 393.77507 288.95616 
L 393.77507 283.63392 
L 394.100049 283.63392 
L 394.100049 278.31168 
L 394.425029 278.31168 
L 394.425029 282.30336 
L 394.750008 282.30336 
L 394.750008 287.6256 
L 395.074988 287.6256 
L 395.074988 275.65056 
L 395.399967 275.65056 
L 395.399967 282.30336 
L 395.724947 282.30336 
L 395.724947 279.64224 
L 396.049926 279.64224 
L 396.049926 276.98112 
L 396.374906 276.98112 
L 396.374906 278.31168 
L 396.699885 278.31168 
L 396.699885 279.64224 
L 397.024865 279.64224 
L 397.024865 283.63392 
L 397.349844 283.63392 
L 397.349844 282.30336 
L 397.674824 282.30336 
L 397.674824 280.9728 
L 397.999803 280.9728 
L 397.999803 276.98112 
L 398.324783 276.98112 
L 398.324783 290.28672 
L 398.487273 290.28672 
L 398.487273 290.28672 
" style="fill:none;stroke:#000000;stroke-linecap:square;stroke-width:1.5;"/>
   </g>
   <g id="line2d_18">
    <path clip-path="url(#p16b789891c)" d="M 73.832727 281.026537 
L 173.601441 280.923138 
L 178.801114 280.689894 
L 182.375889 280.312201 
L 184.975725 279.828788 
L 187.250581 279.182879 
L 189.200459 278.399404 
L 190.825356 277.536033 
L 192.450254 276.434928 
L 194.075152 275.04638 
L 195.700049 273.315175 
L 197.324947 271.18143 
L 198.949844 268.581946 
L 200.574742 265.452125 
L 202.19964 261.728484 
L 203.824537 257.351745 
L 205.449435 252.270456 
L 207.074333 246.44502 
L 208.69923 239.851953 
L 210.649107 230.92432 
L 212.598984 220.929831 
L 214.873841 208.058792 
L 217.798657 190.030337 
L 225.273186 142.874874 
L 227.223063 132.229308 
L 228.847961 124.460209 
L 230.147879 119.120075 
L 231.447797 114.662544 
L 232.422735 111.948402 
L 233.397674 109.805523 
L 234.372613 108.256599 
L 235.022572 107.562378 
L 235.672531 107.142921 
L 236.32249 107.000229 
L 236.972449 107.134985 
L 237.622408 107.546545 
L 238.272367 108.232943 
L 238.922326 109.190909 
L 239.897265 111.126752 
L 240.872203 113.642536 
L 241.847142 116.711783 
L 243.14706 121.609139 
L 244.446978 127.344112 
L 246.071876 135.534721 
L 248.021753 146.570193 
L 250.621589 162.665814 
L 258.096118 209.860243 
L 260.370975 222.567549 
L 262.320852 232.399475 
L 264.270729 241.154284 
L 266.220606 248.798822 
L 267.845504 254.331345 
L 269.470401 259.133429 
L 271.095299 263.249777 
L 272.720197 266.735338 
L 274.345094 269.651429 
L 275.969992 272.062302 
L 277.594889 274.032277 
L 279.219787 275.62346 
L 280.844685 276.894051 
L 282.469582 277.8972 
L 284.419459 278.814323 
L 286.369337 279.484951 
L 288.644193 280.033223 
L 291.569009 280.478008 
L 295.143784 280.772466 
L 300.343456 280.950438 
L 310.417821 281.021031 
L 389.387846 281.026537 
L 398.487273 281.026537 
L 398.487273 281.026537 
" style="fill:none;stroke:#ff0000;stroke-linecap:square;stroke-width:1.5;"/>
   </g>
   <g id="patch_3">
    <path d="M 57.6 307.584 
L 57.6 41.472 
" style="fill:none;stroke:#000000;stroke-linecap:square;stroke-linejoin:miter;stroke-width:0.8;"/>
   </g>
   <g id="patch_4">
    <path d="M 414.72 307.584 
L 414.72 41.472 
" style="fill:none;stroke:#000000;stroke-linecap:square;stroke-linejoin:miter;stroke-width:0.8;"/>
   </g>
   <g id="patch_5">
    <path d="M 57.6 307.584 
L 414.72 307.584 
" style="fill:none;stroke:#000000;stroke-linecap:square;stroke-linejoin:miter;stroke-width:0.8;"/>
   </g>
   <g id="patch_6">
    <path d="M 57.6 41.472 
L 414.72 41.472 
" style="fill:none;stroke:#000000;stroke-linecap:square;stroke-linejoin:miter;stroke-width:0.8;"/>
   </g>
   <g id="text_17">
    <!-- b = 19.960 ($\pm$ 1.08 %) -->
    <defs>
     <path d="M 48.6875 27.296875 
Q 48.6875 37.203125 44.609375 42.84375 
Q 40.53125 48.484375 33.40625 48.484375 
Q 26.265625 48.484375 22.1875 42.84375 
Q 18.109375 37.203125 18.109375 27.296875 
Q 18.109375 17.390625 22.1875 11.75 
Q 26.265625 6.109375 33.40625 6.109375 
Q 40.53125 6.109375 44.609375 11.75 
Q 48.6875 17.390625 48.6875 27.296875 
z
M 18.109375 46.390625 
Q 20.953125 51.265625 25.265625 53.625 
Q 29.59375 56 35.59375 56 
Q 45.5625 56 51.78125 48.09375 
Q 58.015625 40.1875 58.015625 27.296875 
Q 58.015625 14.40625 51.78125 6.484375 
Q 45.5625 -1.421875 35.59375 -1.421875 
Q 29.59375 -1.421875 25.265625 0.953125 
Q 20.953125 3.328125 18.109375 8.203125 
L 18.109375 0 
L 9.078125 0 
L 9.078125 75.984375 
L 18.109375 75.984375 
z
" id="DejaVuSans-62"/>
     <path id="DejaVuSans-20"/>
     <path d="M 10.59375 45.40625 
L 73.1875 45.40625 
L 73.1875 37.203125 
L 10.59375 37.203125 
z
M 10.59375 25.484375 
L 73.1875 25.484375 
L 73.1875 17.1875 
L 10.59375 17.1875 
z
" id="DejaVuSans-3d"/>
     <path d="M 10.984375 1.515625 
L 10.984375 10.5 
Q 14.703125 8.734375 18.5 7.8125 
Q 22.3125 6.890625 25.984375 6.890625 
Q 35.75 6.890625 40.890625 13.453125 
Q 46.046875 20.015625 46.78125 33.40625 
Q 43.953125 29.203125 39.59375 26.953125 
Q 35.25 24.703125 29.984375 24.703125 
Q 19.046875 24.703125 12.671875 31.3125 
Q 6.296875 37.9375 6.296875 49.421875 
Q 6.296875 60.640625 12.9375 67.421875 
Q 19.578125 74.21875 30.609375 74.21875 
Q 43.265625 74.21875 49.921875 64.515625 
Q 56.59375 54.828125 56.59375 36.375 
Q 56.59375 19.140625 48.40625 8.859375 
Q 40.234375 -1.421875 26.421875 -1.421875 
Q 22.703125 -1.421875 18.890625 -0.6875 
Q 15.09375 0.046875 10.984375 1.515625 
z
M 30.609375 32.421875 
Q 37.25 32.421875 41.125 36.953125 
Q 45.015625 41.5 45.015625 49.421875 
Q 45.015625 57.28125 41.125 61.84375 
Q 37.25 66.40625 30.609375 66.40625 
Q 23.96875 66.40625 20.09375 61.84375 
Q 16.21875 57.28125 16.21875 49.421875 
Q 16.21875 41.5 20.09375 36.953125 
Q 23.96875 32.421875 30.609375 32.421875 
z
" id="DejaVuSans-39"/>
     <path d="M 10.6875 12.40625 
L 21 12.40625 
L 21 0 
L 10.6875 0 
z
" id="DejaVuSans-2e"/>
     <path d="M 31 75.875 
Q 24.46875 64.65625 21.28125 53.65625 
Q 18.109375 42.671875 18.109375 31.390625 
Q 18.109375 20.125 21.3125 9.0625 
Q 24.515625 -2 31 -13.1875 
L 23.1875 -13.1875 
Q 15.875 -1.703125 12.234375 9.375 
Q 8.59375 20.453125 8.59375 31.390625 
Q 8.59375 42.28125 12.203125 53.3125 
Q 15.828125 64.359375 23.1875 75.875 
z
" id="DejaVuSans-28"/>
     <path d="M 46 62.703125 
L 46 43.796875 
L 73.1875 43.796875 
L 73.1875 35.5 
L 46 35.5 
L 46 16.609375 
L 37.796875 16.609375 
L 37.796875 35.5 
L 10.59375 35.5 
L 10.59375 43.796875 
L 37.796875 43.796875 
L 37.796875 62.703125 
z
M 10.59375 8.296875 
L 73.1875 8.296875 
L 73.1875 0 
L 10.59375 0 
z
" id="DejaVuSans-b1"/>
     <path d="M 31.78125 34.625 
Q 24.75 34.625 20.71875 30.859375 
Q 16.703125 27.09375 16.703125 20.515625 
Q 16.703125 13.921875 20.71875 10.15625 
Q 24.75 6.390625 31.78125 6.390625 
Q 38.8125 6.390625 42.859375 10.171875 
Q 46.921875 13.96875 46.921875 20.515625 
Q 46.921875 27.09375 42.890625 30.859375 
Q 38.875 34.625 31.78125 34.625 
z
M 21.921875 38.8125 
Q 15.578125 40.375 12.03125 44.71875 
Q 8.5 49.078125 8.5 55.328125 
Q 8.5 64.0625 14.71875 69.140625 
Q 20.953125 74.21875 31.78125 74.21875 
Q 42.671875 74.21875 48.875 69.140625 
Q 55.078125 64.0625 55.078125 55.328125 
Q 55.078125 49.078125 51.53125 44.71875 
Q 48 40.375 41.703125 38.8125 
Q 48.828125 37.15625 52.796875 32.3125 
Q 56.78125 27.484375 56.78125 20.515625 
Q 56.78125 9.90625 50.3125 4.234375 
Q 43.84375 -1.421875 31.78125 -1.421875 
Q 19.734375 -1.421875 13.25 4.234375 
Q 6.78125 9.90625 6.78125 20.515625 
Q 6.78125 27.484375 10.78125 32.3125 
Q 14.796875 37.15625 21.921875 38.8125 
z
M 18.3125 54.390625 
Q 18.3125 48.734375 21.84375 45.5625 
Q 25.390625 42.390625 31.78125 42.390625 
Q 38.140625 42.390625 41.71875 45.5625 
Q 45.3125 48.734375 45.3125 54.390625 
Q 45.3125 60.0625 41.71875 63.234375 
Q 38.140625 66.40625 31.78125 66.40625 
Q 25.390625 66.40625 21.84375 63.234375 
Q 18.3125 60.0625 18.3125 54.390625 
z
" id="DejaVuSans-38"/>
     <path d="M 72.703125 32.078125 
Q 68.453125 32.078125 66.03125 28.46875 
Q 63.625 24.859375 63.625 18.40625 
Q 63.625 12.0625 66.03125 8.421875 
Q 68.453125 4.78125 72.703125 4.78125 
Q 76.859375 4.78125 79.265625 8.421875 
Q 81.6875 12.0625 81.6875 18.40625 
Q 81.6875 24.8125 79.265625 28.4375 
Q 76.859375 32.078125 72.703125 32.078125 
z
M 72.703125 38.28125 
Q 80.421875 38.28125 84.953125 32.90625 
Q 89.5 27.546875 89.5 18.40625 
Q 89.5 9.28125 84.9375 3.921875 
Q 80.375 -1.421875 72.703125 -1.421875 
Q 64.890625 -1.421875 60.34375 3.921875 
Q 55.8125 9.28125 55.8125 18.40625 
Q 55.8125 27.59375 60.375 32.9375 
Q 64.9375 38.28125 72.703125 38.28125 
z
M 22.3125 68.015625 
Q 18.109375 68.015625 15.6875 64.375 
Q 13.28125 60.75 13.28125 54.390625 
Q 13.28125 47.953125 15.671875 44.328125 
Q 18.0625 40.71875 22.3125 40.71875 
Q 26.5625 40.71875 28.96875 44.328125 
Q 31.390625 47.953125 31.390625 54.390625 
Q 31.390625 60.6875 28.953125 64.34375 
Q 26.515625 68.015625 22.3125 68.015625 
z
M 66.40625 74.21875 
L 74.21875 74.21875 
L 28.609375 -1.421875 
L 20.796875 -1.421875 
z
M 22.3125 74.21875 
Q 30.03125 74.21875 34.609375 68.875 
Q 39.203125 63.53125 39.203125 54.390625 
Q 39.203125 45.171875 34.640625 39.84375 
Q 30.078125 34.515625 22.3125 34.515625 
Q 14.546875 34.515625 10.03125 39.859375 
Q 5.515625 45.21875 5.515625 54.390625 
Q 5.515625 63.484375 10.046875 68.84375 
Q 14.59375 74.21875 22.3125 74.21875 
z
" id="DejaVuSans-25"/>
     <path d="M 8.015625 75.875 
L 15.828125 75.875 
Q 23.140625 64.359375 26.78125 53.3125 
Q 30.421875 42.28125 30.421875 31.390625 
Q 30.421875 20.453125 26.78125 9.375 
Q 23.140625 -1.703125 15.828125 -13.1875 
L 8.015625 -13.1875 
Q 14.5 -2 17.703125 9.0625 
Q 20.90625 20.125 20.90625 31.390625 
Q 20.90625 42.671875 17.703125 53.65625 
Q 14.5 64.65625 8.015625 75.875 
z
" id="DejaVuSans-29"/>
    </defs>
    <g transform="translate(75.456 63.895725)scale(0.12 -0.12)">
     <use transform="translate(0 0.015625)" xlink:href="#DejaVuSans-62"/>
     <use transform="translate(63.476562 0.015625)" xlink:href="#DejaVuSans-20"/>
     <use transform="translate(95.263672 0.015625)" xlink:href="#DejaVuSans-3d"/>
     <use transform="translate(179.052734 0.015625)" xlink:href="#DejaVuSans-20"/>
     <use transform="translate(210.839844 0.015625)" xlink:href="#DejaVuSans-31"/>
     <use transform="translate(274.462891 0.015625)" xlink:href="#DejaVuSans-39"/>
     <use transform="translate(338.085938 0.015625)" xlink:href="#DejaVuSans-2e"/>
     <use transform="translate(369.873047 0.015625)" xlink:href="#DejaVuSans-39"/>
     <use transform="translate(433.496094 0.015625)" xlink:href="#DejaVuSans-36"/>
     <use transform="translate(497.119141 0.015625)" xlink:href="#DejaVuSans-30"/>
     <use transform="translate(560.742188 0.015625)" xlink:href="#DejaVuSans-20"/>
     <use transform="translate(592.529297 0.015625)" xlink:href="#DejaVuSans-28"/>
     <use transform="translate(631.542969 0.015625)" xlink:href="#DejaVuSans-b1"/>
     <use transform="translate(715.332031 0.015625)" xlink:href="#DejaVuSans-20"/>
     <use transform="translate(747.119141 0.015625)" xlink:href="#DejaVuSans-31"/>
     <use transform="translate(810.742188 0.015625)" xlink:href="#DejaVuSans-2e"/>
     <use transform="translate(842.529297 0.015625)" xlink:href="#DejaVuSans-30"/>
     <use transform="translate(906.152344 0.015625)" xlink:href="#DejaVuSans-38"/>
     <use transform="translate(969.775391 0.015625)" xlink:href="#DejaVuSans-20"/>
     <use transform="translate(1001.5625 0.015625)" xlink:href="#DejaVuSans-25"/>
     <use transform="translate(1096.582031 0.015625)" xlink:href="#DejaVuSans-29"/>
    </g>
    <!-- c = 98.609 ($\pm$ 0.68 %) -->
    <defs>
     <path d="M 48.78125 52.59375 
L 48.78125 44.1875 
Q 44.96875 46.296875 41.140625 47.34375 
Q 37.3125 48.390625 33.40625 48.390625 
Q 24.65625 48.390625 19.8125 42.84375 
Q 14.984375 37.3125 14.984375 27.296875 
Q 14.984375 17.28125 19.8125 11.734375 
Q 24.65625 6.203125 33.40625 6.203125 
Q 37.3125 6.203125 41.140625 7.25 
Q 44.96875 8.296875 48.78125 10.40625 
L 48.78125 2.09375 
Q 45.015625 0.34375 40.984375 -0.53125 
Q 36.96875 -1.421875 32.421875 -1.421875 
Q 20.0625 -1.421875 12.78125 6.34375 
Q 5.515625 14.109375 5.515625 27.296875 
Q 5.515625 40.671875 12.859375 48.328125 
Q 20.21875 56 33.015625 56 
Q 37.15625 56 41.109375 55.140625 
Q 45.0625 54.296875 48.78125 52.59375 
z
" id="DejaVuSans-63"/>
    </defs>
    <g transform="translate(75.456 77.3331)scale(0.12 -0.12)">
     <use transform="translate(0 0.125)" xlink:href="#DejaVuSans-63"/>
     <use transform="translate(54.980469 0.125)" xlink:href="#DejaVuSans-20"/>
     <use transform="translate(86.767578 0.125)" xlink:href="#DejaVuSans-3d"/>
     <use transform="translate(170.556641 0.125)" xlink:href="#DejaVuSans-20"/>
     <use transform="translate(202.34375 0.125)" xlink:href="#DejaVuSans-39"/>
     <use transform="translate(265.966797 0.125)" xlink:href="#DejaVuSans-38"/>
     <use transform="translate(329.589844 0.125)" xlink:href="#DejaVuSans-2e"/>
     <use transform="translate(361.376953 0.125)" xlink:href="#DejaVuSans-36"/>
     <use transform="translate(425 0.125)" xlink:href="#DejaVuSans-30"/>
     <use transform="translate(488.623047 0.125)" xlink:href="#DejaVuSans-39"/>
     <use transform="translate(552.246094 0.125)" xlink:href="#DejaVuSans-20"/>
     <use transform="translate(584.033203 0.125)" xlink:href="#DejaVuSans-28"/>
     <use transform="translate(623.046875 0.125)" xlink:href="#DejaVuSans-b1"/>
     <use transform="translate(706.835938 0.125)" xlink:href="#DejaVuSans-20"/>
     <use transform="translate(738.623047 0.125)" xlink:href="#DejaVuSans-30"/>
     <use transform="translate(802.246094 0.125)" xlink:href="#DejaVuSans-2e"/>
     <use transform="translate(834.033203 0.125)" xlink:href="#DejaVuSans-36"/>
     <use transform="translate(897.65625 0.125)" xlink:href="#DejaVuSans-38"/>
     <use transform="translate(961.279297 0.125)" xlink:href="#DejaVuSans-20"/>
     <use transform="translate(993.066406 0.125)" xlink:href="#DejaVuSans-25"/>
     <use transform="translate(1088.085938 0.125)" xlink:href="#DejaVuSans-29"/>
    </g>
    <!-- $\mu$ = 3.003 ($\pm$ 0.07 %) -->
    <defs>
     <path d="M -1.3125 -20.796875 
L 13.375 54.6875 
L 22.40625 54.6875 
L 15.765625 20.65625 
Q 15.578125 19.625 15.421875 18.359375 
Q 15.28125 17.09375 15.28125 15.828125 
Q 15.28125 11.28125 18.140625 8.828125 
Q 21 6.390625 26.3125 6.390625 
Q 33.546875 6.390625 37.984375 10.484375 
Q 42.4375 14.59375 44 22.796875 
L 50.203125 54.6875 
L 59.1875 54.6875 
L 51.03125 12.640625 
Q 50.828125 11.71875 50.75 11.03125 
Q 50.6875 10.359375 50.6875 9.8125 
Q 50.6875 8.296875 51.296875 7.59375 
Q 51.90625 6.890625 53.21875 6.890625 
Q 53.71875 6.890625 54.5625 7.125 
Q 55.421875 7.375 56.984375 8.015625 
L 55.609375 0.78125 
Q 53.46875 -0.296875 51.515625 -0.859375 
Q 49.5625 -1.421875 47.703125 -1.421875 
Q 44.484375 -1.421875 42.65625 0.625 
Q 40.828125 2.6875 40.828125 6.296875 
Q 38.09375 2.390625 34.296875 0.484375 
Q 30.515625 -1.421875 25.390625 -1.421875 
Q 20.84375 -1.421875 17.453125 0.671875 
Q 14.0625 2.78125 12.984375 6.203125 
L 7.71875 -20.796875 
z
" id="DejaVuSans-Oblique-3bc"/>
    </defs>
    <g transform="translate(75.456 90.772725)scale(0.12 -0.12)">
     <use transform="translate(0 0.125)" xlink:href="#DejaVuSans-Oblique-3bc"/>
     <use transform="translate(63.623047 0.125)" xlink:href="#DejaVuSans-20"/>
     <use transform="translate(95.410156 0.125)" xlink:href="#DejaVuSans-3d"/>
     <use transform="translate(179.199219 0.125)" xlink:href="#DejaVuSans-20"/>
     <use transform="translate(210.986328 0.125)" xlink:href="#DejaVuSans-33"/>
     <use transform="translate(274.609375 0.125)" xlink:href="#DejaVuSans-2e"/>
     <use transform="translate(306.396484 0.125)" xlink:href="#DejaVuSans-30"/>
     <use transform="translate(370.019531 0.125)" xlink:href="#DejaVuSans-30"/>
     <use transform="translate(433.642578 0.125)" xlink:href="#DejaVuSans-33"/>
     <use transform="translate(497.265625 0.125)" xlink:href="#DejaVuSans-20"/>
     <use transform="translate(529.052734 0.125)" xlink:href="#DejaVuSans-28"/>
     <use transform="translate(568.066406 0.125)" xlink:href="#DejaVuSans-b1"/>
     <use transform="translate(651.855469 0.125)" xlink:href="#DejaVuSans-20"/>
     <use transform="translate(683.642578 0.125)" xlink:href="#DejaVuSans-30"/>
     <use transform="translate(747.265625 0.125)" xlink:href="#DejaVuSans-2e"/>
     <use transform="translate(779.052734 0.125)" xlink:href="#DejaVuSans-30"/>
     <use transform="translate(842.675781 0.125)" xlink:href="#DejaVuSans-37"/>
     <use transform="translate(906.298828 0.125)" xlink:href="#DejaVuSans-20"/>
     <use transform="translate(938.085938 0.125)" xlink:href="#DejaVuSans-25"/>
     <use transform="translate(1033.105469 0.125)" xlink:href="#DejaVuSans-29"/>
    </g>
    <!-- $\sigma$ = 0.301 ($\pm$ 0.71 %) -->
    <defs>
     <path d="M 34.671875 47.5625 
Q 27.25 47.5625 22.21875 42.1875 
Q 16.890625 36.578125 15.140625 27.296875 
Q 13.1875 17.484375 16.3125 11.8125 
Q 19.390625 6.203125 26.65625 6.203125 
Q 33.84375 6.203125 39.109375 11.859375 
Q 44.4375 17.53125 46.34375 27.296875 
Q 48.046875 36.234375 45.015625 42.1875 
Q 42.1875 47.5625 34.671875 47.5625 
z
M 36.078125 54.734375 
L 65.921875 54.6875 
L 64.15625 45.703125 
L 54.109375 45.703125 
Q 57.90625 38.09375 55.859375 27.296875 
Q 53.21875 13.875 45.0625 6.25 
Q 36.859375 -1.421875 25.140625 -1.421875 
Q 13.375 -1.421875 8.203125 6.25 
Q 3.03125 13.875 5.671875 27.296875 
Q 8.25 40.765625 16.40625 48.390625 
Q 23.1875 54.734375 36.078125 54.734375 
z
" id="DejaVuSans-Oblique-3c3"/>
    </defs>
    <g transform="translate(75.456 104.234475)scale(0.12 -0.12)">
     <use transform="translate(0 0.125)" xlink:href="#DejaVuSans-Oblique-3c3"/>
     <use transform="translate(63.378906 0.125)" xlink:href="#DejaVuSans-20"/>
     <use transform="translate(95.166016 0.125)" xlink:href="#DejaVuSans-3d"/>
     <use transform="translate(178.955078 0.125)" xlink:href="#DejaVuSans-20"/>
     <use transform="translate(210.742188 0.125)" xlink:href="#DejaVuSans-30"/>
     <use transform="translate(274.365234 0.125)" xlink:href="#DejaVuSans-2e"/>
     <use transform="translate(306.152344 0.125)" xlink:href="#DejaVuSans-33"/>
     <use transform="translate(369.775391 0.125)" xlink:href="#DejaVuSans-30"/>
     <use transform="translate(433.398438 0.125)" xlink:href="#DejaVuSans-31"/>
     <use transform="translate(497.021484 0.125)" xlink:href="#DejaVuSans-20"/>
     <use transform="translate(528.808594 0.125)" xlink:href="#DejaVuSans-28"/>
     <use transform="translate(567.822266 0.125)" xlink:href="#DejaVuSans-b1"/>
     <use transform="translate(651.611328 0.125)" xlink:href="#DejaVuSans-20"/>
     <use transform="translate(683.398438 0.125)" xlink:href="#DejaVuSans-30"/>
     <use transform="translate(747.021484 0.125)" xlink:href="#DejaVuSans-2e"/>
     <use transform="translate(778.699219 0.125)" xlink:href="#DejaVuSans-37"/>
     <use transform="translate(842.322266 0.125)" xlink:href="#DejaVuSans-31"/>
     <use transform="translate(905.945312 0.125)" xlink:href="#DejaVuSans-20"/>
     <use transform="translate(937.732422 0.125)" xlink:href="#DejaVuSans-25"/>
     <use transform="translate(1032.751953 0.125)" xlink:href="#DejaVuSans-29"/>
    </g>
   </g>
   <g id="legend_1">
    <g id="patch_7">
     <path d="M 309.770625 86.2995 
L 406.32 86.2995 
Q 408.72 86.2995 408.72 83.8995 
L 408.72 49.872 
Q 408.72 47.472 406.32 47.472 
L 309.770625 47.472 
Q 307.370625 47.472 307.370625 49.872 
L 307.370625 83.8995 
Q 307.370625 86.2995 309.770625 86.2995 
z
" style="fill:#ffffff;opacity:0.8;stroke:#cccccc;stroke-linejoin:miter;"/>
    </g>
    <g id="line2d_19">
     <path d="M 312.170625 57.190125 
L 336.170625 57.190125 
" style="fill:none;stroke:#000000;stroke-linecap:square;stroke-width:1.5;"/>
    </g>
    <g id="line2d_20"/>
    <g id="text_18">
     <!-- Spectrum -->
     <defs>
      <path d="M 53.515625 70.515625 
L 53.515625 60.890625 
Q 47.90625 63.578125 42.921875 64.890625 
Q 37.9375 66.21875 33.296875 66.21875 
Q 25.25 66.21875 20.875 63.09375 
Q 16.5 59.96875 16.5 54.203125 
Q 16.5 49.359375 19.40625 46.890625 
Q 22.3125 44.4375 30.421875 42.921875 
L 36.375 41.703125 
Q 47.40625 39.59375 52.65625 34.296875 
Q 57.90625 29 57.90625 20.125 
Q 57.90625 9.515625 50.796875 4.046875 
Q 43.703125 -1.421875 29.984375 -1.421875 
Q 24.8125 -1.421875 18.96875 -0.25 
Q 13.140625 0.921875 6.890625 3.21875 
L 6.890625 13.375 
Q 12.890625 10.015625 18.65625 8.296875 
Q 24.421875 6.59375 29.984375 6.59375 
Q 38.421875 6.59375 43.015625 9.90625 
Q 47.609375 13.234375 47.609375 19.390625 
Q 47.609375 24.75 44.3125 27.78125 
Q 41.015625 30.8125 33.5 32.328125 
L 27.484375 33.5 
Q 16.453125 35.6875 11.515625 40.375 
Q 6.59375 45.0625 6.59375 53.421875 
Q 6.59375 63.09375 13.40625 68.65625 
Q 20.21875 74.21875 32.171875 74.21875 
Q 37.3125 74.21875 42.625 73.28125 
Q 47.953125 72.359375 53.515625 70.515625 
z
" id="DejaVuSans-53"/>
      <path d="M 18.109375 8.203125 
L 18.109375 -20.796875 
L 9.078125 -20.796875 
L 9.078125 54.6875 
L 18.109375 54.6875 
L 18.109375 46.390625 
Q 20.953125 51.265625 25.265625 53.625 
Q 29.59375 56 35.59375 56 
Q 45.5625 56 51.78125 48.09375 
Q 58.015625 40.1875 58.015625 27.296875 
Q 58.015625 14.40625 51.78125 6.484375 
Q 45.5625 -1.421875 35.59375 -1.421875 
Q 29.59375 -1.421875 25.265625 0.953125 
Q 20.953125 3.328125 18.109375 8.203125 
z
M 48.6875 27.296875 
Q 48.6875 37.203125 44.609375 42.84375 
Q 40.53125 48.484375 33.40625 48.484375 
Q 26.265625 48.484375 22.1875 42.84375 
Q 18.109375 37.203125 18.109375 27.296875 
Q 18.109375 17.390625 22.1875 11.75 
Q 26.265625 6.109375 33.40625 6.109375 
Q 40.53125 6.109375 44.609375 11.75 
Q 48.6875 17.390625 48.6875 27.296875 
z
" id="DejaVuSans-70"/>
      <path d="M 56.203125 29.59375 
L 56.203125 25.203125 
L 14.890625 25.203125 
Q 15.484375 15.921875 20.484375 11.0625 
Q 25.484375 6.203125 34.421875 6.203125 
Q 39.59375 6.203125 44.453125 7.46875 
Q 49.3125 8.734375 54.109375 11.28125 
L 54.109375 2.78125 
Q 49.265625 0.734375 44.1875 -0.34375 
Q 39.109375 -1.421875 33.890625 -1.421875 
Q 20.796875 -1.421875 13.15625 6.1875 
Q 5.515625 13.8125 5.515625 26.8125 
Q 5.515625 40.234375 12.765625 48.109375 
Q 20.015625 56 32.328125 56 
Q 43.359375 56 49.78125 48.890625 
Q 56.203125 41.796875 56.203125 29.59375 
z
M 47.21875 32.234375 
Q 47.125 39.59375 43.09375 43.984375 
Q 39.0625 48.390625 32.421875 48.390625 
Q 24.90625 48.390625 20.390625 44.140625 
Q 15.875 39.890625 15.1875 32.171875 
z
" id="DejaVuSans-65"/>
      <path d="M 18.3125 70.21875 
L 18.3125 54.6875 
L 36.8125 54.6875 
L 36.8125 47.703125 
L 18.3125 47.703125 
L 18.3125 18.015625 
Q 18.3125 11.328125 20.140625 9.421875 
Q 21.96875 7.515625 27.59375 7.515625 
L 36.8125 7.515625 
L 36.8125 0 
L 27.59375 0 
Q 17.1875 0 13.234375 3.875 
Q 9.28125 7.765625 9.28125 18.015625 
L 9.28125 47.703125 
L 2.6875 47.703125 
L 2.6875 54.6875 
L 9.28125 54.6875 
L 9.28125 70.21875 
z
" id="DejaVuSans-74"/>
      <path d="M 41.109375 46.296875 
Q 39.59375 47.171875 37.8125 47.578125 
Q 36.03125 48 33.890625 48 
Q 26.265625 48 22.1875 43.046875 
Q 18.109375 38.09375 18.109375 28.8125 
L 18.109375 0 
L 9.078125 0 
L 9.078125 54.6875 
L 18.109375 54.6875 
L 18.109375 46.1875 
Q 20.953125 51.171875 25.484375 53.578125 
Q 30.03125 56 36.53125 56 
Q 37.453125 56 38.578125 55.875 
Q 39.703125 55.765625 41.0625 55.515625 
z
" id="DejaVuSans-72"/>
      <path d="M 8.5 21.578125 
L 8.5 54.6875 
L 17.484375 54.6875 
L 17.484375 21.921875 
Q 17.484375 14.15625 20.5 10.265625 
Q 23.53125 6.390625 29.59375 6.390625 
Q 36.859375 6.390625 41.078125 11.03125 
Q 45.3125 15.671875 45.3125 23.6875 
L 45.3125 54.6875 
L 54.296875 54.6875 
L 54.296875 0 
L 45.3125 0 
L 45.3125 8.40625 
Q 42.046875 3.421875 37.71875 1 
Q 33.40625 -1.421875 27.6875 -1.421875 
Q 18.265625 -1.421875 13.375 4.4375 
Q 8.5 10.296875 8.5 21.578125 
z
M 31.109375 56 
z
" id="DejaVuSans-75"/>
      <path d="M 52 44.1875 
Q 55.375 50.25 60.0625 53.125 
Q 64.75 56 71.09375 56 
Q 79.640625 56 84.28125 50.015625 
Q 88.921875 44.046875 88.921875 33.015625 
L 88.921875 0 
L 79.890625 0 
L 79.890625 32.71875 
Q 79.890625 40.578125 77.09375 44.375 
Q 74.3125 48.1875 68.609375 48.1875 
Q 61.625 48.1875 57.5625 43.546875 
Q 53.515625 38.921875 53.515625 30.90625 
L 53.515625 0 
L 44.484375 0 
L 44.484375 32.71875 
Q 44.484375 40.625 41.703125 44.40625 
Q 38.921875 48.1875 33.109375 48.1875 
Q 26.21875 48.1875 22.15625 43.53125 
Q 18.109375 38.875 18.109375 30.90625 
L 18.109375 0 
L 9.078125 0 
L 9.078125 54.6875 
L 18.109375 54.6875 
L 18.109375 46.1875 
Q 21.1875 51.21875 25.484375 53.609375 
Q 29.78125 56 35.6875 56 
Q 41.65625 56 45.828125 52.96875 
Q 50 49.953125 52 44.1875 
z
" id="DejaVuSans-6d"/>
     </defs>
     <g transform="translate(345.770625 61.390125)scale(0.12 -0.12)">
      <use xlink:href="#DejaVuSans-53"/>
      <use x="63.476562" xlink:href="#DejaVuSans-70"/>
      <use x="126.953125" xlink:href="#DejaVuSans-65"/>
      <use x="188.476562" xlink:href="#DejaVuSans-63"/>
      <use x="243.457031" xlink:href="#DejaVuSans-74"/>
      <use x="282.666016" xlink:href="#DejaVuSans-72"/>
      <use x="323.779297" xlink:href="#DejaVuSans-75"/>
      <use x="387.158203" xlink:href="#DejaVuSans-6d"/>
     </g>
    </g>
    <g id="line2d_21">
     <path d="M 312.170625 74.803875 
L 336.170625 74.803875 
" style="fill:none;stroke:#ff0000;stroke-linecap:square;stroke-width:1.5;"/>
    </g>
    <g id="line2d_22"/>
    <g id="text_19">
     <!-- Fit -->
     <defs>
      <path d="M 9.8125 72.90625 
L 51.703125 72.90625 
L 51.703125 64.59375 
L 19.671875 64.59375 
L 19.671875 43.109375 
L 48.578125 43.109375 
L 48.578125 34.8125 
L 19.671875 34.8125 
L 19.671875 0 
L 9.8125 0 
z
" id="DejaVuSans-46"/>
      <path d="M 9.421875 54.6875 
L 18.40625 54.6875 
L 18.40625 0 
L 9.421875 0 
z
M 9.421875 75.984375 
L 18.40625 75.984375 
L 18.40625 64.59375 
L 9.421875 64.59375 
z
" id="DejaVuSans-69"/>
     </defs>
     <g transform="translate(345.770625 79.003875)scale(0.12 -0.12)">
      <use xlink:href="#DejaVuSans-46"/>
      <use x="57.410156" xlink:href="#DejaVuSans-69"/>
      <use x="85.193359" xlink:href="#DejaVuSans-74"/>
     </g>
    </g>
   </g>
  </g>
 </g>
 <defs>
  <clipPath id="p16b789891c">
   <rect height="266.112" width="357.12" x="57.6" y="41.472"/>
  </clipPath>
 </defs>
</svg>
